{"glyphs":{"0":{"ha":842,"x_min":67,"x_max":775,"o":"m 421 -11 q 230 38 310 -11 q 108 197 150 88 q 67 488 67 307 q 108 779 67 669 q 229 938 150 889 q 421 988 308 988 q 613 938 535 988 q 733 779 692 889 q 775 488 775 669 q 733 197 775 307 q 613 38 692 88 q 421 -11 533 -11 m 421 172 q 504 197 472 172 q 551 291 536 222 q 567 488 567 360 q 551 685 567 617 q 504 778 536 753 q 421 804 472 804 q 338 778 371 804 q 290 685 306 753 q 275 488 275 617 q 290 291 275 360 q 338 197 306 222 q 421 172 371 172 z "},"1":{"ha":481,"x_min":17,"x_max":381,"o":"m 283 -11 q 181 82 181 -11 l 181 789 l 103 789 q 38 817 60 789 q 17 881 17 846 q 38 944 17 915 q 103 972 60 972 l 279 972 q 381 879 381 972 l 381 82 q 358 12 381 35 q 283 -11 335 -11 z "},"2":{"ha":783,"x_min":92,"x_max":719,"o":"m 189 0 q 129 18 150 0 q 101 64 108 36 q 92 124 93 92 q 92 183 92 156 q 144 379 92 307 q 328 490 197 451 q 440 534 399 514 q 499 590 481 554 q 517 690 517 625 q 490 770 517 736 q 399 804 464 804 q 317 799 360 804 q 238 793 275 793 q 156 814 182 793 q 131 878 131 835 q 189 957 131 935 q 375 988 263 988 q 625 909 535 988 q 715 692 715 831 q 688 519 715 589 q 596 404 660 450 q 424 326 532 358 q 319 280 347 304 q 290 208 290 256 l 290 165 q 364 193 318 193 l 613 193 q 692 168 664 193 q 719 96 719 143 q 613 0 719 0 l 189 0 z "},"3":{"ha":783,"x_min":83,"x_max":719,"o":"m 338 -11 q 249 -8 282 -11 q 189 1 215 -4 q 102 45 121 15 q 83 106 83 75 q 107 159 83 138 q 188 181 131 181 q 271 176 226 181 q 357 172 315 172 q 438 181 401 172 q 497 215 475 190 q 519 286 519 239 q 499 356 519 332 q 446 388 478 379 q 382 396 414 396 q 338 395 360 396 q 296 394 315 394 q 196 410 233 394 q 158 486 158 425 q 195 563 158 547 q 292 578 232 578 q 333 577 311 578 q 376 576 354 576 q 460 605 425 576 q 494 701 494 633 q 451 781 494 754 q 351 807 408 807 q 276 800 315 807 q 204 793 236 793 q 124 871 124 793 q 344 988 124 988 q 585 910 497 988 q 672 701 672 833 q 644 572 672 633 q 574 489 615 511 q 679 403 639 460 q 719 283 719 346 q 672 129 719 196 q 538 26 624 63 q 338 -11 453 -11 z "},"4":{"ha":842,"x_min":28,"x_max":806,"o":"m 136 250 q 60 267 93 250 q 28 317 28 283 q 33 343 28 331 l 238 917 q 280 971 251 954 q 339 988 308 988 q 413 956 388 988 q 424 881 439 925 l 263 425 q 322 443 292 443 l 458 443 l 458 553 q 482 624 458 601 q 557 646 506 646 q 658 553 658 646 l 658 443 l 699 443 q 778 418 750 443 q 806 346 806 393 q 699 250 806 250 l 658 250 l 658 82 q 561 -11 658 -11 q 486 12 514 -11 q 458 82 458 35 l 458 250 l 136 250 z "},"5":{"ha":750,"x_min":42,"x_max":686,"o":"m 318 -11 q 240 -8 286 -11 q 148 6 193 -6 q 72 40 103 17 q 42 101 42 63 q 140 199 42 199 q 196 191 164 199 q 262 176 228 183 q 322 168 296 168 q 440 198 394 168 q 486 292 486 228 q 469 369 486 340 q 427 410 453 397 q 373 428 401 424 q 321 432 344 432 l 169 432 q 102 456 126 432 q 76 510 78 481 l 114 840 q 141 933 121 894 q 211 972 161 972 l 549 972 q 628 951 601 972 q 656 883 656 931 q 628 808 656 836 q 549 779 600 779 l 375 779 q 326 790 351 779 q 285 821 301 801 q 282 799 285 822 q 275 742 279 776 q 267 674 271 708 q 260 616 263 639 q 257 593 257 593 q 420 586 343 594 q 557 549 497 578 q 651 458 617 519 q 686 292 686 397 q 640 127 686 194 q 510 24 593 60 q 318 -11 428 -11 z "},"6":{"ha":797,"x_min":67,"x_max":733,"o":"m 418 -11 q 290 10 353 -11 q 177 81 228 32 q 97 208 126 129 q 67 403 67 288 q 88 615 67 511 q 155 803 108 718 q 278 938 201 888 q 468 988 356 988 q 615 966 574 988 q 656 889 656 944 q 626 826 656 844 q 538 807 596 807 q 365 769 418 807 q 299 642 313 731 q 354 666 322 657 q 429 675 386 675 q 588 640 519 675 q 694 530 656 604 q 733 338 733 456 q 688 137 733 214 q 570 24 642 60 q 418 -11 499 -11 m 415 172 q 492 196 465 172 q 531 258 519 219 q 542 338 542 296 q 531 419 542 381 q 492 483 519 458 q 415 508 465 508 q 337 483 367 508 q 294 419 307 458 q 282 338 282 381 q 294 258 282 296 q 337 196 307 219 q 415 172 367 172 z "},"7":{"ha":799,"x_min":42,"x_max":756,"o":"m 308 -11 q 244 3 275 -11 q 199 49 213 18 q 206 131 185 81 l 456 725 q 474 767 463 740 q 494 816 485 794 q 503 838 503 838 q 414 794 467 794 l 149 794 q 69 819 97 794 q 42 892 42 844 q 149 988 42 988 l 636 988 q 726 956 697 988 q 736 879 756 925 l 408 97 q 391 55 401 81 q 361 9 381 29 q 308 -11 342 -11 z "},"8":{"ha":839,"x_min":93,"x_max":775,"o":"m 438 -15 q 274 17 353 -15 q 144 113 194 49 q 93 271 93 176 q 133 403 93 347 q 231 490 174 460 q 154 576 182 519 q 126 700 126 633 q 158 837 126 771 q 258 945 189 903 q 436 988 326 988 q 615 944 547 988 q 713 835 682 901 q 743 700 743 769 q 717 575 743 632 q 643 490 690 518 q 738 403 701 460 q 775 271 775 347 q 726 112 775 175 q 599 17 676 49 q 438 -15 522 -15 m 443 579 q 522 616 496 579 q 549 700 549 653 q 520 783 549 744 q 433 821 492 821 q 350 783 379 821 q 321 700 321 744 q 350 616 321 653 q 443 579 379 579 m 436 158 q 542 199 507 158 q 576 288 576 240 q 542 376 576 336 q 436 417 507 417 q 328 376 364 417 q 293 288 293 336 q 328 199 293 240 q 436 158 364 158 z "},"9":{"ha":797,"x_min":64,"x_max":731,"o":"m 379 982 q 507 960 444 982 q 620 890 569 939 q 701 763 671 842 q 731 568 731 683 q 710 356 731 460 q 642 168 689 253 q 519 33 596 83 q 329 -17 442 -17 q 183 5 224 -17 q 142 82 142 26 q 172 145 142 126 q 260 164 201 164 q 432 202 379 164 q 499 329 485 240 q 443 305 475 314 q 368 296 411 296 q 210 331 279 296 q 103 441 142 367 q 64 633 64 515 q 110 835 64 758 q 228 947 156 911 q 379 982 300 982 m 382 799 q 306 775 333 799 q 267 714 278 751 q 256 633 256 676 q 267 551 256 590 q 306 488 278 513 q 382 463 333 463 q 461 488 432 463 q 503 551 490 513 q 515 633 515 590 q 503 714 515 676 q 461 775 490 751 q 382 799 432 799 z "},"A":{"ha":838,"x_min":93,"x_max":744,"o":"m 293 82 q 196 -11 293 -11 q 121 13 149 -11 q 93 82 93 36 l 93 632 q 171 906 93 824 q 414 988 249 988 q 664 904 583 988 q 744 632 744 821 l 744 82 q 647 -11 744 -11 q 572 13 600 -11 q 544 82 544 36 l 544 417 q 487 376 518 393 q 414 360 456 360 q 323 338 353 360 q 293 258 293 315 l 293 82 m 285 489 q 338 524 307 511 q 414 536 369 536 q 495 544 467 536 q 535 576 524 553 q 546 646 546 600 q 517 787 546 749 q 413 825 488 825 q 317 785 343 825 q 292 640 292 746 q 290 549 292 586 q 285 489 289 511 z "},"Á":{"ha":838,"x_min":93,"x_max":744,"o":"m 293 82 q 196 -11 293 -11 q 121 13 149 -11 q 93 82 93 36 l 93 632 q 171 906 93 824 q 414 988 249 988 q 664 904 583 988 q 744 632 744 821 l 744 82 q 647 -11 744 -11 q 572 13 600 -11 q 544 82 544 36 l 544 417 q 487 376 518 393 q 414 360 456 360 q 323 338 353 360 q 293 258 293 315 l 293 82 m 285 489 q 338 524 307 511 q 414 536 369 536 q 495 544 467 536 q 535 576 524 553 q 546 646 546 600 q 517 787 546 749 q 413 825 488 825 q 317 785 343 825 q 292 640 292 746 q 290 549 292 586 q 285 489 289 511 m 253 1078 q 219 1092 235 1078 q 203 1125 203 1107 q 210 1147 203 1136 q 235 1168 217 1158 q 265 1187 240 1171 q 326 1226 290 1203 q 399 1274 361 1249 q 468 1321 438 1299 q 489 1331 479 1328 q 507 1333 499 1333 q 562 1306 540 1333 q 583 1242 583 1278 q 567 1195 583 1215 q 511 1156 550 1175 q 449 1130 488 1143 q 370 1105 411 1117 q 297 1085 329 1093 q 253 1078 265 1078 z "},"Ă":{"ha":838,"x_min":93,"x_max":744,"o":"m 293 82 q 196 -11 293 -11 q 121 13 149 -11 q 93 82 93 36 l 93 632 q 171 906 93 824 q 414 988 249 988 q 664 904 583 988 q 744 632 744 821 l 744 82 q 647 -11 744 -11 q 572 13 600 -11 q 544 82 544 36 l 544 417 q 487 376 518 393 q 414 360 456 360 q 323 338 353 360 q 293 258 293 315 l 293 82 m 285 489 q 338 524 307 511 q 414 536 369 536 q 495 544 467 536 q 535 576 524 553 q 546 646 546 600 q 517 787 546 749 q 413 825 488 825 q 317 785 343 825 q 292 640 292 746 q 290 549 292 586 q 285 489 289 511 m 486 1265 q 498 1326 481 1306 q 551 1347 515 1347 q 598 1328 575 1347 q 621 1260 621 1308 q 560 1130 621 1175 q 413 1085 500 1085 q 265 1130 325 1085 q 206 1260 206 1175 q 228 1328 206 1308 q 274 1347 250 1347 q 328 1326 310 1347 q 339 1265 346 1306 q 355 1226 336 1244 q 413 1208 374 1208 q 471 1226 453 1208 q 486 1265 489 1244 z "},"Â":{"ha":838,"x_min":93,"x_max":744,"o":"m 293 82 q 196 -11 293 -11 q 121 13 149 -11 q 93 82 93 36 l 93 632 q 171 906 93 824 q 414 988 249 988 q 664 904 583 988 q 744 632 744 821 l 744 82 q 647 -11 744 -11 q 572 13 600 -11 q 544 82 544 36 l 544 417 q 487 376 518 393 q 414 360 456 360 q 323 338 353 360 q 293 258 293 315 l 293 82 m 285 489 q 338 524 307 511 q 414 536 369 536 q 495 544 467 536 q 535 576 524 553 q 546 646 546 600 q 517 787 546 749 q 413 825 488 825 q 317 785 343 825 q 292 640 292 746 q 290 549 292 586 q 285 489 289 511 m 483 1304 l 581 1254 q 651 1171 651 1219 q 630 1115 651 1136 q 576 1094 608 1094 q 538 1107 558 1094 l 413 1186 l 288 1107 q 249 1094 267 1094 q 196 1115 217 1094 q 175 1171 175 1136 q 244 1254 175 1221 l 342 1304 q 392 1324 372 1319 q 433 1324 413 1329 q 483 1304 454 1319 z "},"Ä":{"ha":838,"x_min":93,"x_max":744,"o":"m 293 82 q 196 -11 293 -11 q 121 13 149 -11 q 93 82 93 36 l 93 632 q 171 906 93 824 q 414 988 249 988 q 664 904 583 988 q 744 632 744 821 l 744 82 q 647 -11 744 -11 q 572 13 600 -11 q 544 82 544 36 l 544 417 q 487 376 518 393 q 414 360 456 360 q 323 338 353 360 q 293 258 293 315 l 293 82 m 285 489 q 338 524 307 511 q 414 536 369 536 q 495 544 467 536 q 535 576 524 553 q 546 646 546 600 q 517 787 546 749 q 413 825 488 825 q 317 785 343 825 q 292 640 292 746 q 290 549 292 586 q 285 489 289 511 m 268 1114 q 199 1140 225 1114 q 174 1206 174 1165 q 199 1273 174 1247 q 268 1299 225 1299 q 335 1273 310 1299 q 361 1206 361 1247 q 335 1140 361 1165 q 268 1114 310 1114 m 558 1114 q 490 1140 515 1114 q 465 1206 465 1165 q 490 1273 465 1247 q 558 1299 515 1299 q 626 1273 600 1299 q 653 1206 653 1247 q 626 1140 653 1165 q 558 1114 600 1114 z "},"À":{"ha":838,"x_min":93,"x_max":744,"o":"m 293 82 q 196 -11 293 -11 q 121 13 149 -11 q 93 82 93 36 l 93 632 q 171 906 93 824 q 414 988 249 988 q 664 904 583 988 q 744 632 744 821 l 744 82 q 647 -11 744 -11 q 572 13 600 -11 q 544 82 544 36 l 544 417 q 487 376 518 393 q 414 360 456 360 q 323 338 353 360 q 293 258 293 315 l 293 82 m 285 489 q 338 524 307 511 q 414 536 369 536 q 495 544 467 536 q 535 576 524 553 q 546 646 546 600 q 517 787 546 749 q 413 825 488 825 q 317 785 343 825 q 292 640 292 746 q 290 549 292 586 q 285 489 289 511 m 575 1078 q 531 1085 563 1078 q 458 1105 499 1093 q 378 1130 417 1117 q 317 1156 340 1143 q 261 1195 278 1175 q 244 1242 244 1215 q 266 1306 244 1278 q 321 1333 288 1333 q 340 1331 329 1333 q 360 1321 350 1328 q 429 1274 392 1299 q 502 1226 467 1249 q 563 1187 538 1203 q 593 1168 588 1171 q 618 1147 611 1158 q 625 1125 625 1136 q 610 1092 625 1107 q 575 1078 594 1078 z "},"Ā":{"ha":838,"x_min":93,"x_max":744,"o":"m 293 82 q 196 -11 293 -11 q 121 13 149 -11 q 93 82 93 36 l 93 632 q 171 906 93 824 q 414 988 249 988 q 664 904 583 988 q 744 632 744 821 l 744 82 q 647 -11 744 -11 q 572 13 600 -11 q 544 82 544 36 l 544 417 q 487 376 518 393 q 414 360 456 360 q 323 338 353 360 q 293 258 293 315 l 293 82 m 285 489 q 338 524 307 511 q 414 536 369 536 q 495 544 467 536 q 535 576 524 553 q 546 646 546 600 q 517 787 546 749 q 413 825 488 825 q 317 785 343 825 q 292 640 292 746 q 290 549 292 586 q 285 489 289 511 m 261 1097 q 210 1115 229 1097 q 190 1171 190 1132 q 210 1226 190 1210 q 261 1243 229 1243 l 567 1243 q 618 1226 599 1243 q 638 1171 638 1210 q 618 1115 638 1132 q 567 1097 599 1097 l 261 1097 z "},"Ą":{"ha":838,"x_min":93,"x_max":776,"o":"m 293 82 q 196 -11 293 -11 q 121 13 149 -11 q 93 82 93 36 l 93 632 q 171 906 93 824 q 414 988 249 988 q 664 904 583 988 q 744 632 744 821 l 744 82 q 736 33 744 53 q 694 -12 724 6 q 601 -142 601 -71 q 633 -194 601 -174 q 721 -218 665 -214 q 762 -236 747 -219 q 776 -279 776 -253 q 755 -334 776 -312 q 700 -356 733 -356 q 540 -310 603 -356 q 478 -194 478 -265 q 576 10 478 -72 q 544 82 544 33 l 544 417 q 487 376 518 393 q 414 360 456 360 q 323 338 353 360 q 293 258 293 315 l 293 82 m 285 489 q 338 524 307 511 q 414 536 369 536 q 495 544 467 536 q 535 576 524 553 q 546 646 546 600 q 517 787 546 749 q 413 825 488 825 q 317 785 343 825 q 292 640 292 746 q 290 549 292 586 q 285 489 289 511 z "},"Å":{"ha":838,"x_min":93,"x_max":744,"o":"m 293 82 q 196 -11 293 -11 q 121 13 149 -11 q 93 82 93 36 l 93 632 q 171 906 93 824 q 414 988 249 988 q 664 904 583 988 q 744 632 744 821 l 744 82 q 647 -11 744 -11 q 572 13 600 -11 q 544 82 544 36 l 544 417 q 487 376 518 393 q 414 360 456 360 q 323 338 353 360 q 293 258 293 315 l 293 82 m 285 489 q 338 524 307 511 q 414 536 369 536 q 495 544 467 536 q 535 576 524 553 q 546 646 546 600 q 517 787 546 749 q 413 825 488 825 q 317 785 343 825 q 292 640 292 746 q 290 549 292 586 q 285 489 289 511 m 413 1063 q 301 1107 346 1063 q 257 1219 257 1151 q 301 1331 257 1286 q 413 1375 346 1375 q 525 1331 481 1375 q 569 1219 569 1286 q 525 1107 569 1151 q 413 1063 481 1063 m 414 1167 q 451 1181 438 1167 q 465 1219 465 1196 q 451 1257 465 1243 q 414 1271 438 1271 q 376 1257 390 1271 q 361 1219 361 1243 q 376 1181 361 1196 q 414 1167 390 1167 z "},"Ã":{"ha":838,"x_min":93,"x_max":744,"o":"m 293 82 q 196 -11 293 -11 q 121 13 149 -11 q 93 82 93 36 l 93 632 q 171 906 93 824 q 414 988 249 988 q 664 904 583 988 q 744 632 744 821 l 744 82 q 647 -11 744 -11 q 572 13 600 -11 q 544 82 544 36 l 544 417 q 487 376 518 393 q 414 360 456 360 q 323 338 353 360 q 293 258 293 315 l 293 82 m 285 489 q 338 524 307 511 q 414 536 369 536 q 495 544 467 536 q 535 576 524 553 q 546 646 546 600 q 517 787 546 749 q 413 825 488 825 q 317 785 343 825 q 292 640 292 746 q 290 549 292 586 q 285 489 289 511 m 225 1072 q 172 1090 189 1072 q 156 1131 156 1107 q 175 1191 156 1160 q 231 1244 194 1222 q 317 1265 268 1265 q 390 1252 365 1265 q 439 1225 415 1239 q 470 1208 454 1215 q 501 1200 486 1200 q 533 1210 522 1200 q 552 1232 544 1219 q 571 1254 560 1244 q 603 1264 582 1264 q 656 1247 639 1264 q 672 1206 672 1229 q 653 1146 672 1178 q 597 1092 633 1114 q 511 1071 561 1071 q 439 1084 464 1071 q 389 1111 414 1097 q 358 1128 374 1119 q 326 1136 342 1136 q 294 1126 306 1136 q 276 1104 283 1117 q 257 1082 268 1092 q 225 1072 246 1072 z "},"Æ":{"ha":1200,"x_min":93,"x_max":1156,"o":"m 193 -11 q 93 78 93 -11 l 93 632 q 171 906 93 824 q 414 988 249 988 q 642 924 564 988 q 885 972 722 972 l 1058 972 q 1130 948 1104 972 q 1156 879 1156 924 q 1130 813 1156 836 q 1058 789 1104 789 l 875 789 q 775 761 806 789 q 744 671 744 733 q 742 616 744 649 q 733 542 739 583 q 793 573 757 561 q 864 585 829 585 l 1001 585 q 1062 561 1040 585 q 1083 496 1083 538 q 1061 429 1083 454 q 1001 404 1039 404 l 853 404 q 767 378 789 404 q 744 275 744 353 l 744 183 l 1058 183 q 1133 161 1110 183 q 1156 89 1156 139 q 1133 21 1156 42 q 1058 0 1111 0 l 607 0 q 563 21 581 0 q 544 74 544 42 l 544 417 q 487 376 518 393 q 414 360 456 360 q 323 338 353 360 q 293 258 293 315 l 293 78 q 193 -11 293 -11 m 285 489 q 338 524 307 511 q 414 536 369 536 q 495 544 467 536 q 534 576 524 553 q 544 646 544 600 q 516 787 544 749 q 413 825 488 825 q 317 785 343 825 q 292 640 292 746 q 290 549 292 586 q 285 489 289 511 z "},"B":{"ha":843,"x_min":93,"x_max":788,"o":"m 156 0 q 111 21 129 0 q 93 74 93 42 l 93 699 q 106 794 93 744 q 156 888 119 844 q 261 960 193 932 q 439 988 329 988 q 665 915 585 988 q 746 699 746 843 q 724 592 746 640 q 660 518 703 543 q 758 433 728 488 q 788 283 788 379 q 702 72 788 144 q 439 0 617 0 l 156 0 m 283 543 q 342 578 301 565 q 439 590 383 590 q 528 615 504 590 q 553 699 553 639 q 524 798 553 768 q 439 828 496 828 q 326 799 358 828 q 293 699 293 769 q 292 630 293 656 q 290 585 292 604 q 283 543 288 565 m 293 161 l 439 161 q 555 190 522 161 q 588 283 588 219 q 553 413 588 374 q 439 451 519 451 q 350 437 382 451 q 306 386 318 422 q 293 283 293 350 l 293 161 z "},"C":{"ha":740,"x_min":67,"x_max":696,"o":"m 275 482 q 315 245 275 317 q 435 174 356 174 q 522 181 485 174 q 590 189 560 189 q 671 166 646 189 q 696 107 696 143 q 662 35 696 60 q 576 0 628 10 q 469 -10 524 -10 q 231 46 319 -10 q 105 210 143 101 q 67 482 67 319 q 105 758 67 644 q 231 929 143 871 q 469 988 319 988 q 576 978 524 988 q 662 943 628 968 q 696 871 696 918 q 671 813 696 836 q 590 789 646 789 q 522 797 560 789 q 435 804 485 804 q 306 726 338 804 q 275 482 275 647 z "},"Ć":{"ha":740,"x_min":67,"x_max":696,"o":"m 275 482 q 315 245 275 317 q 435 174 356 174 q 522 181 485 174 q 590 189 560 189 q 671 166 646 189 q 696 107 696 143 q 662 35 696 60 q 576 0 628 10 q 469 -10 524 -10 q 231 46 319 -10 q 105 210 143 101 q 67 482 67 319 q 105 758 67 644 q 231 929 143 871 q 469 988 319 988 q 576 978 524 988 q 662 943 628 968 q 696 871 696 918 q 671 813 696 836 q 590 789 646 789 q 522 797 560 789 q 435 804 485 804 q 306 726 338 804 q 275 482 275 647 m 251 1078 q 217 1092 233 1078 q 201 1125 201 1107 q 208 1147 201 1136 q 233 1168 215 1158 q 264 1187 239 1171 q 324 1226 289 1203 q 398 1274 360 1249 q 467 1321 436 1299 q 488 1331 478 1328 q 506 1333 497 1333 q 560 1306 539 1333 q 582 1242 582 1278 q 565 1195 582 1215 q 510 1156 549 1175 q 448 1130 486 1143 q 369 1105 410 1117 q 296 1085 328 1093 q 251 1078 264 1078 z "},"Č":{"ha":740,"x_min":67,"x_max":696,"o":"m 275 482 q 315 245 275 317 q 435 174 356 174 q 522 181 485 174 q 590 189 560 189 q 671 166 646 189 q 696 107 696 143 q 662 35 696 60 q 576 0 628 10 q 469 -10 524 -10 q 231 46 319 -10 q 105 210 143 101 q 67 482 67 319 q 105 758 67 644 q 231 929 143 871 q 469 988 319 988 q 576 978 524 988 q 662 943 628 968 q 696 871 696 918 q 671 813 696 836 q 590 789 646 789 q 522 797 560 789 q 435 804 485 804 q 306 726 338 804 q 275 482 275 647 m 483 1118 q 433 1099 454 1104 q 392 1098 413 1093 q 342 1118 372 1103 l 244 1168 q 175 1251 175 1201 q 196 1308 175 1288 q 249 1328 217 1328 q 288 1315 267 1328 l 413 1236 l 538 1315 q 576 1328 558 1328 q 630 1308 608 1328 q 651 1251 651 1288 q 581 1168 651 1203 l 483 1118 z "},"Ç":{"ha":740,"x_min":67,"x_max":696,"o":"m 371 -328 q 277 -303 310 -325 q 246 -246 244 -282 q 261 -208 246 -224 q 303 -193 276 -192 q 337 -201 324 -193 q 371 -210 350 -208 q 440 -168 438 -211 q 414 -128 442 -144 q 344 -111 386 -112 q 318 -82 318 -108 q 328 -48 318 -71 q 351 1 338 -25 q 131 153 194 32 q 67 482 67 274 q 105 758 67 644 q 231 929 143 871 q 469 988 319 988 q 576 978 524 988 q 662 943 628 968 q 696 871 696 918 q 671 813 696 836 q 590 789 646 789 q 522 797 560 789 q 435 804 485 804 q 306 726 338 804 q 275 482 275 647 q 315 245 275 317 q 435 174 356 174 q 522 181 485 174 q 590 189 560 189 q 671 166 646 189 q 696 107 696 143 q 664 36 696 61 q 582 1 632 11 q 479 -10 532 -10 l 456 -54 q 528 -99 499 -60 q 557 -185 558 -137 q 505 -292 556 -254 q 371 -328 454 -331 z "},"Ċ":{"ha":740,"x_min":67,"x_max":696,"o":"m 275 482 q 315 245 275 317 q 435 174 356 174 q 522 181 485 174 q 590 189 560 189 q 671 166 646 189 q 696 107 696 143 q 662 35 696 60 q 576 0 628 10 q 469 -10 524 -10 q 231 46 319 -10 q 105 210 143 101 q 67 482 67 319 q 105 758 67 644 q 231 929 143 871 q 469 988 319 988 q 576 978 524 988 q 662 943 628 968 q 696 871 696 918 q 671 813 696 836 q 590 789 646 789 q 522 797 560 789 q 435 804 485 804 q 306 726 338 804 q 275 482 275 647 m 413 1103 q 326 1136 361 1103 q 292 1218 292 1169 q 326 1303 292 1269 q 413 1336 361 1336 q 499 1303 465 1336 q 533 1218 533 1269 q 499 1136 533 1169 q 413 1103 465 1103 z "},"D":{"ha":854,"x_min":93,"x_max":788,"o":"m 157 0 q 112 20 131 0 q 93 71 93 40 l 93 690 q 172 911 93 835 q 399 988 250 988 q 788 483 788 988 q 690 119 788 238 q 392 0 593 0 l 157 0 m 293 164 l 392 164 q 541 244 494 164 q 588 501 588 324 q 545 742 588 671 q 401 814 503 814 q 293 735 293 814 l 293 164 z "},"Ď":{"ha":854,"x_min":93,"x_max":788,"o":"m 157 0 q 112 20 131 0 q 93 71 93 40 l 93 690 q 172 911 93 835 q 399 988 250 988 q 788 483 788 988 q 690 119 788 238 q 392 0 593 0 l 157 0 m 293 164 l 392 164 q 541 244 494 164 q 588 501 588 324 q 545 742 588 671 q 401 814 503 814 q 293 735 293 814 l 293 164 m 499 1118 q 449 1099 469 1104 q 408 1098 428 1093 q 357 1118 388 1103 l 260 1168 q 190 1251 190 1201 q 211 1308 190 1288 q 264 1328 232 1328 q 303 1315 282 1328 l 428 1236 l 553 1315 q 592 1328 574 1328 q 645 1308 624 1328 q 667 1251 667 1288 q 596 1168 667 1203 l 499 1118 z "},"Đ":{"ha":854,"x_min":-43,"x_max":788,"o":"m 157 0 q 112 20 131 0 q 93 71 93 40 l 93 690 q 172 911 93 835 q 399 988 250 988 q 788 483 788 988 q 690 119 788 238 q 392 0 593 0 l 157 0 m 293 164 l 392 164 q 541 244 494 164 q 588 501 588 324 q 545 742 588 671 q 401 814 503 814 q 293 735 293 814 l 293 164 m 51 415 q -17 432 8 415 q -43 488 -43 449 q -17 543 -43 526 q 51 560 8 560 l 326 560 q 396 543 371 560 q 421 488 421 526 q 396 432 421 449 q 326 415 371 415 l 51 415 z "},"Ð":{"ha":854,"x_min":-43,"x_max":788,"o":"m 157 0 q 112 20 131 0 q 93 71 93 40 l 93 690 q 172 911 93 835 q 399 988 250 988 q 788 483 788 988 q 690 119 788 238 q 392 0 593 0 l 157 0 m 293 164 l 392 164 q 541 244 494 164 q 588 501 588 324 q 545 742 588 671 q 401 814 503 814 q 293 735 293 814 l 293 164 m 51 415 q -17 432 8 415 q -43 488 -43 449 q -17 543 -43 526 q 51 560 8 560 l 326 560 q 396 543 371 560 q 421 488 421 526 q 396 432 421 449 q 326 415 371 415 l 51 415 z "},"E":{"ha":756,"x_min":100,"x_max":711,"o":"m 163 0 q 118 21 136 0 q 100 74 100 42 l 100 724 q 181 913 100 854 q 440 972 261 972 l 614 972 q 685 948 660 972 q 711 879 711 924 q 685 813 711 836 q 614 789 660 789 l 431 789 q 331 761 361 789 q 300 671 300 733 q 297 616 300 649 q 289 542 294 583 q 349 573 313 561 q 419 585 385 585 l 557 585 q 617 561 596 585 q 639 496 639 538 q 617 429 639 454 q 557 404 594 404 l 408 404 q 322 378 344 404 q 300 275 300 353 l 300 183 l 614 183 q 688 161 665 183 q 711 89 711 139 q 689 21 711 42 q 614 0 667 0 l 163 0 z "},"É":{"ha":756,"x_min":100,"x_max":711,"o":"m 163 0 q 118 21 136 0 q 100 74 100 42 l 100 724 q 181 913 100 854 q 440 972 261 972 l 614 972 q 685 948 660 972 q 711 879 711 924 q 685 813 711 836 q 614 789 660 789 l 431 789 q 331 761 361 789 q 300 671 300 733 q 297 616 300 649 q 289 542 294 583 q 349 573 313 561 q 419 585 385 585 l 557 585 q 617 561 596 585 q 639 496 639 538 q 617 429 639 454 q 557 404 594 404 l 408 404 q 322 378 344 404 q 300 275 300 353 l 300 183 l 614 183 q 688 161 665 183 q 711 89 711 139 q 689 21 711 42 q 614 0 667 0 l 163 0 m 299 1078 q 265 1092 281 1078 q 249 1125 249 1107 q 256 1147 249 1136 q 281 1168 263 1158 q 311 1187 286 1171 q 372 1226 336 1203 q 445 1274 407 1249 q 514 1321 483 1299 q 535 1331 525 1328 q 553 1333 544 1333 q 608 1306 586 1333 q 629 1242 629 1278 q 613 1195 629 1215 q 557 1156 596 1175 q 495 1130 533 1143 q 416 1105 457 1117 q 343 1085 375 1093 q 299 1078 311 1078 z "},"Ě":{"ha":756,"x_min":100,"x_max":711,"o":"m 163 0 q 118 21 136 0 q 100 74 100 42 l 100 724 q 181 913 100 854 q 440 972 261 972 l 614 972 q 685 948 660 972 q 711 879 711 924 q 685 813 711 836 q 614 789 660 789 l 431 789 q 331 761 361 789 q 300 671 300 733 q 297 616 300 649 q 289 542 294 583 q 349 573 313 561 q 419 585 385 585 l 557 585 q 617 561 596 585 q 639 496 639 538 q 617 429 639 454 q 557 404 594 404 l 408 404 q 322 378 344 404 q 300 275 300 353 l 300 183 l 614 183 q 688 161 665 183 q 711 89 711 139 q 689 21 711 42 q 614 0 667 0 l 163 0 m 493 1118 q 443 1099 464 1104 q 402 1098 422 1093 q 351 1118 382 1103 l 254 1168 q 185 1251 185 1201 q 206 1308 185 1288 q 258 1328 226 1328 q 297 1315 276 1328 l 422 1236 l 547 1315 q 586 1328 568 1328 q 640 1308 618 1328 q 661 1251 661 1288 q 590 1168 661 1203 l 493 1118 z "},"Ê":{"ha":756,"x_min":100,"x_max":711,"o":"m 163 0 q 118 21 136 0 q 100 74 100 42 l 100 724 q 181 913 100 854 q 440 972 261 972 l 614 972 q 685 948 660 972 q 711 879 711 924 q 685 813 711 836 q 614 789 660 789 l 431 789 q 331 761 361 789 q 300 671 300 733 q 297 616 300 649 q 289 542 294 583 q 349 573 313 561 q 419 585 385 585 l 557 585 q 617 561 596 585 q 639 496 639 538 q 617 429 639 454 q 557 404 594 404 l 408 404 q 322 378 344 404 q 300 275 300 353 l 300 183 l 614 183 q 688 161 665 183 q 711 89 711 139 q 689 21 711 42 q 614 0 667 0 l 163 0 m 492 1304 l 589 1254 q 660 1171 660 1219 q 638 1115 660 1136 q 585 1094 617 1094 q 546 1107 567 1094 l 421 1186 l 296 1107 q 257 1094 275 1094 q 204 1115 225 1094 q 183 1171 183 1136 q 253 1254 183 1221 l 350 1304 q 401 1324 381 1319 q 442 1324 421 1329 q 492 1304 463 1319 z "},"Ë":{"ha":756,"x_min":100,"x_max":711,"o":"m 163 0 q 118 21 136 0 q 100 74 100 42 l 100 724 q 181 913 100 854 q 440 972 261 972 l 614 972 q 685 948 660 972 q 711 879 711 924 q 685 813 711 836 q 614 789 660 789 l 431 789 q 331 761 361 789 q 300 671 300 733 q 297 616 300 649 q 289 542 294 583 q 349 573 313 561 q 419 585 385 585 l 557 585 q 617 561 596 585 q 639 496 639 538 q 617 429 639 454 q 557 404 594 404 l 408 404 q 322 378 344 404 q 300 275 300 353 l 300 183 l 614 183 q 688 161 665 183 q 711 89 711 139 q 689 21 711 42 q 614 0 667 0 l 163 0 m 276 1114 q 208 1140 233 1114 q 182 1206 182 1165 q 208 1273 182 1247 q 276 1299 233 1299 q 344 1273 318 1299 q 369 1206 369 1247 q 344 1140 369 1165 q 276 1114 318 1114 m 567 1114 q 499 1140 524 1114 q 474 1206 474 1165 q 499 1273 474 1247 q 567 1299 524 1299 q 635 1273 608 1299 q 661 1206 661 1247 q 635 1140 661 1165 q 567 1114 608 1114 z "},"Ė":{"ha":756,"x_min":100,"x_max":711,"o":"m 163 0 q 118 21 136 0 q 100 74 100 42 l 100 724 q 181 913 100 854 q 440 972 261 972 l 614 972 q 685 948 660 972 q 711 879 711 924 q 685 813 711 836 q 614 789 660 789 l 431 789 q 331 761 361 789 q 300 671 300 733 q 297 616 300 649 q 289 542 294 583 q 349 573 313 561 q 419 585 385 585 l 557 585 q 617 561 596 585 q 639 496 639 538 q 617 429 639 454 q 557 404 594 404 l 408 404 q 322 378 344 404 q 300 275 300 353 l 300 183 l 614 183 q 688 161 665 183 q 711 89 711 139 q 689 21 711 42 q 614 0 667 0 l 163 0 m 422 1103 q 336 1136 371 1103 q 301 1218 301 1169 q 336 1303 301 1269 q 422 1336 371 1336 q 509 1303 475 1336 q 543 1218 543 1269 q 509 1136 543 1169 q 422 1103 475 1103 z "},"È":{"ha":756,"x_min":100,"x_max":711,"o":"m 163 0 q 118 21 136 0 q 100 74 100 42 l 100 724 q 181 913 100 854 q 440 972 261 972 l 614 972 q 685 948 660 972 q 711 879 711 924 q 685 813 711 836 q 614 789 660 789 l 431 789 q 331 761 361 789 q 300 671 300 733 q 297 616 300 649 q 289 542 294 583 q 349 573 313 561 q 419 585 385 585 l 557 585 q 617 561 596 585 q 639 496 639 538 q 617 429 639 454 q 557 404 594 404 l 408 404 q 322 378 344 404 q 300 275 300 353 l 300 183 l 614 183 q 688 161 665 183 q 711 89 711 139 q 689 21 711 42 q 614 0 667 0 l 163 0 m 583 1078 q 539 1085 571 1078 q 466 1105 507 1093 q 387 1130 425 1117 q 325 1156 349 1143 q 269 1195 286 1175 q 253 1242 253 1215 q 274 1306 253 1278 q 329 1333 296 1333 q 348 1331 338 1333 q 368 1321 358 1328 q 438 1274 400 1299 q 510 1226 475 1249 q 571 1187 546 1203 q 601 1168 596 1171 q 626 1147 619 1158 q 633 1125 633 1136 q 618 1092 633 1107 q 583 1078 603 1078 z "},"Ē":{"ha":756,"x_min":100,"x_max":711,"o":"m 163 0 q 118 21 136 0 q 100 74 100 42 l 100 724 q 181 913 100 854 q 440 972 261 972 l 614 972 q 685 948 660 972 q 711 879 711 924 q 685 813 711 836 q 614 789 660 789 l 431 789 q 331 761 361 789 q 300 671 300 733 q 297 616 300 649 q 289 542 294 583 q 349 573 313 561 q 419 585 385 585 l 557 585 q 617 561 596 585 q 639 496 639 538 q 617 429 639 454 q 557 404 594 404 l 408 404 q 322 378 344 404 q 300 275 300 353 l 300 183 l 614 183 q 688 161 665 183 q 711 89 711 139 q 689 21 711 42 q 614 0 667 0 l 163 0 m 269 1097 q 218 1115 238 1097 q 199 1171 199 1132 q 218 1226 199 1210 q 269 1243 238 1243 l 575 1243 q 626 1226 607 1243 q 646 1171 646 1210 q 626 1115 646 1132 q 575 1097 607 1097 l 269 1097 z "},"Ę":{"ha":756,"x_min":100,"x_max":743,"o":"m 163 0 q 118 21 136 0 q 100 74 100 42 l 100 724 q 181 913 100 854 q 440 972 261 972 l 614 972 q 685 948 660 972 q 711 879 711 924 q 685 813 711 836 q 614 789 660 789 l 431 789 q 331 761 361 789 q 300 671 300 733 q 297 616 300 649 q 289 542 294 583 q 349 573 313 561 q 419 585 385 585 l 557 585 q 617 561 596 585 q 639 496 639 538 q 617 429 639 454 q 557 404 594 404 l 408 404 q 322 378 344 404 q 300 275 300 353 l 300 183 l 614 183 q 688 161 665 183 q 711 89 711 139 l 711 88 l 711 88 q 661 -12 711 18 q 568 -142 568 -71 q 600 -194 568 -174 q 688 -218 632 -214 q 728 -236 714 -219 q 743 -279 743 -253 q 722 -334 743 -312 q 667 -356 700 -356 q 507 -310 569 -356 q 444 -194 444 -265 q 532 0 444 -78 l 163 0 z "},"F":{"ha":689,"x_min":93,"x_max":703,"o":"m 293 82 q 196 -11 293 -11 q 121 13 149 -11 q 93 82 93 36 l 93 753 q 149 915 93 857 q 307 972 206 972 l 606 972 q 676 947 650 972 q 703 879 703 922 q 676 814 703 839 q 606 789 650 789 l 383 789 q 324 781 343 789 q 299 748 304 774 q 293 668 293 722 q 290 587 293 631 q 281 504 288 543 q 439 547 335 547 l 536 547 q 632 454 632 547 q 536 361 632 361 l 428 361 q 321 336 349 361 q 293 238 293 311 l 293 82 z "},"G":{"ha":851,"x_min":67,"x_max":782,"o":"m 469 -10 q 231 46 319 -10 q 105 210 143 101 q 67 482 67 319 q 105 758 67 644 q 231 929 143 871 q 469 988 319 988 q 576 978 524 988 q 662 943 628 968 q 696 871 696 918 q 671 813 696 836 q 590 789 646 789 q 522 797 560 789 q 435 804 485 804 q 306 726 338 804 q 275 482 275 647 q 315 245 275 317 q 435 174 356 174 q 601 314 601 174 q 621 401 601 378 l 524 400 q 458 417 481 399 q 435 479 435 435 q 458 542 435 524 q 524 560 481 560 l 671 560 q 743 548 719 560 q 774 499 767 536 q 782 389 782 463 q 756 171 782 260 q 662 36 729 82 q 469 -10 594 -10 z "},"Ğ":{"ha":851,"x_min":67,"x_max":782,"o":"m 469 -10 q 231 46 319 -10 q 105 210 143 101 q 67 482 67 319 q 105 758 67 644 q 231 929 143 871 q 469 988 319 988 q 576 978 524 988 q 662 943 628 968 q 696 871 696 918 q 671 813 696 836 q 590 789 646 789 q 522 797 560 789 q 435 804 485 804 q 306 726 338 804 q 275 482 275 647 q 315 245 275 317 q 435 174 356 174 q 601 314 601 174 q 621 401 601 378 l 524 400 q 458 417 481 399 q 435 479 435 435 q 458 542 435 524 q 524 560 481 560 l 671 560 q 743 548 719 560 q 774 499 767 536 q 782 389 782 463 q 756 171 782 260 q 662 36 729 82 q 469 -10 594 -10 m 504 1265 q 516 1326 499 1306 q 569 1347 533 1347 q 616 1328 593 1347 q 639 1260 639 1308 q 578 1130 639 1175 q 431 1085 518 1085 q 283 1130 343 1085 q 224 1260 224 1175 q 246 1328 224 1308 q 292 1347 268 1347 q 346 1326 328 1347 q 357 1265 364 1306 q 373 1226 354 1244 q 431 1208 392 1208 q 489 1226 471 1208 q 504 1265 507 1244 z "},"Ģ":{"ha":851,"x_min":67,"x_max":782,"o":"m 469 -10 q 231 46 319 -10 q 105 210 143 101 q 67 482 67 319 q 105 758 67 644 q 231 929 143 871 q 469 988 319 988 q 576 978 524 988 q 662 943 628 968 q 696 871 696 918 q 671 813 696 836 q 590 789 646 789 q 522 797 560 789 q 435 804 485 804 q 306 726 338 804 q 275 482 275 647 q 315 245 275 317 q 435 174 356 174 q 601 314 601 174 q 621 401 601 378 l 524 400 q 458 417 481 399 q 435 479 435 435 q 458 542 435 524 q 524 560 481 560 l 671 560 q 743 548 719 560 q 774 499 767 536 q 782 389 782 463 q 756 171 782 260 q 662 36 729 82 q 469 -10 594 -10 m 378 -382 q 341 -374 354 -383 q 326 -349 328 -364 q 326 -335 326 -344 q 330 -301 326 -325 q 340 -235 333 -278 q 361 -122 347 -192 q 388 -74 368 -90 q 431 -57 407 -58 q 483 -69 458 -54 q 511 -114 508 -85 q 506 -149 513 -129 l 431 -335 q 416 -362 425 -346 q 378 -382 407 -379 z "},"Ġ":{"ha":851,"x_min":67,"x_max":782,"o":"m 469 -10 q 231 46 319 -10 q 105 210 143 101 q 67 482 67 319 q 105 758 67 644 q 231 929 143 871 q 469 988 319 988 q 576 978 524 988 q 662 943 628 968 q 696 871 696 918 q 671 813 696 836 q 590 789 646 789 q 522 797 560 789 q 435 804 485 804 q 306 726 338 804 q 275 482 275 647 q 315 245 275 317 q 435 174 356 174 q 601 314 601 174 q 621 401 601 378 l 524 400 q 458 417 481 399 q 435 479 435 435 q 458 542 435 524 q 524 560 481 560 l 671 560 q 743 548 719 560 q 774 499 767 536 q 782 389 782 463 q 756 171 782 260 q 662 36 729 82 q 469 -10 594 -10 m 432 1103 q 346 1136 381 1103 q 311 1218 311 1169 q 346 1303 311 1269 q 432 1336 381 1336 q 519 1303 485 1336 q 553 1218 553 1269 q 519 1136 553 1169 q 432 1103 485 1103 z "},"H":{"ha":914,"x_min":100,"x_max":814,"o":"m 203 -11 q 100 82 100 -11 l 100 894 q 124 965 100 943 q 199 988 147 988 q 300 894 300 988 l 300 756 q 290 550 300 583 q 368 600 326 586 q 478 614 410 614 l 614 614 l 614 894 q 638 965 614 943 q 713 988 661 988 q 814 894 814 988 l 814 82 q 791 12 814 35 q 717 -11 768 -11 q 614 82 614 -11 l 614 493 q 560 452 606 468 q 453 436 514 436 q 333 401 365 436 q 300 271 300 365 l 300 82 q 277 12 300 35 q 203 -11 254 -11 z "},"Ħ":{"ha":906,"x_min":6,"x_max":900,"o":"m 199 -11 q 96 82 96 -11 l 96 640 q 30 658 54 642 q 6 713 6 675 q 31 768 6 751 q 96 785 56 785 l 96 894 q 119 965 96 943 q 194 988 143 988 q 296 894 296 988 l 296 785 l 610 785 l 610 894 q 633 965 610 943 q 708 988 657 988 q 810 894 810 988 l 810 785 q 876 767 851 783 q 900 713 900 750 q 875 657 900 674 q 810 640 850 640 l 810 82 q 787 12 810 35 q 713 -11 764 -11 q 610 82 610 -11 l 610 396 q 556 355 601 371 q 449 339 510 339 q 329 305 363 339 q 296 174 296 271 l 296 82 q 273 12 296 35 q 199 -11 250 -11 m 610 517 l 610 640 l 296 640 q 286 453 296 486 q 363 503 322 489 q 474 517 404 517 l 610 517 z "},"I":{"ha":400,"x_min":100,"x_max":300,"o":"m 203 -11 q 100 82 100 -11 l 100 894 q 124 965 100 943 q 199 988 147 988 q 300 894 300 988 l 300 82 q 277 12 300 35 q 203 -11 254 -11 z "},"Ĳ":{"ha":769,"x_min":100,"x_max":669,"o":"m 203 150 q 100 243 100 150 l 100 894 q 124 965 100 943 q 199 988 147 988 q 300 894 300 988 l 300 243 q 277 173 300 196 q 203 150 254 150 m 356 -165 q 253 -157 303 -165 q 168 -135 203 -149 q 110 -56 110 -110 q 134 6 110 -15 q 213 28 158 28 q 287 23 244 28 q 363 18 329 18 q 446 45 422 18 q 469 139 469 72 l 469 879 q 569 988 469 988 q 669 879 669 988 l 669 108 q 356 -165 669 -165 z "},"Í":{"ha":400,"x_min":-11,"x_max":369,"o":"m 203 -11 q 100 82 100 -11 l 100 894 q 124 965 100 943 q 199 988 147 988 q 300 894 300 988 l 300 82 q 277 12 300 35 q 203 -11 254 -11 m 39 1078 q 5 1092 21 1078 q -11 1125 -11 1107 q -4 1147 -11 1136 q 21 1168 3 1158 q 51 1187 26 1171 q 112 1226 76 1203 q 185 1274 147 1249 q 254 1321 224 1299 q 275 1331 265 1328 q 293 1333 285 1333 q 348 1306 326 1333 q 369 1242 369 1278 q 353 1195 369 1215 q 297 1156 336 1175 q 235 1130 274 1143 q 156 1105 197 1117 q 83 1085 115 1093 q 39 1078 51 1078 z "},"Î":{"ha":400,"x_min":-39,"x_max":438,"o":"m 203 -11 q 100 82 100 -11 l 100 894 q 124 965 100 943 q 199 988 147 988 q 300 894 300 988 l 300 82 q 277 12 300 35 q 203 -11 254 -11 m 269 1304 l 367 1254 q 438 1171 438 1219 q 416 1115 438 1136 q 363 1094 394 1094 q 324 1107 344 1094 l 199 1186 l 74 1107 q 35 1094 53 1094 q -18 1115 3 1094 q -39 1171 -39 1136 q 31 1254 -39 1221 l 128 1304 q 178 1324 158 1319 q 219 1324 199 1329 q 269 1304 240 1319 z "},"Ï":{"ha":400,"x_min":-40,"x_max":439,"o":"m 203 -11 q 100 82 100 -11 l 100 894 q 124 965 100 943 q 199 988 147 988 q 300 894 300 988 l 300 82 q 277 12 300 35 q 203 -11 254 -11 m 54 1114 q -15 1140 11 1114 q -40 1206 -40 1165 q -15 1273 -40 1247 q 54 1299 11 1299 q 122 1273 96 1299 q 147 1206 147 1247 q 122 1140 147 1165 q 54 1114 96 1114 m 344 1114 q 276 1140 301 1114 q 251 1206 251 1165 q 276 1273 251 1247 q 344 1299 301 1299 q 413 1273 386 1299 q 439 1206 439 1247 q 413 1140 439 1165 q 344 1114 386 1114 z "},"İ":{"ha":400,"x_min":79,"x_max":321,"o":"m 203 -11 q 100 82 100 -11 l 100 894 q 124 965 100 943 q 199 988 147 988 q 300 894 300 988 l 300 82 q 277 12 300 35 q 203 -11 254 -11 m 200 1103 q 114 1136 149 1103 q 79 1218 79 1169 q 114 1303 79 1269 q 200 1336 149 1336 q 287 1303 253 1336 q 321 1218 321 1269 q 287 1136 321 1169 q 200 1103 253 1103 z "},"Ì":{"ha":400,"x_min":31,"x_max":411,"o":"m 203 -11 q 100 82 100 -11 l 100 894 q 124 965 100 943 q 199 988 147 988 q 300 894 300 988 l 300 82 q 277 12 300 35 q 203 -11 254 -11 m 361 1078 q 317 1085 349 1078 q 244 1105 285 1093 q 165 1130 203 1117 q 103 1156 126 1143 q 47 1195 64 1175 q 31 1242 31 1215 q 52 1306 31 1278 q 107 1333 74 1333 q 126 1331 115 1333 q 146 1321 136 1328 q 215 1274 178 1299 q 288 1226 253 1249 q 349 1187 324 1203 q 379 1168 374 1171 q 404 1147 397 1158 q 411 1125 411 1136 q 396 1092 411 1107 q 361 1078 381 1078 z "},"Ī":{"ha":400,"x_min":-24,"x_max":424,"o":"m 203 -11 q 100 82 100 -11 l 100 894 q 124 965 100 943 q 199 988 147 988 q 300 894 300 988 l 300 82 q 277 12 300 35 q 203 -11 254 -11 m 47 1097 q -4 1115 15 1097 q -24 1171 -24 1132 q -4 1226 -24 1210 q 47 1243 15 1243 l 353 1243 q 404 1226 385 1243 q 424 1171 424 1210 q 404 1115 424 1132 q 353 1097 385 1097 l 47 1097 z "},"Į":{"ha":400,"x_min":33,"x_max":332,"o":"m 256 -356 q 96 -310 158 -356 q 33 -194 33 -265 q 131 8 33 -72 q 100 82 100 31 l 100 894 q 124 965 100 943 q 199 988 147 988 q 300 894 300 988 l 300 82 q 300 69 300 75 q 287 21 297 38 q 250 -12 276 4 q 157 -142 157 -71 q 189 -194 157 -174 q 276 -218 221 -214 q 317 -236 303 -219 q 332 -279 332 -253 q 310 -334 332 -312 q 256 -356 289 -356 z "},"J":{"ha":621,"x_min":17,"x_max":521,"o":"m 242 -11 q 147 -2 190 -11 q 75 19 104 7 q 17 99 17 44 q 117 182 17 182 q 181 177 147 182 q 242 172 215 172 q 303 199 286 172 q 321 293 321 225 l 321 879 q 421 988 321 988 q 521 879 521 988 l 521 263 q 449 60 521 131 q 242 -11 378 -11 z "},"K":{"ha":826,"x_min":100,"x_max":757,"o":"m 663 -11 q 558 86 558 -11 l 558 301 q 531 402 558 368 q 439 436 504 436 q 334 407 368 436 q 300 306 300 378 l 300 97 q 200 -11 300 -11 q 100 97 100 -11 l 100 879 q 200 988 100 988 q 300 879 300 988 l 300 553 q 340 583 319 572 q 410 608 361 594 q 506 690 479 628 q 532 890 532 753 q 554 965 532 942 q 625 988 576 988 q 728 883 728 988 q 699 658 728 744 q 608 524 669 571 q 757 299 757 460 l 757 86 q 663 -11 757 -11 z "},"Ķ":{"ha":826,"x_min":100,"x_max":757,"o":"m 663 -11 q 558 86 558 -11 l 558 301 q 531 402 558 368 q 439 436 504 436 q 334 407 368 436 q 300 306 300 378 l 300 97 q 200 -11 300 -11 q 100 97 100 -11 l 100 879 q 200 988 100 988 q 300 879 300 988 l 300 553 q 340 583 319 572 q 410 608 361 594 q 506 690 479 628 q 532 890 532 753 q 554 965 532 942 q 625 988 576 988 q 728 883 728 988 q 699 658 728 744 q 608 524 669 571 q 757 299 757 460 l 757 86 q 663 -11 757 -11 m 360 -382 q 323 -374 336 -383 q 308 -349 310 -364 q 308 -335 308 -344 q 312 -301 308 -325 q 322 -235 315 -278 q 343 -122 329 -192 q 369 -74 350 -90 q 413 -57 389 -58 q 465 -69 440 -54 q 493 -114 490 -85 q 488 -149 494 -129 l 413 -335 q 398 -362 407 -346 q 360 -382 389 -379 z "},"L":{"ha":717,"x_min":100,"x_max":689,"o":"m 200 0 q 100 108 100 0 l 100 879 q 200 988 100 988 q 300 879 300 988 l 300 263 q 297 206 300 240 q 289 150 293 172 q 378 193 325 193 l 582 193 q 661 168 633 193 q 689 96 689 143 q 582 0 689 0 l 200 0 z "},"Ĺ":{"ha":717,"x_min":100,"x_max":689,"o":"m 200 0 q 100 108 100 0 l 100 879 q 200 988 100 988 q 300 879 300 988 l 300 263 q 297 206 300 240 q 289 150 293 172 q 378 193 325 193 l 582 193 q 661 168 633 193 q 689 96 689 143 q 582 0 689 0 l 200 0 m 197 1078 q 163 1092 179 1078 q 147 1125 147 1107 q 154 1147 147 1136 q 179 1168 161 1158 q 210 1187 185 1171 q 270 1226 235 1203 q 344 1274 306 1249 q 413 1321 382 1299 q 433 1331 424 1328 q 451 1333 443 1333 q 506 1306 485 1333 q 528 1242 528 1278 q 511 1195 528 1215 q 456 1156 494 1175 q 394 1130 432 1143 q 315 1105 356 1117 q 242 1085 274 1093 q 197 1078 210 1078 z "},"Ľ":{"ha":717,"x_min":100,"x_max":706,"o":"m 200 0 q 100 108 100 0 l 100 879 q 200 988 100 988 q 300 879 300 988 l 300 263 q 297 206 300 240 q 289 150 293 172 q 378 193 325 193 l 582 193 q 661 168 633 193 q 689 96 689 143 q 582 0 689 0 l 200 0 m 603 749 q 567 731 588 731 q 538 743 550 731 q 524 763 528 753 q 522 794 521 772 q 533 849 522 790 q 560 1001 543 908 q 587 1043 564 1029 q 636 1057 610 1057 q 684 1040 663 1057 q 706 986 706 1024 q 688 905 706 951 q 647 816 671 858 q 603 749 624 774 z "},"Ļ":{"ha":717,"x_min":100,"x_max":689,"o":"m 200 0 q 100 108 100 0 l 100 879 q 200 988 100 988 q 300 879 300 988 l 300 263 q 297 206 300 240 q 289 150 293 172 q 378 193 325 193 l 582 193 q 661 168 633 193 q 689 96 689 143 q 582 0 689 0 l 200 0 m 304 -382 q 267 -374 281 -383 q 253 -349 254 -364 q 253 -335 253 -344 q 256 -301 253 -325 q 267 -235 260 -278 q 288 -122 274 -192 q 314 -74 294 -90 q 357 -57 333 -58 q 410 -69 385 -54 q 438 -114 435 -85 q 432 -149 439 -129 l 357 -335 q 342 -362 351 -346 q 304 -382 333 -379 z "},"Ł":{"ha":744,"x_min":-3,"x_max":717,"o":"m 228 0 q 128 108 128 0 l 128 400 q 58 388 89 382 q 13 428 28 393 q 14 489 -3 464 q 69 532 31 514 l 128 558 l 128 879 q 228 988 128 988 q 328 879 328 988 l 328 647 l 397 678 q 467 691 438 696 q 513 650 497 686 q 512 590 528 615 q 456 546 496 564 l 328 489 l 328 263 q 324 206 328 240 q 317 150 321 172 q 406 193 353 193 l 610 193 q 689 168 661 193 q 717 96 717 143 q 610 0 717 0 l 228 0 z "},"M":{"ha":1258,"x_min":93,"x_max":1165,"o":"m 293 82 q 196 -11 293 -11 q 121 13 149 -11 q 93 82 93 36 l 93 656 q 163 903 93 819 q 371 988 233 988 q 539 946 472 988 q 628 826 606 904 q 717 946 650 904 q 888 988 783 988 q 1097 906 1029 988 q 1165 656 1165 825 l 1165 96 q 1143 14 1165 39 q 1068 -11 1121 -11 q 990 15 1015 -11 q 965 96 965 40 l 965 667 q 847 804 965 804 q 758 765 788 804 q 729 639 729 725 l 729 110 q 707 28 729 53 q 632 3 685 3 q 554 28 579 3 q 529 110 529 54 l 529 639 q 411 804 529 804 q 293 667 293 804 l 293 82 z "},"N":{"ha":900,"x_min":93,"x_max":807,"o":"m 293 82 q 196 -11 293 -11 q 121 13 149 -11 q 93 82 93 36 l 93 628 q 128 837 93 758 q 242 951 163 915 q 453 988 321 988 q 717 906 628 988 q 807 628 807 825 l 807 82 q 710 -11 807 -11 q 635 13 663 -11 q 607 82 607 36 l 607 628 q 572 774 607 731 q 453 818 536 818 q 353 799 388 818 q 306 738 318 779 q 293 628 293 696 l 293 82 z "},"Ń":{"ha":900,"x_min":93,"x_max":807,"o":"m 293 82 q 196 -11 293 -11 q 121 13 149 -11 q 93 82 93 36 l 93 628 q 128 837 93 758 q 242 951 163 915 q 453 988 321 988 q 717 906 628 988 q 807 628 807 825 l 807 82 q 710 -11 807 -11 q 635 13 663 -11 q 607 82 607 36 l 607 628 q 572 774 607 731 q 453 818 536 818 q 353 799 388 818 q 306 738 318 779 q 293 628 293 696 l 293 82 m 289 1078 q 255 1092 271 1078 q 239 1125 239 1107 q 246 1147 239 1136 q 271 1168 253 1158 q 301 1187 276 1171 q 362 1226 326 1203 q 435 1274 397 1249 q 504 1321 474 1299 q 525 1331 515 1328 q 543 1333 535 1333 q 598 1306 576 1333 q 619 1242 619 1278 q 603 1195 619 1215 q 547 1156 586 1175 q 485 1130 524 1143 q 406 1105 447 1117 q 333 1085 365 1093 q 289 1078 301 1078 z "},"Ň":{"ha":900,"x_min":93,"x_max":807,"o":"m 293 82 q 196 -11 293 -11 q 121 13 149 -11 q 93 82 93 36 l 93 628 q 128 837 93 758 q 242 951 163 915 q 453 988 321 988 q 717 906 628 988 q 807 628 807 825 l 807 82 q 710 -11 807 -11 q 635 13 663 -11 q 607 82 607 36 l 607 628 q 572 774 607 731 q 453 818 536 818 q 353 799 388 818 q 306 738 318 779 q 293 628 293 696 l 293 82 m 521 1118 q 471 1099 492 1104 q 430 1098 450 1093 q 379 1118 410 1103 l 282 1168 q 213 1251 213 1201 q 233 1308 213 1288 q 286 1328 254 1328 q 325 1315 304 1328 l 450 1236 l 575 1315 q 614 1328 596 1328 q 667 1308 646 1328 q 689 1251 689 1288 q 618 1168 689 1203 l 521 1118 z "},"Ņ":{"ha":900,"x_min":93,"x_max":807,"o":"m 293 82 q 196 -11 293 -11 q 121 13 149 -11 q 93 82 93 36 l 93 628 q 128 837 93 758 q 242 951 163 915 q 453 988 321 988 q 717 906 628 988 q 807 628 807 825 l 807 82 q 710 -11 807 -11 q 635 13 663 -11 q 607 82 607 36 l 607 628 q 572 774 607 731 q 453 818 536 818 q 353 799 388 818 q 306 738 318 779 q 293 628 293 696 l 293 82 m 396 -382 q 359 -374 372 -383 q 344 -349 346 -364 q 344 -335 344 -344 q 348 -301 344 -325 q 358 -235 351 -278 q 379 -122 365 -192 q 406 -74 386 -90 q 449 -57 425 -58 q 501 -69 476 -54 q 529 -114 526 -85 q 524 -149 531 -129 l 449 -335 q 434 -362 443 -346 q 396 -382 425 -379 z "},"Ñ":{"ha":900,"x_min":93,"x_max":807,"o":"m 293 82 q 196 -11 293 -11 q 121 13 149 -11 q 93 82 93 36 l 93 628 q 128 837 93 758 q 242 951 163 915 q 453 988 321 988 q 717 906 628 988 q 807 628 807 825 l 807 82 q 710 -11 807 -11 q 635 13 663 -11 q 607 82 607 36 l 607 628 q 572 774 607 731 q 453 818 536 818 q 353 799 388 818 q 306 738 318 779 q 293 628 293 696 l 293 82 m 261 1072 q 208 1090 225 1072 q 192 1131 192 1107 q 211 1191 192 1160 q 267 1244 231 1222 q 353 1265 304 1265 q 426 1252 401 1265 q 475 1225 451 1239 q 506 1208 490 1215 q 538 1200 522 1200 q 569 1210 558 1200 q 588 1232 581 1219 q 607 1254 596 1244 q 639 1264 618 1264 q 692 1247 675 1264 q 708 1206 708 1229 q 689 1146 708 1178 q 633 1092 669 1114 q 547 1071 597 1071 q 475 1084 500 1071 q 425 1111 450 1097 q 394 1128 410 1119 q 363 1136 378 1136 q 331 1126 342 1136 q 312 1104 319 1117 q 293 1082 304 1092 q 261 1072 282 1072 z "},"Ŋ":{"ha":900,"x_min":93,"x_max":807,"o":"m 293 82 q 196 -11 293 -11 q 121 13 149 -11 q 93 82 93 36 l 93 628 q 128 837 93 758 q 242 951 163 915 q 453 988 321 988 q 717 906 628 988 q 807 628 807 825 l 807 -12 q 740 -221 807 -156 q 524 -286 672 -286 q 434 -278 478 -286 q 362 -248 390 -271 q 333 -178 333 -225 q 359 -112 333 -128 q 430 -99 385 -97 q 533 -100 475 -100 q 593 -74 579 -100 q 607 17 607 -49 l 607 628 q 572 774 607 731 q 453 818 536 818 q 353 799 388 818 q 306 738 318 779 q 293 628 293 696 l 293 82 z "},"O":{"ha":889,"x_min":67,"x_max":822,"o":"m 444 -11 q 239 37 324 -11 q 110 194 154 85 q 67 492 67 304 q 110 788 67 679 q 239 942 154 896 q 444 988 324 988 q 651 942 567 988 q 778 788 735 896 q 822 492 822 679 q 778 194 822 304 q 651 37 735 85 q 444 -11 567 -11 m 444 172 q 540 199 500 172 q 601 294 579 225 q 622 492 622 364 q 601 688 622 621 q 540 780 579 756 q 444 804 500 804 q 350 780 390 804 q 288 688 310 756 q 267 492 267 621 q 288 294 267 364 q 350 199 310 225 q 444 172 390 172 z "},"Ó":{"ha":889,"x_min":67,"x_max":822,"o":"m 444 -11 q 239 37 324 -11 q 110 194 154 85 q 67 492 67 304 q 110 788 67 679 q 239 942 154 896 q 444 988 324 988 q 651 942 567 988 q 778 788 735 896 q 822 492 822 679 q 778 194 822 304 q 651 37 735 85 q 444 -11 567 -11 m 444 172 q 540 199 500 172 q 601 294 579 225 q 622 492 622 364 q 601 688 622 621 q 540 780 579 756 q 444 804 500 804 q 350 780 390 804 q 288 688 310 756 q 267 492 267 621 q 288 294 267 364 q 350 199 310 225 q 444 172 390 172 m 283 1078 q 249 1092 265 1078 q 233 1125 233 1107 q 240 1147 233 1136 q 265 1168 247 1158 q 296 1187 271 1171 q 356 1226 321 1203 q 430 1274 392 1249 q 499 1321 468 1299 q 519 1331 510 1328 q 538 1333 529 1333 q 592 1306 571 1333 q 614 1242 614 1278 q 597 1195 614 1215 q 542 1156 581 1175 q 480 1130 518 1143 q 401 1105 442 1117 q 328 1085 360 1093 q 283 1078 296 1078 z "},"Ô":{"ha":889,"x_min":67,"x_max":822,"o":"m 444 -11 q 239 37 324 -11 q 110 194 154 85 q 67 492 67 304 q 110 788 67 679 q 239 942 154 896 q 444 988 324 988 q 651 942 567 988 q 778 788 735 896 q 822 492 822 679 q 778 194 822 304 q 651 37 735 85 q 444 -11 567 -11 m 444 172 q 540 199 500 172 q 601 294 579 225 q 622 492 622 364 q 601 688 622 621 q 540 780 579 756 q 444 804 500 804 q 350 780 390 804 q 288 688 310 756 q 267 492 267 621 q 288 294 267 364 q 350 199 310 225 q 444 172 390 172 m 514 1304 l 611 1254 q 682 1171 682 1219 q 660 1115 682 1136 q 607 1094 639 1094 q 568 1107 589 1094 l 443 1186 l 318 1107 q 279 1094 297 1094 q 226 1115 247 1094 q 206 1171 206 1136 q 275 1254 206 1221 l 372 1304 q 423 1324 403 1319 q 464 1324 443 1329 q 514 1304 485 1319 z "},"Ö":{"ha":889,"x_min":67,"x_max":822,"o":"m 444 -11 q 239 37 324 -11 q 110 194 154 85 q 67 492 67 304 q 110 788 67 679 q 239 942 154 896 q 444 988 324 988 q 651 942 567 988 q 778 788 735 896 q 822 492 822 679 q 778 194 822 304 q 651 37 735 85 q 444 -11 567 -11 m 444 172 q 540 199 500 172 q 601 294 579 225 q 622 492 622 364 q 601 688 622 621 q 540 780 579 756 q 444 804 500 804 q 350 780 390 804 q 288 688 310 756 q 267 492 267 621 q 288 294 267 364 q 350 199 310 225 q 444 172 390 172 m 299 1114 q 230 1140 256 1114 q 204 1206 204 1165 q 230 1273 204 1247 q 299 1299 256 1299 q 366 1273 340 1299 q 392 1206 392 1247 q 366 1140 392 1165 q 299 1114 340 1114 m 589 1114 q 521 1140 546 1114 q 496 1206 496 1165 q 521 1273 496 1247 q 589 1299 546 1299 q 657 1273 631 1299 q 683 1206 683 1247 q 657 1140 683 1165 q 589 1114 631 1114 z "},"Ò":{"ha":889,"x_min":67,"x_max":822,"o":"m 444 -11 q 239 37 324 -11 q 110 194 154 85 q 67 492 67 304 q 110 788 67 679 q 239 942 154 896 q 444 988 324 988 q 651 942 567 988 q 778 788 735 896 q 822 492 822 679 q 778 194 822 304 q 651 37 735 85 q 444 -11 567 -11 m 444 172 q 540 199 500 172 q 601 294 579 225 q 622 492 622 364 q 601 688 622 621 q 540 780 579 756 q 444 804 500 804 q 350 780 390 804 q 288 688 310 756 q 267 492 267 621 q 288 294 267 364 q 350 199 310 225 q 444 172 390 172 m 606 1078 q 561 1085 593 1078 q 488 1105 529 1093 q 409 1130 447 1117 q 347 1156 371 1143 q 292 1195 308 1175 q 275 1242 275 1215 q 297 1306 275 1278 q 351 1333 318 1333 q 370 1331 360 1333 q 390 1321 381 1328 q 460 1274 422 1299 q 533 1226 497 1249 q 593 1187 568 1203 q 624 1168 618 1171 q 649 1147 642 1158 q 656 1125 656 1136 q 640 1092 656 1107 q 606 1078 625 1078 z "},"Ő":{"ha":889,"x_min":67,"x_max":822,"o":"m 444 -11 q 239 37 324 -11 q 110 194 154 85 q 67 492 67 304 q 110 788 67 679 q 239 942 154 896 q 444 988 324 988 q 651 942 567 988 q 778 788 735 896 q 822 492 822 679 q 778 194 822 304 q 651 37 735 85 q 444 -11 567 -11 m 444 172 q 540 199 500 172 q 601 294 579 225 q 622 492 622 364 q 601 688 622 621 q 540 780 579 756 q 444 804 500 804 q 350 780 390 804 q 288 688 310 756 q 267 492 267 621 q 288 294 267 364 q 350 199 310 225 q 444 172 390 172 m 347 1044 q 315 1038 336 1036 q 286 1053 294 1040 q 286 1094 275 1069 q 305 1136 290 1101 q 338 1217 319 1171 q 368 1300 356 1263 q 377 1315 372 1310 q 388 1325 382 1321 q 440 1332 410 1340 q 488 1300 471 1324 q 479 1213 510 1267 q 451 1168 469 1194 q 411 1115 432 1142 q 373 1069 390 1089 q 347 1044 356 1050 m 550 1044 q 518 1038 539 1036 q 489 1053 497 1040 q 489 1094 478 1069 q 508 1136 493 1101 q 540 1217 522 1171 q 571 1300 558 1263 q 580 1315 575 1310 q 590 1325 585 1321 q 643 1332 613 1340 q 690 1300 674 1324 q 682 1213 713 1267 q 653 1168 672 1194 q 614 1115 635 1142 q 576 1069 593 1089 q 550 1044 558 1050 z "},"Ō":{"ha":889,"x_min":67,"x_max":822,"o":"m 444 -11 q 239 37 324 -11 q 110 194 154 85 q 67 492 67 304 q 110 788 67 679 q 239 942 154 896 q 444 988 324 988 q 651 942 567 988 q 778 788 735 896 q 822 492 822 679 q 778 194 822 304 q 651 37 735 85 q 444 -11 567 -11 m 444 172 q 540 199 500 172 q 601 294 579 225 q 622 492 622 364 q 601 688 622 621 q 540 780 579 756 q 444 804 500 804 q 350 780 390 804 q 288 688 310 756 q 267 492 267 621 q 288 294 267 364 q 350 199 310 225 q 444 172 390 172 m 292 1097 q 240 1115 260 1097 q 221 1171 221 1132 q 240 1226 221 1210 q 292 1243 260 1243 l 597 1243 q 649 1226 629 1243 q 668 1171 668 1210 q 649 1115 668 1132 q 597 1097 629 1097 l 292 1097 z "},"Ø":{"ha":889,"x_min":67,"x_max":849,"o":"m 190 -28 q 116 -5 144 -28 q 88 56 88 18 q 99 93 88 74 l 133 146 q 83 291 100 206 q 67 492 67 376 q 110 788 67 679 q 239 942 154 896 q 444 988 324 988 q 565 975 510 988 q 663 935 619 963 q 703 976 683 964 q 751 988 724 988 q 823 967 797 988 q 849 908 849 946 q 831 850 849 878 l 782 775 q 822 492 822 665 q 778 194 822 304 q 651 37 735 85 q 444 -11 567 -11 q 274 18 344 -11 q 190 -28 240 -28 m 267 492 q 278 340 267 403 l 560 763 q 508 795 538 786 q 444 804 479 804 q 350 780 390 804 q 288 688 310 756 q 267 492 267 621 m 444 172 q 540 199 500 172 q 601 294 579 225 q 622 492 622 364 q 618 589 622 546 l 354 194 q 396 177 374 182 q 444 172 418 172 z "},"Õ":{"ha":889,"x_min":67,"x_max":822,"o":"m 444 -11 q 239 37 324 -11 q 110 194 154 85 q 67 492 67 304 q 110 788 67 679 q 239 942 154 896 q 444 988 324 988 q 651 942 567 988 q 778 788 735 896 q 822 492 822 679 q 778 194 822 304 q 651 37 735 85 q 444 -11 567 -11 m 444 172 q 540 199 500 172 q 601 294 579 225 q 622 492 622 364 q 601 688 622 621 q 540 780 579 756 q 444 804 500 804 q 350 780 390 804 q 288 688 310 756 q 267 492 267 621 q 288 294 267 364 q 350 199 310 225 q 444 172 390 172 m 256 1072 q 203 1090 219 1072 q 186 1131 186 1107 q 206 1191 186 1160 q 262 1244 225 1222 q 347 1265 299 1265 q 421 1252 396 1265 q 469 1225 446 1239 q 501 1208 485 1215 q 532 1200 517 1200 q 564 1210 553 1200 q 583 1232 575 1219 q 601 1254 590 1244 q 633 1264 613 1264 q 686 1247 669 1264 q 703 1206 703 1229 q 683 1146 703 1178 q 628 1092 664 1114 q 542 1071 592 1071 q 469 1084 494 1071 q 419 1111 444 1097 q 388 1128 404 1119 q 357 1136 372 1136 q 325 1126 336 1136 q 306 1104 314 1117 q 288 1082 299 1092 q 256 1072 276 1072 z "},"Œ":{"ha":1278,"x_min":67,"x_max":1233,"o":"m 444 -11 q 157 110 247 -11 q 67 492 67 231 q 157 869 67 751 q 444 988 247 988 q 681 894 585 988 q 963 972 758 972 l 1136 972 q 1208 948 1182 972 q 1233 879 1233 924 q 1208 813 1233 836 q 1136 789 1182 789 l 953 789 q 853 761 883 789 q 822 671 822 733 q 819 616 822 649 q 811 542 817 583 q 871 573 835 561 q 942 585 907 585 l 1079 585 q 1140 561 1118 585 q 1161 496 1161 538 q 1139 429 1161 454 q 1079 404 1117 404 l 931 404 q 844 378 867 404 q 822 275 822 353 l 822 183 l 1136 183 q 1210 161 1188 183 q 1233 89 1233 139 q 1211 21 1233 42 q 1136 0 1189 0 l 685 0 q 629 38 646 0 q 444 -11 550 -11 m 444 172 q 622 492 622 172 q 444 804 622 804 q 308 733 349 804 q 267 492 267 661 q 308 247 267 322 q 444 172 350 172 z "},"P":{"ha":806,"x_min":93,"x_max":756,"o":"m 293 82 q 196 -11 293 -11 q 121 13 149 -11 q 93 82 93 36 l 93 675 q 175 909 93 831 q 450 988 257 988 q 674 911 593 988 q 756 665 756 835 q 678 440 756 518 q 461 363 601 363 q 347 351 382 363 q 302 308 311 339 q 293 217 293 276 l 293 82 m 281 483 q 313 508 297 497 q 353 524 328 518 q 422 531 379 531 q 517 541 482 531 q 566 581 551 551 q 581 665 581 610 q 563 773 581 739 q 515 817 546 807 q 439 828 483 828 q 326 799 358 828 q 293 697 293 769 q 290 585 293 646 q 281 483 288 524 z "},"Þ":{"ha":806,"x_min":93,"x_max":756,"o":"m 196 -11 q 121 10 149 -11 q 93 67 93 31 l 93 910 q 121 967 93 946 q 196 988 149 988 q 293 910 293 988 l 293 719 q 361 774 325 758 q 460 789 397 789 q 680 722 604 789 q 756 510 756 654 q 679 291 756 363 q 461 219 603 219 q 349 213 385 219 q 303 180 314 206 q 293 100 293 154 l 293 67 q 196 -11 293 -11 m 281 340 q 342 378 313 368 q 422 388 371 388 q 519 397 485 388 q 567 431 553 406 q 581 507 581 457 q 551 606 581 582 q 447 631 522 631 q 327 605 361 631 q 293 500 293 579 q 290 412 293 443 q 281 340 288 381 z "},"Q":{"ha":889,"x_min":67,"x_max":822,"o":"m 661 -194 q 633 -188 647 -194 q 599 -167 618 -182 l 397 -10 q 217 51 290 -1 q 105 210 143 103 q 67 492 67 318 q 110 788 67 679 q 239 942 154 896 q 444 988 324 988 q 651 942 567 988 q 778 788 735 896 q 822 492 822 679 q 774 186 822 297 q 636 28 726 75 l 710 -29 q 753 -99 753 -62 q 728 -157 753 -125 q 661 -194 697 -194 m 444 172 q 540 199 500 172 q 601 294 579 225 q 622 492 622 364 q 601 688 622 621 q 540 780 579 756 q 444 804 500 804 q 350 780 390 804 q 288 688 310 756 q 267 492 267 621 q 288 294 267 364 q 350 199 310 225 q 444 172 390 172 z "},"R":{"ha":818,"x_min":93,"x_max":751,"o":"m 196 -8 q 121 13 149 -8 q 93 75 93 35 l 93 675 q 178 912 93 836 q 446 988 264 988 q 673 913 594 988 q 751 699 751 839 q 749 605 751 650 q 740 542 746 560 q 664 425 719 465 q 739 281 739 363 l 739 75 q 643 -11 739 -11 q 568 10 596 -11 q 540 75 540 32 l 540 258 q 517 364 540 333 q 425 394 494 394 q 322 362 350 394 q 293 242 293 329 l 293 75 q 196 -8 293 -8 m 282 508 q 344 547 317 538 q 422 556 371 556 q 524 563 492 556 q 567 592 557 569 q 576 661 576 614 q 548 792 576 756 q 446 829 519 829 q 330 792 364 829 q 296 661 296 754 q 292 580 296 615 q 282 508 289 544 z "},"Ŕ":{"ha":818,"x_min":93,"x_max":751,"o":"m 196 -8 q 121 13 149 -8 q 93 75 93 35 l 93 675 q 178 912 93 836 q 446 988 264 988 q 673 913 594 988 q 751 699 751 839 q 749 605 751 650 q 740 542 746 560 q 664 425 719 465 q 739 281 739 363 l 739 75 q 643 -11 739 -11 q 568 10 596 -11 q 540 75 540 32 l 540 258 q 517 364 540 333 q 425 394 494 394 q 322 362 350 394 q 293 242 293 329 l 293 75 q 196 -8 293 -8 m 282 508 q 344 547 317 538 q 422 556 371 556 q 524 563 492 556 q 567 592 557 569 q 576 661 576 614 q 548 792 576 756 q 446 829 519 829 q 330 792 364 829 q 296 661 296 754 q 292 580 296 615 q 282 508 289 544 m 249 1078 q 215 1092 231 1078 q 199 1125 199 1107 q 206 1147 199 1136 q 231 1168 213 1158 q 261 1187 236 1171 q 322 1226 286 1203 q 395 1274 357 1249 q 464 1321 433 1299 q 485 1331 475 1328 q 503 1333 494 1333 q 558 1306 536 1333 q 579 1242 579 1278 q 563 1195 579 1215 q 507 1156 546 1175 q 445 1130 483 1143 q 366 1105 407 1117 q 293 1085 325 1093 q 249 1078 261 1078 z "},"Ř":{"ha":818,"x_min":93,"x_max":751,"o":"m 196 -8 q 121 13 149 -8 q 93 75 93 35 l 93 675 q 178 912 93 836 q 446 988 264 988 q 673 913 594 988 q 751 699 751 839 q 749 605 751 650 q 740 542 746 560 q 664 425 719 465 q 739 281 739 363 l 739 75 q 643 -11 739 -11 q 568 10 596 -11 q 540 75 540 32 l 540 258 q 517 364 540 333 q 425 394 494 394 q 322 362 350 394 q 293 242 293 329 l 293 75 q 196 -8 293 -8 m 282 508 q 344 547 317 538 q 422 556 371 556 q 524 563 492 556 q 567 592 557 569 q 576 661 576 614 q 548 792 576 756 q 446 829 519 829 q 330 792 364 829 q 296 661 296 754 q 292 580 296 615 q 282 508 289 544 m 481 1118 q 431 1099 451 1104 q 390 1098 410 1093 q 339 1118 369 1103 l 242 1168 q 172 1251 172 1201 q 193 1308 172 1288 q 246 1328 214 1328 q 285 1315 264 1328 l 410 1236 l 535 1315 q 574 1328 556 1328 q 627 1308 606 1328 q 649 1251 649 1288 q 578 1168 649 1203 l 481 1118 z "},"Ŗ":{"ha":818,"x_min":93,"x_max":751,"o":"m 196 -8 q 121 13 149 -8 q 93 75 93 35 l 93 675 q 178 912 93 836 q 446 988 264 988 q 673 913 594 988 q 751 699 751 839 q 749 605 751 650 q 740 542 746 560 q 664 425 719 465 q 739 281 739 363 l 739 75 q 643 -11 739 -11 q 568 10 596 -11 q 540 75 540 32 l 540 258 q 517 364 540 333 q 425 394 494 394 q 322 362 350 394 q 293 242 293 329 l 293 75 q 196 -8 293 -8 m 282 508 q 344 547 317 538 q 422 556 371 556 q 524 563 492 556 q 567 592 557 569 q 576 661 576 614 q 548 792 576 756 q 446 829 519 829 q 330 792 364 829 q 296 661 296 754 q 292 580 296 615 q 282 508 289 544 m 356 -382 q 319 -374 332 -383 q 304 -349 306 -364 q 304 -335 304 -344 q 308 -301 304 -325 q 318 -235 311 -278 q 339 -122 325 -192 q 365 -74 346 -90 q 408 -57 385 -58 q 461 -69 436 -54 q 489 -114 486 -85 q 483 -149 490 -129 l 408 -335 q 394 -362 403 -346 q 356 -382 385 -379 z "},"S":{"ha":772,"x_min":67,"x_max":706,"o":"m 331 -11 q 219 -3 278 -11 q 125 19 161 6 q 67 99 67 43 q 91 163 67 139 q 168 188 115 188 q 256 178 204 188 q 346 168 307 168 q 469 190 432 168 q 507 281 507 213 q 478 349 507 321 q 365 401 450 376 q 142 515 211 447 q 74 692 74 583 q 116 852 74 786 q 233 953 158 918 q 404 988 308 988 q 590 957 517 988 q 649 878 649 935 q 624 813 649 838 q 547 789 600 789 q 472 797 513 789 q 393 804 432 804 q 303 783 333 804 q 272 714 272 763 q 315 633 272 669 q 474 563 358 597 q 656 458 606 524 q 706 290 706 392 q 608 66 706 143 q 331 -11 510 -11 z "},"Ś":{"ha":772,"x_min":67,"x_max":706,"o":"m 331 -11 q 219 -3 278 -11 q 125 19 161 6 q 67 99 67 43 q 91 163 67 139 q 168 188 115 188 q 256 178 204 188 q 346 168 307 168 q 469 190 432 168 q 507 281 507 213 q 478 349 507 321 q 365 401 450 376 q 142 515 211 447 q 74 692 74 583 q 116 852 74 786 q 233 953 158 918 q 404 988 308 988 q 590 957 517 988 q 649 878 649 935 q 624 813 649 838 q 547 789 600 789 q 472 797 513 789 q 393 804 432 804 q 303 783 333 804 q 272 714 272 763 q 315 633 272 669 q 474 563 358 597 q 656 458 606 524 q 706 290 706 392 q 608 66 706 143 q 331 -11 510 -11 m 225 1078 q 191 1092 207 1078 q 175 1125 175 1107 q 182 1147 175 1136 q 207 1168 189 1158 q 238 1187 213 1171 q 298 1226 263 1203 q 372 1274 333 1249 q 440 1321 410 1299 q 461 1331 451 1328 q 479 1333 471 1333 q 534 1306 513 1333 q 556 1242 556 1278 q 539 1195 556 1215 q 483 1156 522 1175 q 422 1130 460 1143 q 342 1105 383 1117 q 269 1085 301 1093 q 225 1078 238 1078 z "},"Š":{"ha":772,"x_min":67,"x_max":706,"o":"m 331 -11 q 219 -3 278 -11 q 125 19 161 6 q 67 99 67 43 q 91 163 67 139 q 168 188 115 188 q 256 178 204 188 q 346 168 307 168 q 469 190 432 168 q 507 281 507 213 q 478 349 507 321 q 365 401 450 376 q 142 515 211 447 q 74 692 74 583 q 116 852 74 786 q 233 953 158 918 q 404 988 308 988 q 590 957 517 988 q 649 878 649 935 q 624 813 649 838 q 547 789 600 789 q 472 797 513 789 q 393 804 432 804 q 303 783 333 804 q 272 714 272 763 q 315 633 272 669 q 474 563 358 597 q 656 458 606 524 q 706 290 706 392 q 608 66 706 143 q 331 -11 510 -11 m 457 1118 q 407 1099 428 1104 q 366 1098 386 1093 q 315 1118 346 1103 l 218 1168 q 149 1251 149 1201 q 169 1308 149 1288 q 222 1328 190 1328 q 261 1315 240 1328 l 386 1236 l 511 1315 q 550 1328 532 1328 q 603 1308 582 1328 q 625 1251 625 1288 q 554 1168 625 1203 l 457 1118 z "},"Ş":{"ha":772,"x_min":67,"x_max":706,"o":"m 294 -328 q 201 -303 233 -325 q 169 -246 168 -282 q 185 -208 169 -224 q 226 -193 200 -192 q 260 -201 247 -193 q 294 -210 274 -208 q 364 -168 361 -211 q 338 -128 365 -144 q 268 -111 310 -112 q 242 -82 242 -108 q 250 -51 242 -71 q 271 -8 258 -32 q 190 1 229 -6 q 125 19 151 8 q 67 99 67 43 q 91 163 67 139 q 168 188 115 188 q 256 178 204 188 q 346 168 307 168 q 469 190 432 168 q 507 281 507 213 q 478 349 507 321 q 365 401 450 376 q 142 515 211 447 q 74 692 74 583 q 116 852 74 786 q 233 953 158 918 q 404 988 308 988 q 590 957 517 988 q 649 878 649 935 q 624 813 649 838 q 547 789 600 789 q 472 797 513 789 q 393 804 432 804 q 303 783 333 804 q 272 714 272 763 q 315 633 272 669 q 474 563 358 597 q 656 458 606 524 q 706 290 706 392 q 627 84 706 160 q 404 -7 549 8 l 379 -54 q 452 -99 422 -60 q 481 -185 482 -137 q 428 -292 479 -254 q 294 -328 378 -331 z "},"Ș":{"ha":772,"x_min":67,"x_max":706,"o":"m 331 -11 q 219 -3 278 -11 q 125 19 161 6 q 67 99 67 43 q 91 163 67 139 q 168 188 115 188 q 256 178 204 188 q 346 168 307 168 q 469 190 432 168 q 507 281 507 213 q 478 349 507 321 q 365 401 450 376 q 142 515 211 447 q 74 692 74 583 q 116 852 74 786 q 233 953 158 918 q 404 988 308 988 q 590 957 517 988 q 649 878 649 935 q 624 813 649 838 q 547 789 600 789 q 472 797 513 789 q 393 804 432 804 q 303 783 333 804 q 272 714 272 763 q 315 633 272 669 q 474 563 358 597 q 656 458 606 524 q 706 290 706 392 q 608 66 706 143 q 331 -11 510 -11 m 332 -382 q 295 -374 308 -383 q 281 -349 282 -364 q 281 -335 281 -344 q 284 -301 281 -325 q 294 -235 288 -278 q 315 -122 301 -192 q 342 -74 322 -90 q 385 -57 361 -58 q 438 -69 413 -54 q 465 -114 463 -85 q 460 -149 467 -129 l 385 -335 q 370 -362 379 -346 q 332 -382 361 -379 z "},"ẞ":{"ha":833,"x_min":83,"x_max":806,"o":"m 492 789 l 339 789 q 296 772 308 789 q 283 731 283 754 l 283 82 q 260 12 283 35 q 186 -11 238 -11 q 109 14 135 -11 q 83 82 83 39 l 83 858 q 116 940 83 907 q 197 972 149 972 l 676 972 q 769 889 769 972 q 746 827 769 872 q 682 719 722 782 q 589 583 642 656 q 751 484 696 561 q 806 283 806 407 q 475 -11 806 -11 q 356 68 356 -11 q 381 133 356 115 q 475 150 407 150 q 606 283 606 150 q 576 403 606 369 q 476 438 547 438 q 360 517 360 438 q 365 543 360 529 q 410 617 374 568 q 506 754 446 667 q 511 779 515 769 q 492 789 507 789 z "},"T":{"ha":763,"x_min":6,"x_max":757,"o":"m 386 -11 q 316 5 351 -11 q 281 57 281 21 l 281 707 q 303 768 281 751 q 339 789 325 785 l 71 789 q 22 819 38 789 q 6 881 6 849 q 22 944 6 915 q 71 972 39 972 l 692 972 q 740 944 724 972 q 757 881 757 915 q 741 819 757 849 q 692 789 725 789 l 481 789 l 481 57 q 452 6 481 22 q 386 -11 424 -11 z "},"Ť":{"ha":763,"x_min":6,"x_max":757,"o":"m 386 -11 q 316 5 351 -11 q 281 57 281 21 l 281 707 q 303 768 281 751 q 339 789 325 785 l 71 789 q 22 819 38 789 q 6 881 6 849 q 22 944 6 915 q 71 972 39 972 l 692 972 q 740 944 724 972 q 757 881 757 915 q 741 819 757 849 q 692 789 725 789 l 481 789 l 481 57 q 452 6 481 22 q 386 -11 424 -11 m 453 1118 q 403 1099 424 1104 q 362 1098 382 1093 q 311 1118 342 1103 l 214 1168 q 144 1251 144 1201 q 165 1308 144 1288 q 218 1328 186 1328 q 257 1315 236 1328 l 382 1236 l 507 1315 q 546 1328 528 1328 q 599 1308 578 1328 q 621 1251 621 1288 q 550 1168 621 1203 l 453 1118 z "},"Ț":{"ha":763,"x_min":6,"x_max":757,"o":"m 386 -11 q 316 5 351 -11 q 281 57 281 21 l 281 707 q 303 768 281 751 q 339 789 325 785 l 71 789 q 22 819 38 789 q 6 881 6 849 q 22 944 6 915 q 71 972 39 972 l 692 972 q 740 944 724 972 q 757 881 757 915 q 741 819 757 849 q 692 789 725 789 l 481 789 l 481 57 q 452 6 481 22 q 386 -11 424 -11 m 328 -382 q 291 -374 304 -383 q 276 -349 278 -364 q 276 -335 276 -344 q 280 -301 276 -325 q 290 -235 283 -278 q 311 -122 297 -192 q 338 -74 318 -90 q 381 -57 357 -58 q 433 -69 408 -54 q 461 -114 458 -85 q 456 -149 463 -129 l 381 -335 q 366 -362 375 -346 q 328 -382 357 -379 z "},"U":{"ha":897,"x_min":93,"x_max":804,"o":"m 438 -11 q 181 73 269 -11 q 93 326 93 157 l 93 879 q 193 988 93 988 q 293 879 293 988 l 293 326 q 331 199 293 239 q 438 158 369 158 q 604 326 604 158 l 604 879 q 704 988 604 988 q 804 879 804 988 l 804 326 q 711 74 804 158 q 438 -11 618 -11 z "},"Ú":{"ha":897,"x_min":93,"x_max":804,"o":"m 438 -11 q 181 73 269 -11 q 93 326 93 157 l 93 879 q 193 988 93 988 q 293 879 293 988 l 293 326 q 331 199 293 239 q 438 158 369 158 q 604 326 604 158 l 604 879 q 704 988 604 988 q 804 879 804 988 l 804 326 q 711 74 804 158 q 438 -11 618 -11 m 288 1078 q 253 1092 269 1078 q 238 1125 238 1107 q 244 1147 238 1136 q 269 1168 251 1158 q 300 1187 275 1171 q 360 1226 325 1203 q 434 1274 396 1249 q 503 1321 472 1299 q 524 1331 514 1328 q 542 1333 533 1333 q 597 1306 575 1333 q 618 1242 618 1278 q 601 1195 618 1215 q 546 1156 585 1175 q 484 1130 522 1143 q 405 1105 446 1117 q 332 1085 364 1093 q 288 1078 300 1078 z "},"Ŭ":{"ha":897,"x_min":93,"x_max":804,"o":"m 438 -11 q 181 73 269 -11 q 93 326 93 157 l 93 879 q 193 988 93 988 q 293 879 293 988 l 293 326 q 331 199 293 239 q 438 158 369 158 q 604 326 604 158 l 604 879 q 704 988 604 988 q 804 879 804 988 l 804 326 q 711 74 804 158 q 438 -11 618 -11 m 521 1265 q 533 1326 515 1306 q 586 1347 550 1347 q 633 1328 610 1347 q 656 1260 656 1308 q 595 1130 656 1175 q 447 1085 535 1085 q 300 1130 360 1085 q 240 1260 240 1175 q 263 1328 240 1308 q 308 1347 285 1347 q 363 1326 344 1347 q 374 1265 381 1306 q 390 1226 371 1244 q 447 1208 408 1208 q 506 1226 488 1208 q 521 1265 524 1244 z "},"Û":{"ha":897,"x_min":93,"x_max":804,"o":"m 438 -11 q 181 73 269 -11 q 93 326 93 157 l 93 879 q 193 988 93 988 q 293 879 293 988 l 293 326 q 331 199 293 239 q 438 158 369 158 q 604 326 604 158 l 604 879 q 704 988 604 988 q 804 879 804 988 l 804 326 q 711 74 804 158 q 438 -11 618 -11 m 518 1304 l 615 1254 q 686 1171 686 1219 q 665 1115 686 1136 q 611 1094 643 1094 q 572 1107 593 1094 l 447 1186 l 322 1107 q 283 1094 301 1094 q 231 1115 251 1094 q 210 1171 210 1136 q 279 1254 210 1221 l 376 1304 q 427 1324 407 1319 q 468 1324 447 1329 q 518 1304 489 1319 z "},"Ü":{"ha":897,"x_min":93,"x_max":804,"o":"m 438 -11 q 181 73 269 -11 q 93 326 93 157 l 93 879 q 193 988 93 988 q 293 879 293 988 l 293 326 q 331 199 293 239 q 438 158 369 158 q 604 326 604 158 l 604 879 q 704 988 604 988 q 804 879 804 988 l 804 326 q 711 74 804 158 q 438 -11 618 -11 m 303 1114 q 234 1140 260 1114 q 208 1206 208 1165 q 234 1273 208 1247 q 303 1299 260 1299 q 370 1273 344 1299 q 396 1206 396 1247 q 370 1140 396 1165 q 303 1114 344 1114 m 593 1114 q 525 1140 550 1114 q 500 1206 500 1165 q 525 1273 500 1247 q 593 1299 550 1299 q 661 1273 635 1299 q 688 1206 688 1247 q 661 1140 688 1165 q 593 1114 635 1114 z "},"Ù":{"ha":897,"x_min":93,"x_max":804,"o":"m 438 -11 q 181 73 269 -11 q 93 326 93 157 l 93 879 q 193 988 93 988 q 293 879 293 988 l 293 326 q 331 199 293 239 q 438 158 369 158 q 604 326 604 158 l 604 879 q 704 988 604 988 q 804 879 804 988 l 804 326 q 711 74 804 158 q 438 -11 618 -11 m 610 1078 q 565 1085 597 1078 q 492 1105 533 1093 q 413 1130 451 1117 q 351 1156 375 1143 q 296 1195 313 1175 q 279 1242 279 1215 q 301 1306 279 1278 q 356 1333 322 1333 q 374 1331 364 1333 q 394 1321 385 1328 q 464 1274 426 1299 q 537 1226 501 1249 q 597 1187 572 1203 q 628 1168 622 1171 q 653 1147 646 1158 q 660 1125 660 1136 q 644 1092 660 1107 q 610 1078 629 1078 z "},"Ű":{"ha":897,"x_min":93,"x_max":804,"o":"m 438 -11 q 181 73 269 -11 q 93 326 93 157 l 93 879 q 193 988 93 988 q 293 879 293 988 l 293 326 q 331 199 293 239 q 438 158 369 158 q 604 326 604 158 l 604 879 q 704 988 604 988 q 804 879 804 988 l 804 326 q 711 74 804 158 q 438 -11 618 -11 m 351 1044 q 319 1038 340 1036 q 290 1053 299 1040 q 290 1094 279 1069 q 309 1136 294 1101 q 342 1217 324 1171 q 372 1300 360 1263 q 381 1315 376 1310 q 392 1325 386 1321 q 444 1332 414 1340 q 492 1300 475 1324 q 483 1213 514 1267 q 455 1168 474 1194 q 415 1115 436 1142 q 377 1069 394 1089 q 351 1044 360 1050 m 554 1044 q 522 1038 543 1036 q 493 1053 501 1040 q 493 1094 482 1069 q 512 1136 497 1101 q 544 1217 526 1171 q 575 1300 563 1263 q 584 1315 579 1310 q 594 1325 589 1321 q 647 1332 617 1340 q 694 1300 678 1324 q 686 1213 717 1267 q 658 1168 676 1194 q 618 1115 639 1142 q 580 1069 597 1089 q 554 1044 563 1050 z "},"Ū":{"ha":897,"x_min":93,"x_max":804,"o":"m 438 -11 q 181 73 269 -11 q 93 326 93 157 l 93 879 q 193 988 93 988 q 293 879 293 988 l 293 326 q 331 199 293 239 q 438 158 369 158 q 604 326 604 158 l 604 879 q 704 988 604 988 q 804 879 804 988 l 804 326 q 711 74 804 158 q 438 -11 618 -11 m 296 1097 q 244 1115 264 1097 q 225 1171 225 1132 q 244 1226 225 1210 q 296 1243 264 1243 l 601 1243 q 653 1226 633 1243 q 672 1171 672 1210 q 653 1115 672 1132 q 601 1097 633 1097 l 296 1097 z "},"Ų":{"ha":897,"x_min":93,"x_max":804,"o":"m 438 -11 q 181 73 269 -11 q 93 326 93 157 l 93 879 q 193 988 93 988 q 293 879 293 988 l 293 326 q 331 199 293 239 q 438 158 369 158 q 604 326 604 158 l 604 879 q 704 988 604 988 q 804 879 804 988 l 804 326 q 624 19 804 92 q 528 -62 567 -15 q 490 -142 490 -108 q 522 -194 490 -174 q 610 -218 554 -214 q 651 -236 636 -219 q 665 -279 665 -253 q 644 -334 665 -312 q 589 -356 622 -356 q 429 -310 492 -356 q 367 -194 367 -265 q 443 -11 367 -86 l 438 -11 z "},"Ů":{"ha":897,"x_min":93,"x_max":804,"o":"m 438 -11 q 181 73 269 -11 q 93 326 93 157 l 93 879 q 193 988 93 988 q 293 879 293 988 l 293 326 q 331 199 293 239 q 438 158 369 158 q 604 326 604 158 l 604 879 q 704 988 604 988 q 804 879 804 988 l 804 326 q 711 74 804 158 q 438 -11 618 -11 m 447 1063 q 336 1107 381 1063 q 292 1219 292 1151 q 336 1331 292 1286 q 447 1375 381 1375 q 560 1331 515 1375 q 604 1219 604 1286 q 560 1107 604 1151 q 447 1063 515 1063 m 449 1167 q 486 1181 472 1167 q 500 1219 500 1196 q 486 1257 500 1243 q 449 1271 472 1271 q 410 1257 425 1271 q 396 1219 396 1243 q 410 1181 396 1196 q 449 1167 425 1167 z "},"V":{"ha":828,"x_min":13,"x_max":810,"o":"m 439 -11 q 336 29 383 -11 q 265 142 289 69 l 35 839 q 42 949 13 910 q 122 988 72 988 q 197 956 171 988 q 244 853 222 925 l 446 222 q 520 416 483 331 q 582 574 557 501 q 608 715 607 647 q 603 778 610 750 q 591 834 597 806 q 585 897 585 863 q 610 959 585 931 q 696 988 635 988 q 767 953 742 988 q 801 870 792 919 q 810 772 810 821 q 782 552 810 657 q 708 347 754 447 q 606 142 661 247 q 558 53 581 88 q 509 4 536 19 q 439 -11 482 -11 z "},"W":{"ha":1203,"x_min":13,"x_max":1185,"o":"m 851 -11 q 749 24 792 -11 q 686 142 706 58 l 631 369 q 592 248 614 307 q 549 143 569 189 q 473 25 514 61 q 379 -11 432 -11 q 278 29 319 -11 q 218 142 238 69 l 35 839 q 42 949 13 910 q 122 988 72 988 q 194 957 168 988 q 238 853 219 926 l 399 194 l 494 497 q 530 634 522 583 q 538 713 538 685 q 528 788 538 757 q 513 844 519 818 q 523 944 496 917 q 593 972 550 972 q 666 945 638 972 q 708 853 694 918 l 860 196 q 955 510 926 390 q 983 692 983 629 q 978 790 983 756 q 966 848 972 825 q 960 894 960 871 q 985 958 960 929 q 1071 988 1011 988 q 1142 954 1117 988 q 1176 872 1167 921 q 1185 778 1185 824 q 1169 628 1185 713 q 1130 453 1154 543 q 1076 282 1106 364 q 1018 140 1047 200 q 940 24 979 58 q 851 -11 901 -11 z "},"Ẃ":{"ha":1203,"x_min":13,"x_max":1185,"o":"m 851 -11 q 749 24 792 -11 q 686 142 706 58 l 631 369 q 592 248 614 307 q 549 143 569 189 q 473 25 514 61 q 379 -11 432 -11 q 278 29 319 -11 q 218 142 238 69 l 35 839 q 42 949 13 910 q 122 988 72 988 q 194 957 168 988 q 238 853 219 926 l 399 194 l 494 497 q 530 634 522 583 q 538 713 538 685 q 528 788 538 757 q 513 844 519 818 q 523 944 496 917 q 593 972 550 972 q 666 945 638 972 q 708 853 694 918 l 860 196 q 955 510 926 390 q 983 692 983 629 q 978 790 983 756 q 966 848 972 825 q 960 894 960 871 q 985 958 960 929 q 1071 988 1011 988 q 1142 954 1117 988 q 1176 872 1167 921 q 1185 778 1185 824 q 1169 628 1185 713 q 1130 453 1154 543 q 1076 282 1106 364 q 1018 140 1047 200 q 940 24 979 58 q 851 -11 901 -11 m 451 1078 q 417 1092 433 1078 q 401 1125 401 1107 q 408 1147 401 1136 q 433 1168 415 1158 q 464 1187 439 1171 q 524 1226 489 1203 q 598 1274 560 1249 q 667 1321 636 1299 q 688 1331 678 1328 q 706 1333 697 1333 q 760 1306 739 1333 q 782 1242 782 1278 q 765 1195 782 1215 q 710 1156 749 1175 q 648 1130 686 1143 q 569 1105 610 1117 q 496 1085 528 1093 q 451 1078 464 1078 z "},"Ŵ":{"ha":1203,"x_min":13,"x_max":1185,"o":"m 851 -11 q 749 24 792 -11 q 686 142 706 58 l 631 369 q 592 248 614 307 q 549 143 569 189 q 473 25 514 61 q 379 -11 432 -11 q 278 29 319 -11 q 218 142 238 69 l 35 839 q 42 949 13 910 q 122 988 72 988 q 194 957 168 988 q 238 853 219 926 l 399 194 l 494 497 q 530 634 522 583 q 538 713 538 685 q 528 788 538 757 q 513 844 519 818 q 523 944 496 917 q 593 972 550 972 q 666 945 638 972 q 708 853 694 918 l 860 196 q 955 510 926 390 q 983 692 983 629 q 978 790 983 756 q 966 848 972 825 q 960 894 960 871 q 985 958 960 929 q 1071 988 1011 988 q 1142 954 1117 988 q 1176 872 1167 921 q 1185 778 1185 824 q 1169 628 1185 713 q 1130 453 1154 543 q 1076 282 1106 364 q 1018 140 1047 200 q 940 24 979 58 q 851 -11 901 -11 m 683 1304 l 781 1254 q 851 1171 851 1219 q 830 1115 851 1136 q 776 1094 808 1094 q 738 1107 758 1094 l 613 1186 l 488 1107 q 449 1094 467 1094 q 396 1115 417 1094 q 375 1171 375 1136 q 444 1254 375 1221 l 542 1304 q 592 1324 572 1319 q 633 1324 613 1329 q 683 1304 654 1319 z "},"Ẅ":{"ha":1203,"x_min":13,"x_max":1185,"o":"m 851 -11 q 749 24 792 -11 q 686 142 706 58 l 631 369 q 592 248 614 307 q 549 143 569 189 q 473 25 514 61 q 379 -11 432 -11 q 278 29 319 -11 q 218 142 238 69 l 35 839 q 42 949 13 910 q 122 988 72 988 q 194 957 168 988 q 238 853 219 926 l 399 194 l 494 497 q 530 634 522 583 q 538 713 538 685 q 528 788 538 757 q 513 844 519 818 q 523 944 496 917 q 593 972 550 972 q 666 945 638 972 q 708 853 694 918 l 860 196 q 955 510 926 390 q 983 692 983 629 q 978 790 983 756 q 966 848 972 825 q 960 894 960 871 q 985 958 960 929 q 1071 988 1011 988 q 1142 954 1117 988 q 1176 872 1167 921 q 1185 778 1185 824 q 1169 628 1185 713 q 1130 453 1154 543 q 1076 282 1106 364 q 1018 140 1047 200 q 940 24 979 58 q 851 -11 901 -11 m 467 1114 q 398 1140 424 1114 q 372 1206 372 1165 q 398 1273 372 1247 q 467 1299 424 1299 q 534 1273 508 1299 q 560 1206 560 1247 q 534 1140 560 1165 q 467 1114 508 1114 m 757 1114 q 689 1140 714 1114 q 664 1206 664 1165 q 689 1273 664 1247 q 757 1299 714 1299 q 825 1273 799 1299 q 851 1206 851 1247 q 825 1140 851 1165 q 757 1114 799 1114 z "},"Ẁ":{"ha":1203,"x_min":13,"x_max":1185,"o":"m 851 -11 q 749 24 792 -11 q 686 142 706 58 l 631 369 q 592 248 614 307 q 549 143 569 189 q 473 25 514 61 q 379 -11 432 -11 q 278 29 319 -11 q 218 142 238 69 l 35 839 q 42 949 13 910 q 122 988 72 988 q 194 957 168 988 q 238 853 219 926 l 399 194 l 494 497 q 530 634 522 583 q 538 713 538 685 q 528 788 538 757 q 513 844 519 818 q 523 944 496 917 q 593 972 550 972 q 666 945 638 972 q 708 853 694 918 l 860 196 q 955 510 926 390 q 983 692 983 629 q 978 790 983 756 q 966 848 972 825 q 960 894 960 871 q 985 958 960 929 q 1071 988 1011 988 q 1142 954 1117 988 q 1176 872 1167 921 q 1185 778 1185 824 q 1169 628 1185 713 q 1130 453 1154 543 q 1076 282 1106 364 q 1018 140 1047 200 q 940 24 979 58 q 851 -11 901 -11 m 774 1078 q 729 1085 761 1078 q 656 1105 697 1093 q 577 1130 615 1117 q 515 1156 539 1143 q 460 1195 476 1175 q 443 1242 443 1215 q 465 1306 443 1278 q 519 1333 486 1333 q 538 1331 528 1333 q 558 1321 549 1328 q 628 1274 590 1299 q 701 1226 665 1249 q 761 1187 736 1203 q 792 1168 786 1171 q 817 1147 810 1158 q 824 1125 824 1136 q 808 1092 824 1107 q 774 1078 793 1078 z "},"X":{"ha":901,"x_min":36,"x_max":865,"o":"m 139 -10 q 67 16 99 -10 q 36 74 36 42 q 57 146 36 99 q 115 254 78 193 q 201 383 153 315 q 303 515 249 450 l 67 828 q 46 889 46 856 q 74 960 46 932 q 146 988 103 988 q 242 938 203 988 l 465 646 q 522 725 490 679 q 586 819 554 771 q 643 911 618 868 q 738 986 686 986 q 809 963 782 986 q 836 901 836 940 q 825 847 836 876 q 740 701 804 789 q 575 501 676 614 l 843 151 q 860 121 856 136 q 865 88 865 106 q 837 17 865 46 q 768 -11 808 -11 q 654 50 700 -11 l 419 361 q 356 265 383 308 q 297 172 328 221 q 225 53 267 122 q 185 4 203 18 q 139 -10 167 -10 z "},"Y":{"ha":799,"x_min":11,"x_max":767,"o":"m 428 -11 q 325 82 325 -11 l 325 358 l 36 832 q 17 910 11 875 q 49 966 24 944 q 108 988 75 988 q 181 960 154 988 q 243 865 208 932 l 432 525 q 519 612 488 576 q 565 679 551 647 q 579 750 579 711 q 571 836 579 789 q 563 906 563 883 q 592 964 563 940 q 663 988 621 988 q 740 938 713 988 q 767 794 767 889 q 747 649 767 717 q 674 511 726 581 q 525 360 622 442 l 525 82 q 502 12 525 35 q 428 -11 479 -11 z "},"Ý":{"ha":799,"x_min":11,"x_max":767,"o":"m 428 -11 q 325 82 325 -11 l 325 358 l 36 832 q 17 910 11 875 q 49 966 24 944 q 108 988 75 988 q 181 960 154 988 q 243 865 208 932 l 432 525 q 519 612 488 576 q 565 679 551 647 q 579 750 579 711 q 571 836 579 789 q 563 906 563 883 q 592 964 563 940 q 663 988 621 988 q 740 938 713 988 q 767 794 767 889 q 747 649 767 717 q 674 511 726 581 q 525 360 622 442 l 525 82 q 502 12 525 35 q 428 -11 479 -11 m 239 1078 q 205 1092 221 1078 q 189 1125 189 1107 q 196 1147 189 1136 q 221 1168 203 1158 q 251 1187 226 1171 q 312 1226 276 1203 q 385 1274 347 1249 q 454 1321 424 1299 q 475 1331 465 1328 q 493 1333 485 1333 q 548 1306 526 1333 q 569 1242 569 1278 q 553 1195 569 1215 q 497 1156 536 1175 q 435 1130 474 1143 q 356 1105 397 1117 q 283 1085 315 1093 q 239 1078 251 1078 z "},"Ŷ":{"ha":799,"x_min":11,"x_max":767,"o":"m 428 -11 q 325 82 325 -11 l 325 358 l 36 832 q 17 910 11 875 q 49 966 24 944 q 108 988 75 988 q 181 960 154 988 q 243 865 208 932 l 432 525 q 519 612 488 576 q 565 679 551 647 q 579 750 579 711 q 571 836 579 789 q 563 906 563 883 q 592 964 563 940 q 663 988 621 988 q 740 938 713 988 q 767 794 767 889 q 747 649 767 717 q 674 511 726 581 q 525 360 622 442 l 525 82 q 502 12 525 35 q 428 -11 479 -11 m 469 1304 l 567 1254 q 638 1171 638 1219 q 616 1115 638 1136 q 563 1094 594 1094 q 524 1107 544 1094 l 399 1186 l 274 1107 q 235 1094 253 1094 q 182 1115 203 1094 q 161 1171 161 1136 q 231 1254 161 1221 l 328 1304 q 378 1324 358 1319 q 419 1324 399 1329 q 469 1304 440 1319 z "},"Ÿ":{"ha":799,"x_min":11,"x_max":767,"o":"m 428 -11 q 325 82 325 -11 l 325 358 l 36 832 q 17 910 11 875 q 49 966 24 944 q 108 988 75 988 q 181 960 154 988 q 243 865 208 932 l 432 525 q 519 612 488 576 q 565 679 551 647 q 579 750 579 711 q 571 836 579 789 q 563 906 563 883 q 592 964 563 940 q 663 988 621 988 q 740 938 713 988 q 767 794 767 889 q 747 649 767 717 q 674 511 726 581 q 525 360 622 442 l 525 82 q 502 12 525 35 q 428 -11 479 -11 m 254 1114 q 185 1140 211 1114 q 160 1206 160 1165 q 185 1273 160 1247 q 254 1299 211 1299 q 322 1273 296 1299 q 347 1206 347 1247 q 322 1140 347 1165 q 254 1114 296 1114 m 544 1114 q 476 1140 501 1114 q 451 1206 451 1165 q 476 1273 451 1247 q 544 1299 501 1299 q 613 1273 586 1299 q 639 1206 639 1247 q 613 1140 639 1165 q 544 1114 586 1114 z "},"Ỳ":{"ha":799,"x_min":11,"x_max":767,"o":"m 428 -11 q 325 82 325 -11 l 325 358 l 36 832 q 17 910 11 875 q 49 966 24 944 q 108 988 75 988 q 181 960 154 988 q 243 865 208 932 l 432 525 q 519 612 488 576 q 565 679 551 647 q 579 750 579 711 q 571 836 579 789 q 563 906 563 883 q 592 964 563 940 q 663 988 621 988 q 740 938 713 988 q 767 794 767 889 q 747 649 767 717 q 674 511 726 581 q 525 360 622 442 l 525 82 q 502 12 525 35 q 428 -11 479 -11 m 561 1078 q 517 1085 549 1078 q 444 1105 485 1093 q 365 1130 403 1117 q 303 1156 326 1143 q 247 1195 264 1175 q 231 1242 231 1215 q 252 1306 231 1278 q 307 1333 274 1333 q 326 1331 315 1333 q 346 1321 336 1328 q 415 1274 378 1299 q 488 1226 453 1249 q 549 1187 524 1203 q 579 1168 574 1171 q 604 1147 597 1158 q 611 1125 611 1136 q 596 1092 611 1107 q 561 1078 581 1078 z "},"Z":{"ha":858,"x_min":89,"x_max":776,"o":"m 175 0 q 113 28 136 0 q 89 90 89 57 q 94 124 89 107 q 119 179 100 140 q 157 245 133 206 q 219 346 181 285 q 313 499 257 407 q 447 721 369 590 q 493 779 475 769 q 508 789 511 789 l 172 789 q 115 816 138 789 q 93 883 92 843 q 123 950 96 928 q 192 972 150 972 l 661 972 q 735 944 710 972 q 757 875 760 917 q 736 821 757 857 q 679 724 715 785 l 397 261 q 365 224 383 239 q 335 201 347 208 q 324 193 322 193 l 696 193 q 754 165 732 193 q 775 93 776 136 q 750 26 774 51 q 689 0 726 0 l 175 0 z "},"Ź":{"ha":858,"x_min":89,"x_max":776,"o":"m 175 0 q 113 28 136 0 q 89 90 89 57 q 94 124 89 107 q 119 179 100 140 q 157 245 133 206 q 219 346 181 285 q 313 499 257 407 q 447 721 369 590 q 493 779 475 769 q 508 789 511 789 l 172 789 q 115 816 138 789 q 93 883 92 843 q 123 950 96 928 q 192 972 150 972 l 661 972 q 735 944 710 972 q 757 875 760 917 q 736 821 757 857 q 679 724 715 785 l 397 261 q 365 224 383 239 q 335 201 347 208 q 324 193 322 193 l 696 193 q 754 165 732 193 q 775 93 776 136 q 750 26 774 51 q 689 0 726 0 l 175 0 m 268 1078 q 234 1092 250 1078 q 218 1125 218 1107 q 225 1147 218 1136 q 250 1168 232 1158 q 281 1187 256 1171 q 341 1226 306 1203 q 415 1274 376 1249 q 483 1321 453 1299 q 504 1331 494 1328 q 522 1333 514 1333 q 577 1306 556 1333 q 599 1242 599 1278 q 582 1195 599 1215 q 526 1156 565 1175 q 465 1130 503 1143 q 385 1105 426 1117 q 313 1085 344 1093 q 268 1078 281 1078 z "},"Ž":{"ha":858,"x_min":89,"x_max":776,"o":"m 175 0 q 113 28 136 0 q 89 90 89 57 q 94 124 89 107 q 119 179 100 140 q 157 245 133 206 q 219 346 181 285 q 313 499 257 407 q 447 721 369 590 q 493 779 475 769 q 508 789 511 789 l 172 789 q 115 816 138 789 q 93 883 92 843 q 123 950 96 928 q 192 972 150 972 l 661 972 q 735 944 710 972 q 757 875 760 917 q 736 821 757 857 q 679 724 715 785 l 397 261 q 365 224 383 239 q 335 201 347 208 q 324 193 322 193 l 696 193 q 754 165 732 193 q 775 93 776 136 q 750 26 774 51 q 689 0 726 0 l 175 0 m 500 1118 q 450 1099 471 1104 q 409 1098 429 1093 q 358 1118 389 1103 l 261 1168 q 192 1251 192 1201 q 213 1308 192 1288 q 265 1328 233 1328 q 304 1315 283 1328 l 429 1236 l 554 1315 q 593 1328 575 1328 q 647 1308 625 1328 q 668 1251 668 1288 q 597 1168 668 1203 l 500 1118 z "},"Ż":{"ha":858,"x_min":89,"x_max":776,"o":"m 175 0 q 113 28 136 0 q 89 90 89 57 q 94 124 89 107 q 119 179 100 140 q 157 245 133 206 q 219 346 181 285 q 313 499 257 407 q 447 721 369 590 q 493 779 475 769 q 508 789 511 789 l 172 789 q 115 816 138 789 q 93 883 92 843 q 123 950 96 928 q 192 972 150 972 l 661 972 q 735 944 710 972 q 757 875 760 917 q 736 821 757 857 q 679 724 715 785 l 397 261 q 365 224 383 239 q 335 201 347 208 q 324 193 322 193 l 696 193 q 754 165 732 193 q 775 93 776 136 q 750 26 774 51 q 689 0 726 0 l 175 0 m 429 1103 q 343 1136 378 1103 q 308 1218 308 1169 q 343 1303 308 1269 q 429 1336 378 1336 q 516 1303 482 1336 q 550 1218 550 1269 q 516 1136 550 1169 q 429 1103 482 1103 z "},"a":{"ha":685,"x_min":39,"x_max":636,"o":"m 333 -11 q 117 53 194 -11 q 39 221 39 118 q 141 396 39 342 q 440 433 243 450 q 400 520 431 497 q 326 543 369 543 q 269 540 292 543 q 226 532 246 536 q 179 528 207 528 q 119 541 142 528 q 97 594 97 554 q 147 678 97 651 q 303 706 196 706 q 554 609 472 706 q 636 351 636 513 q 569 77 636 165 q 333 -11 501 -11 m 239 221 q 346 142 239 142 q 400 154 381 142 q 428 204 419 167 q 442 317 438 242 q 424 307 435 310 q 401 304 413 304 q 274 287 310 304 q 239 221 239 269 z "},"á":{"ha":685,"x_min":39,"x_max":636,"o":"m 333 -11 q 117 53 194 -11 q 39 221 39 118 q 141 396 39 342 q 440 433 243 450 q 400 520 431 497 q 326 543 369 543 q 269 540 292 543 q 226 532 246 536 q 179 528 207 528 q 119 541 142 528 q 97 594 97 554 q 147 678 97 651 q 303 706 196 706 q 554 609 472 706 q 636 351 636 513 q 569 77 636 165 q 333 -11 501 -11 m 239 221 q 346 142 239 142 q 400 154 381 142 q 428 204 419 167 q 442 317 438 242 q 424 307 435 310 q 401 304 413 304 q 274 287 310 304 q 239 221 239 269 m 193 800 q 159 815 175 800 q 143 847 143 829 q 150 869 143 858 q 175 890 157 881 q 206 909 181 893 q 266 948 231 925 q 340 996 301 971 q 408 1043 378 1021 q 429 1053 419 1050 q 447 1056 439 1056 q 502 1028 481 1056 q 524 964 524 1000 q 507 917 524 938 q 451 878 490 897 q 390 852 428 865 q 310 827 351 839 q 238 808 269 815 q 193 800 206 800 z "},"ă":{"ha":685,"x_min":39,"x_max":636,"o":"m 333 -11 q 117 53 194 -11 q 39 221 39 118 q 141 396 39 342 q 440 433 243 450 q 400 520 431 497 q 326 543 369 543 q 269 540 292 543 q 226 532 246 536 q 179 528 207 528 q 119 541 142 528 q 97 594 97 554 q 147 678 97 651 q 303 706 196 706 q 554 609 472 706 q 636 351 636 513 q 569 77 636 165 q 333 -11 501 -11 m 239 221 q 346 142 239 142 q 400 154 381 142 q 428 204 419 167 q 442 317 438 242 q 424 307 435 310 q 401 304 413 304 q 274 287 310 304 q 239 221 239 269 m 426 988 q 438 1049 421 1028 q 492 1069 456 1069 q 538 1050 515 1069 q 561 982 561 1031 q 501 852 561 897 q 353 807 440 807 q 206 852 265 807 q 146 982 146 897 q 168 1050 146 1031 q 214 1069 190 1069 q 268 1049 250 1069 q 279 988 286 1028 q 295 949 276 967 q 353 931 314 931 q 411 949 393 931 q 426 988 429 967 z "},"â":{"ha":685,"x_min":39,"x_max":636,"o":"m 333 -11 q 117 53 194 -11 q 39 221 39 118 q 141 396 39 342 q 440 433 243 450 q 400 520 431 497 q 326 543 369 543 q 269 540 292 543 q 226 532 246 536 q 179 528 207 528 q 119 541 142 528 q 97 594 97 554 q 147 678 97 651 q 303 706 196 706 q 554 609 472 706 q 636 351 636 513 q 569 77 636 165 q 333 -11 501 -11 m 239 221 q 346 142 239 142 q 400 154 381 142 q 428 204 419 167 q 442 317 438 242 q 424 307 435 310 q 401 304 413 304 q 274 287 310 304 q 239 221 239 269 m 424 1026 l 521 976 q 592 893 592 942 q 570 838 592 858 q 517 817 549 817 q 478 829 499 817 l 353 908 l 228 829 q 189 817 207 817 q 136 838 157 817 q 115 893 115 858 q 185 976 115 943 l 282 1026 q 333 1047 313 1042 q 374 1047 353 1051 q 424 1026 394 1042 z "},"ä":{"ha":685,"x_min":39,"x_max":636,"o":"m 333 -11 q 117 53 194 -11 q 39 221 39 118 q 141 396 39 342 q 440 433 243 450 q 400 520 431 497 q 326 543 369 543 q 269 540 292 543 q 226 532 246 536 q 179 528 207 528 q 119 541 142 528 q 97 594 97 554 q 147 678 97 651 q 303 706 196 706 q 554 609 472 706 q 636 351 636 513 q 569 77 636 165 q 333 -11 501 -11 m 239 221 q 346 142 239 142 q 400 154 381 142 q 428 204 419 167 q 442 317 438 242 q 424 307 435 310 q 401 304 413 304 q 274 287 310 304 q 239 221 239 269 m 208 836 q 140 862 165 836 q 114 928 114 888 q 140 995 114 969 q 208 1021 165 1021 q 276 995 250 1021 q 301 928 301 969 q 276 862 301 888 q 208 836 250 836 m 499 836 q 431 862 456 836 q 406 928 406 888 q 431 995 406 969 q 499 1021 456 1021 q 567 995 540 1021 q 593 928 593 969 q 567 862 593 888 q 499 836 540 836 z "},"à":{"ha":685,"x_min":39,"x_max":636,"o":"m 333 -11 q 117 53 194 -11 q 39 221 39 118 q 141 396 39 342 q 440 433 243 450 q 400 520 431 497 q 326 543 369 543 q 269 540 292 543 q 226 532 246 536 q 179 528 207 528 q 119 541 142 528 q 97 594 97 554 q 147 678 97 651 q 303 706 196 706 q 554 609 472 706 q 636 351 636 513 q 569 77 636 165 q 333 -11 501 -11 m 239 221 q 346 142 239 142 q 400 154 381 142 q 428 204 419 167 q 442 317 438 242 q 424 307 435 310 q 401 304 413 304 q 274 287 310 304 q 239 221 239 269 m 515 800 q 471 808 503 800 q 398 827 439 815 q 319 852 357 839 q 257 878 281 865 q 201 917 218 897 q 185 964 185 938 q 206 1028 185 1000 q 261 1056 228 1056 q 280 1053 269 1056 q 300 1043 290 1050 q 369 996 332 1021 q 442 948 407 971 q 503 909 478 925 q 533 890 528 893 q 558 869 551 881 q 565 847 565 858 q 550 815 565 829 q 515 800 535 800 z "},"ā":{"ha":685,"x_min":39,"x_max":636,"o":"m 333 -11 q 117 53 194 -11 q 39 221 39 118 q 141 396 39 342 q 440 433 243 450 q 400 520 431 497 q 326 543 369 543 q 269 540 292 543 q 226 532 246 536 q 179 528 207 528 q 119 541 142 528 q 97 594 97 554 q 147 678 97 651 q 303 706 196 706 q 554 609 472 706 q 636 351 636 513 q 569 77 636 165 q 333 -11 501 -11 m 239 221 q 346 142 239 142 q 400 154 381 142 q 428 204 419 167 q 442 317 438 242 q 424 307 435 310 q 401 304 413 304 q 274 287 310 304 q 239 221 239 269 m 201 819 q 150 837 169 819 q 131 893 131 854 q 150 949 131 932 q 201 965 169 965 l 507 965 q 558 949 539 965 q 578 893 578 932 q 558 837 578 854 q 507 819 539 819 l 201 819 z "},"ą":{"ha":685,"x_min":39,"x_max":636,"o":"m 464 -356 q 304 -310 367 -356 q 242 -194 242 -265 q 318 -11 242 -86 q 113 57 186 -7 q 39 221 39 121 q 141 396 39 342 q 440 433 243 450 q 400 520 431 497 q 326 543 369 543 q 269 540 292 543 q 226 532 246 536 q 179 528 207 528 q 119 541 142 528 q 97 594 97 554 q 147 678 97 651 q 303 706 196 706 q 554 609 472 706 q 636 351 636 513 q 613 161 636 238 q 533 43 589 85 q 458 -12 506 17 q 365 -142 365 -71 q 397 -194 365 -174 q 485 -218 429 -214 q 526 -236 511 -219 q 540 -279 540 -253 q 519 -334 540 -312 q 464 -356 497 -356 m 239 221 q 346 142 239 142 q 400 154 381 142 q 428 204 419 167 q 442 317 438 242 q 424 307 435 310 q 401 304 413 304 q 274 287 310 304 q 239 221 239 269 z "},"å":{"ha":685,"x_min":39,"x_max":636,"o":"m 333 -11 q 117 53 194 -11 q 39 221 39 118 q 141 396 39 342 q 440 433 243 450 q 400 520 431 497 q 326 543 369 543 q 269 540 292 543 q 226 532 246 536 q 179 528 207 528 q 119 541 142 528 q 97 594 97 554 q 147 678 97 651 q 303 706 196 706 q 554 609 472 706 q 636 351 636 513 q 569 77 636 165 q 333 -11 501 -11 m 239 221 q 346 142 239 142 q 400 154 381 142 q 428 204 419 167 q 442 317 438 242 q 424 307 435 310 q 401 304 413 304 q 274 287 310 304 q 239 221 239 269 m 353 785 q 242 829 286 785 q 197 942 197 874 q 242 1053 197 1008 q 353 1097 286 1097 q 465 1053 421 1097 q 510 942 510 1008 q 465 829 510 874 q 353 785 421 785 m 354 889 q 392 903 378 889 q 406 942 406 918 q 392 979 406 965 q 354 993 378 993 q 316 979 331 993 q 301 942 301 965 q 316 903 301 918 q 354 889 331 889 z "},"ã":{"ha":685,"x_min":39,"x_max":636,"o":"m 333 -11 q 117 53 194 -11 q 39 221 39 118 q 141 396 39 342 q 440 433 243 450 q 400 520 431 497 q 326 543 369 543 q 269 540 292 543 q 226 532 246 536 q 179 528 207 528 q 119 541 142 528 q 97 594 97 554 q 147 678 97 651 q 303 706 196 706 q 554 609 472 706 q 636 351 636 513 q 569 77 636 165 q 333 -11 501 -11 m 239 221 q 346 142 239 142 q 400 154 381 142 q 428 204 419 167 q 442 317 438 242 q 424 307 435 310 q 401 304 413 304 q 274 287 310 304 q 239 221 239 269 m 165 794 q 113 812 129 794 q 96 853 96 829 q 115 913 96 882 q 172 966 135 944 q 257 988 208 988 q 331 974 306 988 q 379 947 356 961 q 410 930 394 938 q 442 922 426 922 q 474 932 463 922 q 492 954 485 942 q 511 976 500 967 q 543 986 522 986 q 596 969 579 986 q 613 928 613 951 q 593 868 613 900 q 538 815 574 836 q 451 793 501 793 q 379 806 404 793 q 329 833 354 819 q 298 850 314 842 q 267 858 282 858 q 235 849 246 858 q 216 826 224 839 q 197 804 208 814 q 165 794 186 794 z "},"æ":{"ha":1092,"x_min":39,"x_max":1053,"o":"m 333 -11 q 117 53 194 -11 q 39 221 39 118 q 141 396 39 342 q 440 433 243 450 q 400 520 431 497 q 326 543 369 543 q 269 540 292 543 q 226 532 246 536 q 179 528 207 528 q 119 541 142 528 q 97 594 97 554 q 147 678 97 651 q 303 706 196 706 q 554 609 472 706 q 636 351 636 513 q 569 77 636 165 q 333 -11 501 -11 m 239 221 q 346 142 239 142 q 400 154 381 142 q 428 204 419 167 q 442 317 438 242 q 424 307 435 310 q 401 304 413 304 q 274 287 310 304 q 239 221 239 269 m 807 -11 q 590 35 668 -11 q 478 161 511 81 q 446 346 446 242 q 531 622 446 538 q 758 706 615 706 q 911 676 844 706 q 1015 594 978 647 q 1053 464 1053 540 q 736 242 1053 242 l 656 242 q 692 174 667 199 q 783 150 718 150 q 842 154 819 150 q 884 163 864 158 q 931 167 904 167 q 990 153 968 167 q 1013 100 1013 140 q 963 16 1013 43 q 807 -11 914 -11 m 646 344 q 671 365 657 360 q 714 369 685 369 q 827 385 796 369 q 858 443 858 401 q 829 524 858 496 q 756 553 800 553 q 675 510 704 553 q 646 344 646 467 z "},"b":{"ha":785,"x_min":90,"x_max":736,"o":"m 407 -11 q 174 82 257 -11 q 90 363 90 175 l 90 950 q 192 1058 90 1058 q 285 950 285 1058 l 285 831 q 283 742 285 776 q 276 681 281 707 q 261 626 271 656 q 334 688 288 669 q 453 706 381 706 q 600 674 536 706 q 700 569 664 643 q 736 371 736 496 q 648 86 736 183 q 407 -11 560 -11 m 417 156 q 508 197 475 156 q 540 353 540 239 q 526 469 540 429 q 483 524 511 508 q 417 539 456 539 q 350 524 378 539 q 308 469 322 508 q 293 353 293 429 q 326 197 293 239 q 417 156 358 156 z "},"c":{"ha":626,"x_min":46,"x_max":585,"o":"m 379 -11 q 128 87 210 -11 q 46 346 46 185 q 128 606 46 507 q 379 706 210 706 q 535 683 486 706 q 585 604 585 661 q 563 546 585 564 q 503 528 540 528 q 461 532 476 528 q 428 540 446 536 q 375 543 411 543 q 298 514 326 543 q 258 440 269 485 q 246 346 246 394 q 255 253 246 299 q 292 180 264 208 q 376 151 319 151 q 454 159 429 151 q 503 167 479 167 q 563 153 540 167 q 585 100 585 140 q 535 16 585 43 q 379 -11 486 -11 z "},"ć":{"ha":626,"x_min":46,"x_max":585,"o":"m 379 -11 q 128 87 210 -11 q 46 346 46 185 q 128 606 46 507 q 379 706 210 706 q 535 683 486 706 q 585 604 585 661 q 563 546 585 564 q 503 528 540 528 q 461 532 476 528 q 428 540 446 536 q 375 543 411 543 q 298 514 326 543 q 258 440 269 485 q 246 346 246 394 q 255 253 246 299 q 292 180 264 208 q 376 151 319 151 q 454 159 429 151 q 503 167 479 167 q 563 153 540 167 q 585 100 585 140 q 535 16 585 43 q 379 -11 486 -11 m 208 800 q 174 815 190 800 q 158 847 158 829 q 165 869 158 858 q 190 890 172 881 q 221 909 196 893 q 281 948 246 925 q 355 996 317 971 q 424 1043 393 1021 q 444 1053 435 1050 q 463 1056 454 1056 q 517 1028 496 1056 q 539 964 539 1000 q 522 917 539 938 q 467 878 506 897 q 405 852 443 865 q 326 827 367 839 q 253 808 285 815 q 208 800 221 800 z "},"č":{"ha":626,"x_min":46,"x_max":608,"o":"m 379 -11 q 128 87 210 -11 q 46 346 46 185 q 128 606 46 507 q 379 706 210 706 q 535 683 486 706 q 585 604 585 661 q 563 546 585 564 q 503 528 540 528 q 461 532 476 528 q 428 540 446 536 q 375 543 411 543 q 298 514 326 543 q 258 440 269 485 q 246 346 246 394 q 255 253 246 299 q 292 180 264 208 q 376 151 319 151 q 454 159 429 151 q 503 167 479 167 q 563 153 540 167 q 585 100 585 140 q 535 16 585 43 q 379 -11 486 -11 m 440 840 q 390 821 411 826 q 349 820 369 815 q 299 840 329 825 l 201 890 q 132 974 132 924 q 153 1030 132 1010 q 206 1050 174 1050 q 244 1038 224 1050 l 369 958 l 494 1038 q 533 1050 515 1050 q 587 1030 565 1050 q 608 974 608 1010 q 538 890 608 925 l 440 840 z "},"ç":{"ha":626,"x_min":46,"x_max":585,"o":"m 379 -11 q 128 87 210 -11 q 46 346 46 185 q 128 606 46 507 q 379 706 210 706 q 535 683 486 706 q 585 604 585 661 q 563 546 585 564 q 503 528 540 528 q 461 532 476 528 q 428 540 446 536 q 375 543 411 543 q 298 514 326 543 q 258 440 269 485 q 246 346 246 394 q 255 253 246 299 q 292 180 264 208 q 376 151 319 151 q 454 159 429 151 q 503 167 479 167 q 563 153 540 167 q 585 100 585 140 q 535 16 585 43 q 379 -11 486 -11 m 292 -328 q 198 -303 231 -325 q 167 -246 165 -282 q 182 -208 167 -224 q 224 -193 197 -192 q 258 -201 244 -193 q 292 -210 271 -208 q 361 -168 358 -211 q 335 -128 363 -144 q 265 -111 307 -112 q 239 -82 239 -108 q 251 -44 240 -69 q 278 9 261 -19 q 311 60 294 38 l 431 50 l 376 -54 q 449 -99 419 -60 q 478 -185 479 -137 q 426 -292 476 -254 q 292 -328 375 -331 z "},"ċ":{"ha":626,"x_min":46,"x_max":585,"o":"m 379 -11 q 128 87 210 -11 q 46 346 46 185 q 128 606 46 507 q 379 706 210 706 q 535 683 486 706 q 585 604 585 661 q 563 546 585 564 q 503 528 540 528 q 461 532 476 528 q 428 540 446 536 q 375 543 411 543 q 298 514 326 543 q 258 440 269 485 q 246 346 246 394 q 255 253 246 299 q 292 180 264 208 q 376 151 319 151 q 454 159 429 151 q 503 167 479 167 q 563 153 540 167 q 585 100 585 140 q 535 16 585 43 q 379 -11 486 -11 m 369 825 q 283 858 318 825 q 249 940 249 892 q 283 1025 249 992 q 369 1058 318 1058 q 456 1025 422 1058 q 490 940 490 992 q 456 858 490 892 q 369 825 422 825 z "},"d":{"ha":778,"x_min":49,"x_max":694,"o":"m 378 -11 q 137 86 225 -11 q 49 371 49 183 q 85 569 49 496 q 185 674 121 643 q 332 706 250 706 q 451 688 406 706 q 524 626 497 669 q 509 681 514 656 q 502 742 504 707 q 500 831 500 776 l 500 950 q 593 1058 500 1058 q 694 950 694 1058 l 694 363 q 611 82 694 175 q 378 -11 528 -11 m 368 156 q 459 197 426 156 q 492 353 492 239 q 477 469 492 429 q 435 524 463 508 q 368 539 407 539 q 301 524 329 539 q 259 469 274 508 q 244 353 244 429 q 277 197 244 239 q 368 156 310 156 z "},"ď":{"ha":894,"x_min":49,"x_max":926,"o":"m 378 -11 q 137 86 225 -11 q 49 371 49 183 q 85 569 49 496 q 185 674 121 643 q 332 706 250 706 q 451 688 406 706 q 524 626 497 669 q 509 681 514 656 q 502 742 504 707 q 500 831 500 776 l 500 950 q 593 1058 500 1058 q 694 950 694 1058 l 694 363 q 611 82 694 175 q 378 -11 528 -11 m 368 156 q 459 197 426 156 q 492 353 492 239 q 477 469 492 429 q 435 524 463 508 q 368 539 407 539 q 301 524 329 539 q 259 469 274 508 q 244 353 244 429 q 277 197 244 239 q 368 156 310 156 m 824 749 q 788 731 808 731 q 758 743 771 731 q 745 763 749 753 q 743 794 742 772 q 753 849 743 790 q 781 1001 764 908 q 808 1043 785 1029 q 857 1057 831 1057 q 905 1040 883 1057 q 926 986 926 1024 q 909 905 926 951 q 868 816 892 858 q 824 749 844 774 z "},"đ":{"ha":778,"x_min":49,"x_max":826,"o":"m 378 -11 q 137 86 225 -11 q 49 371 49 183 q 85 569 49 496 q 185 674 121 643 q 332 706 250 706 q 451 688 406 706 q 524 626 497 669 q 509 681 514 656 q 502 742 504 707 q 500 831 500 776 l 500 950 q 593 1058 500 1058 q 694 950 694 1058 l 694 363 q 611 82 694 175 q 378 -11 528 -11 m 368 156 q 459 197 426 156 q 492 353 492 239 q 477 469 492 429 q 435 524 463 508 q 368 539 407 539 q 301 524 329 539 q 259 469 274 508 q 244 353 244 429 q 277 197 244 239 q 368 156 310 156 m 457 781 q 388 797 414 781 q 363 853 363 814 q 388 908 363 892 q 457 925 414 925 l 732 925 q 801 908 776 925 q 826 853 826 892 q 801 797 826 814 q 732 781 776 781 l 457 781 z "},"ð":{"ha":797,"x_min":67,"x_max":733,"o":"m 382 -11 q 215 32 286 -11 q 106 153 144 75 q 67 338 67 232 q 146 577 67 493 q 371 661 225 661 q 476 639 432 661 q 546 585 521 617 q 486 797 538 718 l 393 732 q 365 716 379 721 q 338 711 350 711 q 288 734 307 711 q 268 783 268 757 q 299 840 268 818 l 372 892 q 264 910 324 910 q 176 926 200 910 q 151 976 151 942 q 180 1038 151 1017 q 276 1058 208 1058 q 511 990 411 1058 l 549 1017 q 579 1033 564 1028 q 608 1038 594 1038 q 660 1017 640 1038 q 679 969 679 996 q 644 908 679 933 l 615 889 q 703 697 672 810 q 733 444 733 585 q 691 201 733 304 q 569 44 649 99 q 382 -11 490 -11 m 385 172 q 483 216 447 172 q 518 338 518 260 q 484 454 518 414 q 385 494 450 494 q 258 338 258 494 q 291 215 258 257 q 385 172 324 172 z "},"e":{"ha":694,"x_min":49,"x_max":656,"o":"m 410 -11 q 192 35 271 -11 q 81 161 114 81 q 49 346 49 242 q 133 622 49 538 q 361 706 218 706 q 514 676 447 706 q 618 594 581 647 q 656 464 656 540 q 339 242 656 242 l 258 242 q 295 174 269 199 q 386 150 321 150 q 444 154 422 150 q 487 163 467 158 q 533 167 507 167 q 593 153 571 167 q 615 100 615 140 q 566 16 615 43 q 410 -11 517 -11 m 249 344 q 274 365 260 360 q 317 369 288 369 q 430 385 399 369 q 461 443 461 401 q 432 524 461 496 q 358 553 403 553 q 278 510 307 553 q 249 344 249 467 z "},"é":{"ha":694,"x_min":49,"x_max":656,"o":"m 410 -11 q 192 35 271 -11 q 81 161 114 81 q 49 346 49 242 q 133 622 49 538 q 361 706 218 706 q 514 676 447 706 q 618 594 581 647 q 656 464 656 540 q 339 242 656 242 l 258 242 q 295 174 269 199 q 386 150 321 150 q 444 154 422 150 q 487 163 467 158 q 533 167 507 167 q 593 153 571 167 q 615 100 615 140 q 566 16 615 43 q 410 -11 517 -11 m 249 344 q 274 365 260 360 q 317 369 288 369 q 430 385 399 369 q 461 443 461 401 q 432 524 461 496 q 358 553 403 553 q 278 510 307 553 q 249 344 249 467 m 185 800 q 151 815 167 800 q 135 847 135 829 q 142 869 135 858 q 167 890 149 881 q 197 909 172 893 q 258 948 222 925 q 331 996 293 971 q 400 1043 369 1021 q 421 1053 411 1050 q 439 1056 431 1056 q 494 1028 472 1056 q 515 964 515 1000 q 499 917 515 938 q 443 878 482 897 q 381 852 419 865 q 302 827 343 839 q 229 808 261 815 q 185 800 197 800 z "},"ě":{"ha":694,"x_min":49,"x_max":656,"o":"m 410 -11 q 192 35 271 -11 q 81 161 114 81 q 49 346 49 242 q 133 622 49 538 q 361 706 218 706 q 514 676 447 706 q 618 594 581 647 q 656 464 656 540 q 339 242 656 242 l 258 242 q 295 174 269 199 q 386 150 321 150 q 444 154 422 150 q 487 163 467 158 q 533 167 507 167 q 593 153 571 167 q 615 100 615 140 q 566 16 615 43 q 410 -11 517 -11 m 249 344 q 274 365 260 360 q 317 369 288 369 q 430 385 399 369 q 461 443 461 401 q 432 524 461 496 q 358 553 403 553 q 278 510 307 553 q 249 344 249 467 m 418 840 q 368 821 389 826 q 327 820 347 815 q 276 840 307 825 l 179 890 q 110 974 110 924 q 131 1030 110 1010 q 183 1050 151 1050 q 222 1038 201 1050 l 347 958 l 472 1038 q 511 1050 493 1050 q 565 1030 543 1050 q 586 974 586 1010 q 515 890 586 925 l 418 840 z "},"ê":{"ha":694,"x_min":49,"x_max":656,"o":"m 410 -11 q 192 35 271 -11 q 81 161 114 81 q 49 346 49 242 q 133 622 49 538 q 361 706 218 706 q 514 676 447 706 q 618 594 581 647 q 656 464 656 540 q 339 242 656 242 l 258 242 q 295 174 269 199 q 386 150 321 150 q 444 154 422 150 q 487 163 467 158 q 533 167 507 167 q 593 153 571 167 q 615 100 615 140 q 566 16 615 43 q 410 -11 517 -11 m 249 344 q 274 365 260 360 q 317 369 288 369 q 430 385 399 369 q 461 443 461 401 q 432 524 461 496 q 358 553 403 553 q 278 510 307 553 q 249 344 249 467 m 417 1026 l 514 976 q 585 893 585 942 q 563 838 585 858 q 510 817 542 817 q 471 829 492 817 l 346 908 l 221 829 q 182 817 200 817 q 129 838 150 817 q 108 893 108 858 q 178 976 108 943 l 275 1026 q 326 1047 306 1042 q 367 1047 346 1051 q 417 1026 388 1042 z "},"ë":{"ha":694,"x_min":49,"x_max":656,"o":"m 410 -11 q 192 35 271 -11 q 81 161 114 81 q 49 346 49 242 q 133 622 49 538 q 361 706 218 706 q 514 676 447 706 q 618 594 581 647 q 656 464 656 540 q 339 242 656 242 l 258 242 q 295 174 269 199 q 386 150 321 150 q 444 154 422 150 q 487 163 467 158 q 533 167 507 167 q 593 153 571 167 q 615 100 615 140 q 566 16 615 43 q 410 -11 517 -11 m 249 344 q 274 365 260 360 q 317 369 288 369 q 430 385 399 369 q 461 443 461 401 q 432 524 461 496 q 358 553 403 553 q 278 510 307 553 q 249 344 249 467 m 201 836 q 133 862 158 836 q 107 928 107 888 q 133 995 107 969 q 201 1021 158 1021 q 269 995 243 1021 q 294 928 294 969 q 269 862 294 888 q 201 836 243 836 m 492 836 q 424 862 449 836 q 399 928 399 888 q 424 995 399 969 q 492 1021 449 1021 q 560 995 533 1021 q 586 928 586 969 q 560 862 586 888 q 492 836 533 836 z "},"ė":{"ha":694,"x_min":49,"x_max":656,"o":"m 410 -11 q 192 35 271 -11 q 81 161 114 81 q 49 346 49 242 q 133 622 49 538 q 361 706 218 706 q 514 676 447 706 q 618 594 581 647 q 656 464 656 540 q 339 242 656 242 l 258 242 q 295 174 269 199 q 386 150 321 150 q 444 154 422 150 q 487 163 467 158 q 533 167 507 167 q 593 153 571 167 q 615 100 615 140 q 566 16 615 43 q 410 -11 517 -11 m 249 344 q 274 365 260 360 q 317 369 288 369 q 430 385 399 369 q 461 443 461 401 q 432 524 461 496 q 358 553 403 553 q 278 510 307 553 q 249 344 249 467 m 347 825 q 261 858 296 825 q 226 940 226 892 q 261 1025 226 992 q 347 1058 296 1058 q 434 1025 400 1058 q 468 940 468 992 q 434 858 468 892 q 347 825 400 825 z "},"è":{"ha":694,"x_min":49,"x_max":656,"o":"m 410 -11 q 192 35 271 -11 q 81 161 114 81 q 49 346 49 242 q 133 622 49 538 q 361 706 218 706 q 514 676 447 706 q 618 594 581 647 q 656 464 656 540 q 339 242 656 242 l 258 242 q 295 174 269 199 q 386 150 321 150 q 444 154 422 150 q 487 163 467 158 q 533 167 507 167 q 593 153 571 167 q 615 100 615 140 q 566 16 615 43 q 410 -11 517 -11 m 249 344 q 274 365 260 360 q 317 369 288 369 q 430 385 399 369 q 461 443 461 401 q 432 524 461 496 q 358 553 403 553 q 278 510 307 553 q 249 344 249 467 m 508 800 q 464 808 496 800 q 391 827 432 815 q 312 852 350 839 q 250 878 274 865 q 194 917 211 897 q 178 964 178 938 q 199 1028 178 1000 q 254 1056 221 1056 q 273 1053 263 1056 q 293 1043 283 1050 q 363 996 325 1021 q 435 948 400 971 q 496 909 471 925 q 526 890 521 893 q 551 869 544 881 q 558 847 558 858 q 543 815 558 829 q 508 800 528 800 z "},"ē":{"ha":694,"x_min":49,"x_max":656,"o":"m 410 -11 q 192 35 271 -11 q 81 161 114 81 q 49 346 49 242 q 133 622 49 538 q 361 706 218 706 q 514 676 447 706 q 618 594 581 647 q 656 464 656 540 q 339 242 656 242 l 258 242 q 295 174 269 199 q 386 150 321 150 q 444 154 422 150 q 487 163 467 158 q 533 167 507 167 q 593 153 571 167 q 615 100 615 140 q 566 16 615 43 q 410 -11 517 -11 m 249 344 q 274 365 260 360 q 317 369 288 369 q 430 385 399 369 q 461 443 461 401 q 432 524 461 496 q 358 553 403 553 q 278 510 307 553 q 249 344 249 467 m 194 819 q 143 837 163 819 q 124 893 124 854 q 143 949 124 932 q 194 965 163 965 l 500 965 q 551 949 532 965 q 571 893 571 932 q 551 837 571 854 q 500 819 532 819 l 194 819 z "},"ę":{"ha":694,"x_min":49,"x_max":656,"o":"m 410 -11 q 192 35 271 -11 q 81 161 114 81 q 49 346 49 242 q 133 622 49 538 q 361 706 218 706 q 514 676 447 706 q 618 594 581 647 q 656 464 656 540 q 339 242 656 242 l 258 242 q 295 174 269 199 q 386 150 321 150 q 444 154 422 150 q 487 163 467 158 q 533 167 507 167 q 593 154 571 167 q 615 103 615 142 l 615 103 q 615 101 615 100 l 615 100 q 615 94 615 97 q 608 56 614 69 q 586 29 601 42 q 563 14 576 21 l 563 14 q 494 -62 519 -14 q 469 -142 469 -110 q 501 -194 469 -174 q 589 -218 533 -214 q 630 -236 615 -219 q 644 -279 644 -253 q 623 -334 644 -312 q 568 -356 601 -356 q 408 -310 471 -356 q 346 -194 346 -265 q 364 -94 346 -140 q 415 -11 382 -49 l 410 -11 m 249 344 q 274 365 260 360 q 317 369 288 369 q 430 385 399 369 q 461 443 461 401 q 432 524 461 496 q 358 553 403 553 q 278 510 307 553 q 249 344 249 467 z "},"f":{"ha":607,"x_min":14,"x_max":649,"o":"m 236 -11 q 159 20 182 -11 q 136 99 136 51 l 136 526 l 117 526 q 14 610 14 526 q 117 694 14 694 l 136 694 l 136 700 q 206 960 136 861 q 418 1058 275 1058 l 418 1058 q 421 1058 419 1058 l 422 1058 q 431 1058 426 1058 q 597 1026 544 1057 q 649 933 649 996 q 624 873 649 888 q 557 858 600 858 q 494 865 519 858 q 428 874 468 871 l 419 874 q 347 831 364 874 q 331 728 331 789 l 331 694 l 410 694 q 504 610 504 694 q 410 526 504 526 l 331 526 l 331 99 q 306 15 331 42 q 236 -11 282 -11 z "},"g":{"ha":775,"x_min":44,"x_max":792,"o":"m 686 -85 q 575 -261 686 -203 q 257 -319 464 -319 q 101 -292 150 -319 q 51 -208 51 -265 q 74 -155 51 -168 q 133 -142 96 -142 q 181 -145 161 -142 q 223 -152 200 -149 q 281 -156 246 -156 q 438 -139 390 -156 q 486 -71 486 -122 q 451 -1 486 -28 q 364 25 417 25 q 44 365 44 25 q 125 622 44 539 q 365 706 206 706 q 540 669 471 706 q 682 794 574 794 q 763 767 735 794 q 792 689 792 740 q 764 621 792 642 q 675 600 736 600 q 626 596 649 600 q 686 364 686 513 q 659 210 686 271 q 560 108 632 149 q 658 31 629 83 q 686 -85 686 -21 m 244 365 q 365 192 244 192 q 486 365 486 192 q 456 497 486 456 q 365 539 426 539 q 275 497 306 539 q 244 365 244 456 z "},"ğ":{"ha":775,"x_min":44,"x_max":792,"o":"m 686 -85 q 575 -261 686 -203 q 257 -319 464 -319 q 101 -292 150 -319 q 51 -208 51 -265 q 74 -155 51 -168 q 133 -142 96 -142 q 181 -145 161 -142 q 223 -152 200 -149 q 281 -156 246 -156 q 438 -139 390 -156 q 486 -71 486 -122 q 451 -1 486 -28 q 364 25 417 25 q 44 365 44 25 q 125 622 44 539 q 365 706 206 706 q 540 669 471 706 q 682 794 574 794 q 763 767 735 794 q 792 689 792 740 q 764 621 792 642 q 675 600 736 600 q 626 596 649 600 q 686 364 686 513 q 659 210 686 271 q 560 108 632 149 q 658 31 629 83 q 686 -85 686 -21 m 244 365 q 365 192 244 192 q 486 365 486 192 q 456 497 486 456 q 365 539 426 539 q 275 497 306 539 q 244 365 244 456 m 460 988 q 472 1049 454 1028 q 525 1069 489 1069 q 572 1050 549 1069 q 594 982 594 1031 q 534 852 594 897 q 386 807 474 807 q 239 852 299 807 q 179 982 179 897 q 201 1050 179 1031 q 247 1069 224 1069 q 301 1049 283 1069 q 313 988 319 1028 q 328 949 310 967 q 386 931 347 931 q 444 949 426 931 q 460 988 463 967 z "},"ģ":{"ha":775,"x_min":44,"x_max":792,"o":"m 686 -85 q 575 -261 686 -203 q 257 -319 464 -319 q 101 -292 150 -319 q 51 -208 51 -265 q 74 -155 51 -168 q 133 -142 96 -142 q 181 -145 161 -142 q 223 -152 200 -149 q 281 -156 246 -156 q 438 -139 390 -156 q 486 -71 486 -122 q 451 -1 486 -28 q 364 25 417 25 q 44 365 44 25 q 125 622 44 539 q 365 706 206 706 q 540 669 471 706 q 682 794 574 794 q 763 767 735 794 q 792 689 792 740 q 764 621 792 642 q 675 600 736 600 q 626 596 649 600 q 686 364 686 513 q 659 210 686 271 q 560 108 632 149 q 658 31 629 83 q 686 -85 686 -21 m 244 365 q 365 192 244 192 q 486 365 486 192 q 456 497 486 456 q 365 539 426 539 q 275 497 306 539 q 244 365 244 456 m 407 1160 q 442 1153 429 1163 q 458 1129 456 1144 q 458 1115 458 1125 q 457 1080 458 1104 q 451 1010 456 1056 q 438 894 446 965 q 415 844 433 861 q 374 824 397 826 q 322 835 347 819 q 293 879 297 850 q 297 915 290 894 l 358 1108 q 370 1138 363 1121 q 407 1160 378 1156 z "},"ġ":{"ha":775,"x_min":44,"x_max":792,"o":"m 686 -85 q 575 -261 686 -203 q 257 -319 464 -319 q 101 -292 150 -319 q 51 -208 51 -265 q 74 -155 51 -168 q 133 -142 96 -142 q 181 -145 161 -142 q 223 -152 200 -149 q 281 -156 246 -156 q 438 -139 390 -156 q 486 -71 486 -122 q 451 -1 486 -28 q 364 25 417 25 q 44 365 44 25 q 125 622 44 539 q 365 706 206 706 q 540 669 471 706 q 682 794 574 794 q 763 767 735 794 q 792 689 792 740 q 764 621 792 642 q 675 600 736 600 q 626 596 649 600 q 686 364 686 513 q 659 210 686 271 q 560 108 632 149 q 658 31 629 83 q 686 -85 686 -21 m 244 365 q 365 192 244 192 q 486 365 486 192 q 456 497 486 456 q 365 539 426 539 q 275 497 306 539 q 244 365 244 456 m 388 825 q 301 858 336 825 q 267 940 267 892 q 301 1025 267 992 q 388 1058 336 1058 q 474 1025 440 1058 q 508 940 508 992 q 474 858 508 892 q 388 825 440 825 z "},"h":{"ha":790,"x_min":83,"x_max":706,"o":"m 283 82 q 186 -11 283 -11 q 111 13 139 -11 q 83 82 83 36 l 83 950 q 185 1058 83 1058 q 285 950 285 1058 l 285 801 q 276 726 285 763 q 249 651 268 690 q 311 693 272 681 q 401 706 350 706 q 561 669 493 706 q 667 569 629 633 q 706 415 706 504 l 706 82 q 608 -11 706 -11 q 533 13 561 -11 q 506 82 506 36 l 506 407 q 476 506 506 472 q 393 539 446 539 q 313 505 342 539 q 283 407 283 471 l 283 82 z "},"ħ":{"ha":790,"x_min":-36,"x_max":706,"o":"m 283 82 q 186 -11 283 -11 q 111 13 139 -11 q 83 82 83 36 l 83 950 q 185 1058 83 1058 q 285 950 285 1058 l 285 801 q 276 726 285 763 q 249 651 268 690 q 311 693 272 681 q 401 706 350 706 q 561 669 493 706 q 667 569 629 633 q 706 415 706 504 l 706 82 q 608 -11 706 -11 q 533 13 561 -11 q 506 82 506 36 l 506 407 q 476 506 506 472 q 393 539 446 539 q 313 505 342 539 q 283 407 283 471 l 283 82 m 58 789 q -10 806 15 789 q -36 861 -36 822 q -10 917 -36 900 q 58 933 15 933 l 333 933 q 403 917 378 933 q 428 861 428 900 q 403 806 428 822 q 333 789 378 789 l 58 789 z "},"i":{"ha":375,"x_min":67,"x_max":308,"o":"m 188 825 q 101 858 136 825 q 67 940 67 892 q 101 1025 67 992 q 188 1058 136 1058 q 274 1025 240 1058 q 308 940 308 992 q 274 858 308 892 q 188 825 240 825 m 288 82 q 190 -11 288 -11 q 115 12 143 -11 q 88 82 88 35 l 88 611 q 110 681 88 656 q 188 706 133 706 q 265 681 242 706 q 288 611 288 656 l 288 82 z "},"ı":{"ha":375,"x_min":88,"x_max":288,"o":"m 188 -11 q 110 15 133 -11 q 88 83 88 40 l 88 611 q 110 681 88 656 q 188 706 133 706 q 265 681 242 706 q 288 611 288 656 l 288 83 q 265 15 288 40 q 188 -11 242 -11 z "},"í":{"ha":375,"x_min":-24,"x_max":357,"o":"m 188 -11 q 110 15 133 -11 q 88 83 88 40 l 88 611 q 110 681 88 656 q 188 706 133 706 q 265 681 242 706 q 288 611 288 656 l 288 83 q 265 15 288 40 q 188 -11 242 -11 m 26 800 q -8 815 8 800 q -24 847 -24 829 q -17 869 -24 858 q 8 890 -10 881 q 39 909 14 893 q 99 948 64 925 q 173 996 135 971 q 242 1043 211 1021 q 263 1053 253 1050 q 281 1056 272 1056 q 335 1028 314 1056 q 357 964 357 1000 q 340 917 357 938 q 285 878 324 897 q 223 852 261 865 q 144 827 185 839 q 71 808 103 815 q 26 800 39 800 z "},"î":{"ha":375,"x_min":-51,"x_max":425,"o":"m 188 -11 q 110 15 133 -11 q 88 83 88 40 l 88 611 q 110 681 88 656 q 188 706 133 706 q 265 681 242 706 q 288 611 288 656 l 288 83 q 265 15 288 40 q 188 -11 242 -11 m 257 1026 l 354 976 q 425 893 425 942 q 403 838 425 858 q 350 817 382 817 q 311 829 332 817 l 186 908 l 61 829 q 22 817 40 817 q -31 838 -10 817 q -51 893 -51 858 q 18 976 -51 943 l 115 1026 q 166 1047 146 1042 q 207 1047 186 1051 q 257 1026 228 1042 z "},"ï":{"ha":375,"x_min":-53,"x_max":426,"o":"m 188 -11 q 110 15 133 -11 q 88 83 88 40 l 88 611 q 110 681 88 656 q 188 706 133 706 q 265 681 242 706 q 288 611 288 656 l 288 83 q 265 15 288 40 q 188 -11 242 -11 m 42 836 q -27 862 -1 836 q -53 928 -53 888 q -27 995 -53 969 q 42 1021 -1 1021 q 109 995 83 1021 q 135 928 135 969 q 109 862 135 888 q 42 836 83 836 m 332 836 q 264 862 289 836 q 239 928 239 888 q 264 995 239 969 q 332 1021 289 1021 q 400 995 374 1021 q 426 928 426 969 q 400 862 426 888 q 332 836 374 836 z "},"ì":{"ha":375,"x_min":18,"x_max":399,"o":"m 188 -11 q 110 15 133 -11 q 88 83 88 40 l 88 611 q 110 681 88 656 q 188 706 133 706 q 265 681 242 706 q 288 611 288 656 l 288 83 q 265 15 288 40 q 188 -11 242 -11 m 349 800 q 304 808 336 800 q 231 827 272 815 q 152 852 190 839 q 90 878 114 865 q 35 917 51 897 q 18 964 18 938 q 40 1028 18 1000 q 94 1056 61 1056 q 113 1053 103 1056 q 133 1043 124 1050 q 203 996 165 1021 q 276 948 240 971 q 336 909 311 925 q 367 890 361 893 q 392 869 385 881 q 399 847 399 858 q 383 815 399 829 q 349 800 368 800 z "},"ī":{"ha":375,"x_min":-36,"x_max":411,"o":"m 188 -11 q 110 15 133 -11 q 88 83 88 40 l 88 611 q 110 681 88 656 q 188 706 133 706 q 265 681 242 706 q 288 611 288 656 l 288 83 q 265 15 288 40 q 188 -11 242 -11 m 35 819 q -17 837 3 819 q -36 893 -36 854 q -17 949 -36 932 q 35 965 3 965 l 340 965 q 392 949 372 965 q 411 893 411 932 q 392 837 411 854 q 340 819 372 819 l 35 819 z "},"į":{"ha":375,"x_min":21,"x_max":319,"o":"m 188 825 q 101 858 136 825 q 67 940 67 892 q 101 1025 67 992 q 188 1058 136 1058 q 274 1025 240 1058 q 308 940 308 992 q 274 858 308 892 q 188 825 240 825 m 243 -356 q 83 -310 146 -356 q 21 -194 21 -265 q 124 4 21 -64 q 88 83 88 26 l 88 611 q 110 681 88 656 q 188 706 133 706 q 265 681 242 706 q 288 611 288 656 l 288 83 q 243 0 288 21 q 172 -72 199 -31 q 144 -142 144 -114 q 176 -194 144 -174 q 264 -218 208 -214 q 305 -236 290 -219 q 319 -279 319 -253 q 298 -334 319 -312 q 243 -356 276 -356 z "},"ĳ":{"ha":744,"x_min":67,"x_max":678,"o":"m 188 825 q 101 858 136 825 q 67 940 67 892 q 101 1025 67 992 q 188 1058 136 1058 q 274 1025 240 1058 q 308 940 308 992 q 274 858 308 892 q 188 825 240 825 m 288 82 q 190 -11 288 -11 q 115 12 143 -11 q 88 82 88 35 l 88 611 q 110 681 88 656 q 188 706 133 706 q 265 681 242 706 q 288 611 288 656 l 288 82 m 557 825 q 471 858 506 825 q 436 940 436 892 q 471 1025 436 992 q 557 1058 506 1058 q 644 1025 610 1058 q 678 940 678 992 q 644 858 678 892 q 557 825 610 825 m 558 708 q 635 677 613 708 q 658 599 658 646 l 658 39 q 590 -219 658 -121 q 376 -319 521 -318 l 361 -319 q 197 -287 249 -317 q 146 -194 146 -257 q 170 -134 146 -149 q 238 -119 194 -119 q 301 -126 275 -119 q 367 -135 328 -132 l 375 -135 q 447 -92 431 -135 q 464 11 464 -50 l 464 599 q 488 682 464 656 q 558 708 513 708 z "},"j":{"ha":369,"x_min":-229,"x_max":303,"o":"m 182 825 q 96 858 131 825 q 61 940 61 892 q 96 1025 61 992 q 182 1058 131 1058 q 269 1025 235 1058 q 303 940 303 992 q 269 858 303 892 q 182 825 235 825 m 183 708 q 260 677 238 708 q 283 599 283 646 l 283 39 q 215 -219 283 -121 q 1 -319 146 -318 l -14 -319 q -178 -287 -126 -317 q -229 -194 -229 -257 q -205 -134 -229 -149 q -137 -119 -181 -119 q -74 -126 -100 -119 q -8 -135 -47 -132 l 0 -135 q 72 -92 56 -135 q 89 11 89 -50 l 89 599 q 113 682 89 656 q 183 708 138 708 z "},"ȷ":{"ha":369,"x_min":-167,"x_max":282,"o":"m -4 -319 q -128 -300 -89 -319 q -167 -224 -167 -281 q -147 -169 -167 -182 q -91 -156 -128 -156 q -1 -157 -54 -157 q 55 -133 36 -157 q 81 -69 74 -108 q 88 10 88 -31 l 88 596 q 112 679 88 653 q 182 706 136 706 q 259 674 236 706 q 282 596 282 643 l 282 38 q 212 -222 282 -124 q -4 -319 142 -319 z "},"k":{"ha":764,"x_min":83,"x_max":708,"o":"m 183 -11 q 106 18 129 -11 q 83 97 83 47 l 83 950 q 106 1029 83 1000 q 183 1058 129 1058 q 260 1029 238 1058 q 283 950 283 1000 l 283 433 q 414 534 357 478 q 492 642 471 590 q 547 706 511 689 q 626 701 583 722 q 682 613 686 672 q 637 501 681 563 q 529 394 593 439 q 659 294 610 367 q 708 83 708 221 q 610 -11 708 -11 q 508 83 508 -11 q 476 232 508 185 q 392 279 444 279 q 313 243 343 279 q 283 118 283 207 q 260 13 283 38 q 183 -11 236 -11 z "},"ķ":{"ha":764,"x_min":83,"x_max":708,"o":"m 183 -11 q 106 18 129 -11 q 83 97 83 47 l 83 950 q 106 1029 83 1000 q 183 1058 129 1058 q 260 1029 238 1058 q 283 950 283 1000 l 283 433 q 414 534 357 478 q 492 642 471 590 q 547 706 511 689 q 626 701 583 722 q 682 613 686 672 q 637 501 681 563 q 529 394 593 439 q 659 294 610 367 q 708 83 708 221 q 610 -11 708 -11 q 508 83 508 -11 q 476 232 508 185 q 392 279 444 279 q 313 243 343 279 q 283 118 283 207 q 260 13 283 38 q 183 -11 236 -11 m 328 -382 q 291 -374 304 -383 q 276 -349 278 -364 q 276 -335 276 -344 q 280 -301 276 -325 q 290 -235 283 -278 q 311 -122 297 -192 q 338 -74 318 -90 q 381 -57 357 -58 q 433 -69 408 -54 q 461 -114 458 -85 q 456 -149 463 -129 l 381 -335 q 366 -362 375 -346 q 328 -382 357 -379 z "},"l":{"ha":381,"x_min":90,"x_max":290,"o":"m 290 82 q 193 -11 290 -11 q 118 13 146 -11 q 90 82 90 36 l 90 950 q 113 1029 90 1000 q 190 1058 136 1058 q 267 1029 244 1058 q 290 950 290 1000 l 290 82 z "},"ĺ":{"ha":381,"x_min":-21,"x_max":360,"o":"m 290 82 q 193 -11 290 -11 q 118 13 146 -11 q 90 82 90 36 l 90 950 q 113 1029 90 1000 q 190 1058 136 1058 q 267 1029 244 1058 q 290 950 290 1000 l 290 82 m 29 1147 q -5 1162 11 1147 q -21 1194 -21 1176 q -14 1217 -21 1206 q 11 1238 -7 1228 q 42 1256 17 1240 q 102 1295 67 1272 q 176 1343 138 1318 q 244 1390 214 1368 q 265 1400 256 1397 q 283 1403 275 1403 q 338 1375 317 1403 q 360 1311 360 1347 q 343 1265 360 1285 q 288 1225 326 1244 q 226 1199 264 1213 q 147 1174 188 1186 q 74 1155 106 1163 q 29 1147 42 1147 z "},"ľ":{"ha":483,"x_min":88,"x_max":518,"o":"m 288 82 q 190 -11 288 -11 q 115 13 143 -11 q 88 82 88 36 l 88 950 q 110 1029 88 1000 q 188 1058 133 1058 q 265 1029 242 1058 q 288 950 288 1000 l 288 82 m 433 754 q 399 733 419 735 q 368 743 382 732 q 353 761 358 751 q 349 793 349 771 q 354 848 349 789 q 368 1003 360 907 q 392 1046 369 1029 q 439 1064 414 1063 q 488 1052 465 1067 q 515 1000 511 1038 q 505 917 518 965 q 472 825 492 869 q 433 754 451 781 z "},"ļ":{"ha":381,"x_min":85,"x_max":290,"o":"m 290 82 q 193 -11 290 -11 q 118 13 146 -11 q 90 82 90 36 l 90 950 q 113 1029 90 1000 q 190 1058 136 1058 q 267 1029 244 1058 q 290 950 290 1000 l 290 82 m 136 -382 q 99 -374 113 -383 q 85 -349 86 -364 q 85 -335 85 -344 q 88 -301 85 -325 q 99 -235 92 -278 q 119 -122 106 -192 q 146 -74 126 -90 q 189 -57 165 -58 q 242 -69 217 -54 q 269 -114 267 -85 q 264 -149 271 -129 l 189 -335 q 174 -362 183 -346 q 136 -382 165 -379 z "},"ł":{"ha":540,"x_min":10,"x_max":540,"o":"m 367 82 q 269 -11 367 -11 q 194 13 222 -11 q 167 82 167 36 l 167 454 l 133 443 q 63 438 92 429 q 21 483 33 446 q 28 543 10 519 q 89 581 47 567 l 167 606 l 167 950 q 190 1029 167 1000 q 267 1058 213 1058 q 344 1029 321 1058 q 367 950 367 1000 l 367 671 l 417 688 q 488 693 458 701 q 529 647 517 685 q 522 588 540 611 q 461 550 503 564 l 367 519 l 367 82 z "},"m":{"ha":1158,"x_min":85,"x_max":1074,"o":"m 185 -11 q 85 83 85 -11 l 85 417 q 152 632 85 558 q 346 706 219 706 q 579 582 518 706 q 813 706 640 706 q 1006 632 939 706 q 1074 417 1074 558 l 1074 83 q 974 -11 1074 -11 q 874 83 874 -11 l 874 406 q 850 508 874 476 q 776 539 826 539 q 676 406 676 539 l 676 89 q 579 -6 676 -6 q 482 89 482 -6 l 482 406 q 382 539 482 539 q 285 406 285 539 l 285 83 q 185 -11 285 -11 z "},"n":{"ha":792,"x_min":85,"x_max":707,"o":"m 185 -11 q 85 83 85 -11 l 85 417 q 170 628 85 550 q 396 706 256 706 q 622 628 536 706 q 707 417 707 550 l 707 83 q 607 -11 707 -11 q 507 83 507 -11 l 507 406 q 478 505 507 471 q 396 539 449 539 q 314 505 343 539 q 285 406 285 471 l 285 83 q 185 -11 285 -11 z "},"ń":{"ha":792,"x_min":85,"x_max":707,"o":"m 185 -11 q 85 83 85 -11 l 85 417 q 170 628 85 550 q 396 706 256 706 q 622 628 536 706 q 707 417 707 550 l 707 83 q 607 -11 707 -11 q 507 83 507 -11 l 507 406 q 478 505 507 471 q 396 539 449 539 q 314 505 343 539 q 285 406 285 471 l 285 83 q 185 -11 285 -11 m 235 800 q 201 815 217 800 q 185 847 185 829 q 192 869 185 858 q 217 890 199 881 q 247 909 222 893 q 308 948 272 925 q 381 996 343 971 q 450 1043 419 1021 q 471 1053 461 1050 q 489 1056 481 1056 q 544 1028 522 1056 q 565 964 565 1000 q 549 917 565 938 q 493 878 532 897 q 431 852 469 865 q 352 827 393 839 q 279 808 311 815 q 235 800 247 800 z "},"ň":{"ha":792,"x_min":85,"x_max":707,"o":"m 185 -11 q 85 83 85 -11 l 85 417 q 170 628 85 550 q 396 706 256 706 q 622 628 536 706 q 707 417 707 550 l 707 83 q 607 -11 707 -11 q 507 83 507 -11 l 507 406 q 478 505 507 471 q 396 539 449 539 q 314 505 343 539 q 285 406 285 471 l 285 83 q 185 -11 285 -11 m 467 840 q 417 821 438 826 q 376 820 396 815 q 325 840 356 825 l 228 890 q 158 974 158 924 q 179 1030 158 1010 q 232 1050 200 1050 q 271 1038 250 1050 l 396 958 l 521 1038 q 560 1050 542 1050 q 613 1030 592 1050 q 635 974 635 1010 q 564 890 635 925 l 467 840 z "},"ņ":{"ha":792,"x_min":85,"x_max":707,"o":"m 185 -11 q 85 83 85 -11 l 85 417 q 170 628 85 550 q 396 706 256 706 q 622 628 536 706 q 707 417 707 550 l 707 83 q 607 -11 707 -11 q 507 83 507 -11 l 507 406 q 478 505 507 471 q 396 539 449 539 q 314 505 343 539 q 285 406 285 471 l 285 83 q 185 -11 285 -11 m 342 -382 q 305 -374 318 -383 q 290 -349 292 -364 q 290 -335 290 -344 q 294 -301 290 -325 q 304 -235 297 -278 q 325 -122 311 -192 q 351 -74 332 -90 q 394 -57 371 -58 q 447 -69 422 -54 q 475 -114 472 -85 q 469 -149 476 -129 l 394 -335 q 380 -362 389 -346 q 342 -382 371 -379 z "},"ñ":{"ha":792,"x_min":85,"x_max":707,"o":"m 185 -11 q 85 83 85 -11 l 85 417 q 170 628 85 550 q 396 706 256 706 q 622 628 536 706 q 707 417 707 550 l 707 83 q 607 -11 707 -11 q 507 83 507 -11 l 507 406 q 478 505 507 471 q 396 539 449 539 q 314 505 343 539 q 285 406 285 471 l 285 83 q 185 -11 285 -11 m 207 794 q 154 812 171 794 q 138 853 138 829 q 157 913 138 882 q 213 966 176 944 q 299 988 250 988 q 372 974 347 988 q 421 947 397 961 q 452 930 436 938 q 483 922 468 922 q 515 932 504 922 q 534 954 526 942 q 553 976 542 967 q 585 986 564 986 q 638 969 621 986 q 654 928 654 951 q 635 868 654 900 q 579 815 615 836 q 493 793 543 793 q 421 806 446 793 q 371 833 396 819 q 340 850 356 842 q 308 858 324 858 q 276 849 288 858 q 258 826 265 839 q 239 804 250 814 q 207 794 228 794 z "},"ŋ":{"ha":792,"x_min":85,"x_max":707,"o":"m 185 -11 q 85 83 85 -11 l 85 417 q 170 628 85 550 q 396 706 256 706 q 622 628 536 706 q 707 417 707 550 l 707 83 q 607 -11 707 -11 q 507 83 507 -11 l 507 406 q 478 505 507 471 q 396 539 449 539 q 314 505 343 539 q 285 406 285 471 l 285 83 q 185 -11 285 -11 z "},"o":{"ha":739,"x_min":49,"x_max":690,"o":"m 369 -11 q 135 74 221 -11 q 49 347 49 158 q 135 622 49 538 q 369 706 221 706 q 604 622 518 706 q 690 347 690 538 q 604 74 690 158 q 369 -11 518 -11 m 369 156 q 435 172 408 156 q 476 229 461 188 q 490 347 490 271 q 476 465 490 424 q 435 523 461 507 q 369 539 408 539 q 305 523 332 539 q 263 465 278 507 q 249 347 249 424 q 263 229 249 271 q 305 172 278 188 q 369 156 332 156 z "},"ó":{"ha":739,"x_min":49,"x_max":690,"o":"m 369 -11 q 135 74 221 -11 q 49 347 49 158 q 135 622 49 538 q 369 706 221 706 q 604 622 518 706 q 690 347 690 538 q 604 74 690 158 q 369 -11 518 -11 m 369 156 q 435 172 408 156 q 476 229 461 188 q 490 347 490 271 q 476 465 490 424 q 435 523 461 507 q 369 539 408 539 q 305 523 332 539 q 263 465 278 507 q 249 347 249 424 q 263 229 249 271 q 305 172 278 188 q 369 156 332 156 m 208 800 q 174 815 190 800 q 158 847 158 829 q 165 869 158 858 q 190 890 172 881 q 221 909 196 893 q 281 948 246 925 q 355 996 317 971 q 424 1043 393 1021 q 444 1053 435 1050 q 463 1056 454 1056 q 517 1028 496 1056 q 539 964 539 1000 q 522 917 539 938 q 467 878 506 897 q 405 852 443 865 q 326 827 367 839 q 253 808 285 815 q 208 800 221 800 z "},"ô":{"ha":739,"x_min":49,"x_max":690,"o":"m 369 -11 q 135 74 221 -11 q 49 347 49 158 q 135 622 49 538 q 369 706 221 706 q 604 622 518 706 q 690 347 690 538 q 604 74 690 158 q 369 -11 518 -11 m 369 156 q 435 172 408 156 q 476 229 461 188 q 490 347 490 271 q 476 465 490 424 q 435 523 461 507 q 369 539 408 539 q 305 523 332 539 q 263 465 278 507 q 249 347 249 424 q 263 229 249 271 q 305 172 278 188 q 369 156 332 156 m 439 1026 l 536 976 q 607 893 607 942 q 585 838 607 858 q 532 817 564 817 q 493 829 514 817 l 368 908 l 243 829 q 204 817 222 817 q 151 838 172 817 q 131 893 131 858 q 200 976 131 943 l 297 1026 q 348 1047 328 1042 q 389 1047 368 1051 q 439 1026 410 1042 z "},"ö":{"ha":739,"x_min":49,"x_max":690,"o":"m 369 -11 q 135 74 221 -11 q 49 347 49 158 q 135 622 49 538 q 369 706 221 706 q 604 622 518 706 q 690 347 690 538 q 604 74 690 158 q 369 -11 518 -11 m 369 156 q 435 172 408 156 q 476 229 461 188 q 490 347 490 271 q 476 465 490 424 q 435 523 461 507 q 369 539 408 539 q 305 523 332 539 q 263 465 278 507 q 249 347 249 424 q 263 229 249 271 q 305 172 278 188 q 369 156 332 156 m 224 836 q 155 862 181 836 q 129 928 129 888 q 155 995 129 969 q 224 1021 181 1021 q 291 995 265 1021 q 317 928 317 969 q 291 862 317 888 q 224 836 265 836 m 514 836 q 446 862 471 836 q 421 928 421 888 q 446 995 421 969 q 514 1021 471 1021 q 582 995 556 1021 q 608 928 608 969 q 582 862 608 888 q 514 836 556 836 z "},"ò":{"ha":739,"x_min":49,"x_max":690,"o":"m 369 -11 q 135 74 221 -11 q 49 347 49 158 q 135 622 49 538 q 369 706 221 706 q 604 622 518 706 q 690 347 690 538 q 604 74 690 158 q 369 -11 518 -11 m 369 156 q 435 172 408 156 q 476 229 461 188 q 490 347 490 271 q 476 465 490 424 q 435 523 461 507 q 369 539 408 539 q 305 523 332 539 q 263 465 278 507 q 249 347 249 424 q 263 229 249 271 q 305 172 278 188 q 369 156 332 156 m 531 800 q 486 808 518 800 q 413 827 454 815 q 334 852 372 839 q 272 878 296 865 q 217 917 233 897 q 200 964 200 938 q 222 1028 200 1000 q 276 1056 243 1056 q 295 1053 285 1056 q 315 1043 306 1050 q 385 996 347 1021 q 458 948 422 971 q 518 909 493 925 q 549 890 543 893 q 574 869 567 881 q 581 847 581 858 q 565 815 581 829 q 531 800 550 800 z "},"ő":{"ha":739,"x_min":49,"x_max":690,"o":"m 369 -11 q 135 74 221 -11 q 49 347 49 158 q 135 622 49 538 q 369 706 221 706 q 604 622 518 706 q 690 347 690 538 q 604 74 690 158 q 369 -11 518 -11 m 369 156 q 435 172 408 156 q 476 229 461 188 q 490 347 490 271 q 476 465 490 424 q 435 523 461 507 q 369 539 408 539 q 305 523 332 539 q 263 465 278 507 q 249 347 249 424 q 263 229 249 271 q 305 172 278 188 q 369 156 332 156 m 272 767 q 240 760 261 758 q 211 775 219 763 q 211 817 200 792 q 230 858 215 824 q 263 939 244 893 q 293 1022 281 985 q 302 1038 297 1032 q 313 1047 307 1043 q 365 1054 335 1063 q 413 1022 396 1046 q 404 935 435 989 q 376 890 394 917 q 336 838 357 864 q 298 792 315 811 q 272 767 281 772 m 475 767 q 443 760 464 758 q 414 775 422 763 q 414 817 403 792 q 433 858 418 824 q 465 939 447 893 q 496 1022 483 985 q 505 1038 500 1032 q 515 1047 510 1043 q 568 1054 538 1063 q 615 1022 599 1046 q 607 935 638 989 q 578 890 597 917 q 539 838 560 864 q 501 792 518 811 q 475 767 483 772 z "},"ō":{"ha":739,"x_min":49,"x_max":690,"o":"m 369 -11 q 135 74 221 -11 q 49 347 49 158 q 135 622 49 538 q 369 706 221 706 q 604 622 518 706 q 690 347 690 538 q 604 74 690 158 q 369 -11 518 -11 m 369 156 q 435 172 408 156 q 476 229 461 188 q 490 347 490 271 q 476 465 490 424 q 435 523 461 507 q 369 539 408 539 q 305 523 332 539 q 263 465 278 507 q 249 347 249 424 q 263 229 249 271 q 305 172 278 188 q 369 156 332 156 m 217 819 q 165 837 185 819 q 146 893 146 854 q 165 949 146 932 q 217 965 185 965 l 522 965 q 574 949 554 965 q 593 893 593 932 q 574 837 593 854 q 522 819 554 819 l 217 819 z "},"ø":{"ha":739,"x_min":49,"x_max":690,"o":"m 164 -28 q 108 -10 129 -28 q 88 35 88 7 q 96 63 88 49 l 117 94 q 66 200 83 138 q 49 347 49 263 q 135 624 49 538 q 369 710 221 710 q 514 685 451 710 l 515 688 q 582 729 543 729 q 654 669 654 729 q 642 626 654 649 l 624 599 q 674 493 657 556 q 690 347 690 431 q 604 74 690 158 q 369 -11 518 -11 q 229 11 290 -11 q 164 -28 204 -28 m 229 347 q 243 225 229 272 l 456 542 q 417 563 439 557 q 369 569 394 569 q 295 550 326 569 q 247 482 264 531 q 229 347 229 433 m 369 129 q 444 147 413 129 q 492 213 475 165 q 510 347 510 261 q 500 454 510 410 l 294 147 q 330 133 311 138 q 369 129 349 129 z "},"õ":{"ha":739,"x_min":49,"x_max":690,"o":"m 369 -11 q 135 74 221 -11 q 49 347 49 158 q 135 622 49 538 q 369 706 221 706 q 604 622 518 706 q 690 347 690 538 q 604 74 690 158 q 369 -11 518 -11 m 369 156 q 435 172 408 156 q 476 229 461 188 q 490 347 490 271 q 476 465 490 424 q 435 523 461 507 q 369 539 408 539 q 305 523 332 539 q 263 465 278 507 q 249 347 249 424 q 263 229 249 271 q 305 172 278 188 q 369 156 332 156 m 181 794 q 128 812 144 794 q 111 853 111 829 q 131 913 111 882 q 187 966 150 944 q 272 988 224 988 q 346 974 321 988 q 394 947 371 961 q 426 930 410 938 q 457 922 442 922 q 489 932 478 922 q 508 954 500 942 q 526 976 515 967 q 558 986 538 986 q 611 969 594 986 q 628 928 628 951 q 608 868 628 900 q 553 815 589 836 q 467 793 517 793 q 394 806 419 793 q 344 833 369 819 q 313 850 329 842 q 282 858 297 858 q 250 849 261 858 q 231 826 239 839 q 213 804 224 814 q 181 794 201 794 z "},"œ":{"ha":1143,"x_min":49,"x_max":1104,"o":"m 369 -11 q 135 74 221 -11 q 49 347 49 158 q 135 622 49 538 q 369 706 221 706 q 604 622 518 706 q 690 347 690 538 q 604 74 690 158 q 369 -11 518 -11 m 369 156 q 435 172 408 156 q 476 229 461 188 q 490 347 490 271 q 476 465 490 424 q 435 523 461 507 q 369 539 408 539 q 305 523 332 539 q 263 465 278 507 q 249 347 249 424 q 263 229 249 271 q 305 172 278 188 q 369 156 332 156 m 858 -11 q 641 35 719 -11 q 530 161 563 81 q 497 346 497 242 q 582 622 497 538 q 810 706 667 706 q 963 676 896 706 q 1067 594 1029 647 q 1104 464 1104 540 q 788 242 1104 242 l 707 242 q 744 174 718 199 q 835 150 769 150 q 893 154 871 150 q 935 163 915 158 q 982 167 956 167 q 1042 153 1019 167 q 1064 100 1064 140 q 1015 16 1064 43 q 858 -11 965 -11 m 697 344 q 722 365 708 360 q 765 369 736 369 q 878 385 847 369 q 910 443 910 401 q 881 524 910 496 q 807 553 851 553 q 726 510 756 553 q 697 344 697 467 z "},"p":{"ha":781,"x_min":86,"x_max":732,"o":"m 188 -319 q 86 -211 86 -319 l 86 336 q 169 618 86 525 q 403 711 253 711 q 644 614 556 711 q 732 329 732 517 q 696 130 732 204 q 596 22 660 56 q 449 -11 532 -11 q 330 10 376 -11 q 257 74 283 31 q 272 19 267 46 q 278 -42 276 -7 q 281 -131 281 -76 l 281 -211 q 188 -319 281 -319 m 413 151 q 503 192 471 151 q 536 347 536 233 q 503 502 536 461 q 413 543 471 543 q 322 502 354 543 q 289 347 289 461 q 322 192 289 233 q 413 151 354 151 z "},"þ":{"ha":785,"x_min":90,"x_max":736,"o":"m 192 -319 q 90 -211 90 -319 l 90 951 q 183 1060 90 1060 q 285 951 285 1060 l 285 650 q 338 692 303 674 q 433 711 374 711 q 651 614 567 711 q 736 329 736 517 q 700 130 736 204 q 600 22 664 56 q 453 -11 536 -11 q 334 10 381 -11 q 261 74 288 31 q 276 19 271 46 q 283 -42 281 -7 q 285 -131 285 -76 l 285 -211 q 192 -319 285 -319 m 417 151 q 508 192 475 151 q 540 347 540 233 q 508 502 540 461 q 417 543 475 543 q 326 502 358 543 q 293 347 293 461 q 326 192 293 233 q 417 151 358 151 z "},"q":{"ha":769,"x_min":49,"x_max":694,"o":"m 593 -319 q 500 -211 500 -319 l 500 -131 q 502 -42 500 -76 q 509 19 504 -7 q 524 74 514 46 q 451 10 497 31 q 332 -11 406 -11 q 185 22 250 -11 q 85 130 121 56 q 49 329 49 204 q 137 614 49 517 q 378 711 225 711 q 611 617 528 711 q 694 336 694 524 l 694 -211 q 593 -319 694 -319 m 368 151 q 459 192 426 151 q 492 347 492 233 q 459 502 492 461 q 368 543 426 543 q 277 502 310 543 q 244 347 244 461 q 277 192 244 233 q 368 151 310 151 z "},"r":{"ha":579,"x_min":85,"x_max":579,"o":"m 185 -11 q 85 83 85 -11 l 85 610 q 185 706 85 706 q 257 684 235 706 q 279 614 279 663 q 351 683 304 660 q 460 706 397 706 q 579 601 579 706 q 550 543 579 563 q 454 524 521 524 q 351 512 389 524 q 299 469 314 500 q 285 379 285 438 l 285 83 q 185 -11 285 -11 z "},"ŕ":{"ha":579,"x_min":79,"x_max":579,"o":"m 185 -11 q 85 83 85 -11 l 85 610 q 185 706 85 706 q 257 684 235 706 q 279 614 279 663 q 351 683 304 660 q 460 706 397 706 q 579 601 579 706 q 550 543 579 563 q 454 524 521 524 q 351 512 389 524 q 299 469 314 500 q 285 379 285 438 l 285 83 q 185 -11 285 -11 m 129 800 q 95 815 111 800 q 79 847 79 829 q 86 869 79 858 q 111 890 93 881 q 142 909 117 893 q 202 948 167 925 q 276 996 238 971 q 344 1043 314 1021 q 365 1053 356 1050 q 383 1056 375 1056 q 438 1028 417 1056 q 460 964 460 1000 q 443 917 460 938 q 388 878 426 897 q 326 852 364 865 q 247 827 288 839 q 174 808 206 815 q 129 800 142 800 z "},"ř":{"ha":579,"x_min":53,"x_max":579,"o":"m 185 -11 q 85 83 85 -11 l 85 610 q 185 706 85 706 q 257 684 235 706 q 279 614 279 663 q 351 683 304 660 q 460 706 397 706 q 579 601 579 706 q 550 543 579 563 q 454 524 521 524 q 351 512 389 524 q 299 469 314 500 q 285 379 285 438 l 285 83 q 185 -11 285 -11 m 361 840 q 311 821 332 826 q 270 820 290 815 q 219 840 250 825 l 122 890 q 53 974 53 924 q 74 1030 53 1010 q 126 1050 94 1050 q 165 1038 144 1050 l 290 958 l 415 1038 q 454 1050 436 1050 q 508 1030 486 1050 q 529 974 529 1010 q 458 890 529 925 l 361 840 z "},"ŗ":{"ha":579,"x_min":85,"x_max":579,"o":"m 185 -11 q 85 83 85 -11 l 85 610 q 185 706 85 706 q 257 684 235 706 q 279 614 279 663 q 351 683 304 660 q 460 706 397 706 q 579 601 579 706 q 550 543 579 563 q 454 524 521 524 q 351 512 389 524 q 299 469 314 500 q 285 379 285 438 l 285 83 q 185 -11 285 -11 m 136 -382 q 99 -374 113 -383 q 85 -349 86 -364 q 85 -335 85 -344 q 88 -301 85 -325 q 99 -235 92 -278 q 119 -122 106 -192 q 146 -74 126 -90 q 189 -57 165 -58 q 242 -69 217 -54 q 269 -114 267 -85 q 264 -149 271 -129 l 189 -335 q 174 -362 183 -346 q 136 -382 165 -379 z "},"s":{"ha":649,"x_min":53,"x_max":593,"o":"m 314 -11 q 53 104 53 -11 q 72 161 53 140 q 124 182 92 182 q 151 178 138 182 q 203 163 164 175 q 247 151 219 157 q 301 146 275 146 q 372 158 351 146 q 393 200 393 171 q 382 237 393 224 q 335 263 371 250 q 222 297 299 275 q 110 367 153 317 q 68 493 68 418 q 144 654 68 599 q 354 710 221 710 q 511 682 454 710 q 568 601 568 654 q 549 546 568 568 q 496 524 529 524 q 463 528 482 524 q 418 539 444 532 q 377 550 399 546 q 332 554 356 554 q 265 507 265 554 q 292 460 265 479 q 393 419 318 442 q 544 338 496 389 q 593 204 593 288 q 519 48 593 107 q 314 -11 444 -11 z "},"ś":{"ha":649,"x_min":53,"x_max":593,"o":"m 314 -11 q 53 104 53 -11 q 72 161 53 140 q 124 182 92 182 q 151 178 138 182 q 203 163 164 175 q 247 151 219 157 q 301 146 275 146 q 372 158 351 146 q 393 200 393 171 q 382 237 393 224 q 335 263 371 250 q 222 297 299 275 q 110 367 153 317 q 68 493 68 418 q 144 654 68 599 q 354 710 221 710 q 511 682 454 710 q 568 601 568 654 q 549 546 568 568 q 496 524 529 524 q 463 528 482 524 q 418 539 444 532 q 377 550 399 546 q 332 554 356 554 q 265 507 265 554 q 292 460 265 479 q 393 419 318 442 q 544 338 496 389 q 593 204 593 288 q 519 48 593 107 q 314 -11 444 -11 m 164 800 q 130 815 146 800 q 114 847 114 829 q 121 869 114 858 q 146 890 128 881 q 176 909 151 893 q 237 948 201 925 q 310 996 272 971 q 379 1043 349 1021 q 400 1053 390 1050 q 418 1056 410 1056 q 473 1028 451 1056 q 494 964 494 1000 q 478 917 494 938 q 422 878 461 897 q 360 852 399 865 q 281 827 322 839 q 208 808 240 815 q 164 800 176 800 z "},"š":{"ha":649,"x_min":53,"x_max":593,"o":"m 314 -11 q 53 104 53 -11 q 72 161 53 140 q 124 182 92 182 q 151 178 138 182 q 203 163 164 175 q 247 151 219 157 q 301 146 275 146 q 372 158 351 146 q 393 200 393 171 q 382 237 393 224 q 335 263 371 250 q 222 297 299 275 q 110 367 153 317 q 68 493 68 418 q 144 654 68 599 q 354 710 221 710 q 511 682 454 710 q 568 601 568 654 q 549 546 568 568 q 496 524 529 524 q 463 528 482 524 q 418 539 444 532 q 377 550 399 546 q 332 554 356 554 q 265 507 265 554 q 292 460 265 479 q 393 419 318 442 q 544 338 496 389 q 593 204 593 288 q 519 48 593 107 q 314 -11 444 -11 m 396 840 q 346 821 367 826 q 305 820 325 815 q 254 840 285 825 l 157 890 q 88 974 88 924 q 108 1030 88 1010 q 161 1050 129 1050 q 200 1038 179 1050 l 325 958 l 450 1038 q 489 1050 471 1050 q 542 1030 521 1050 q 564 974 564 1010 q 493 890 564 925 l 396 840 z "},"ş":{"ha":649,"x_min":53,"x_max":593,"o":"m 314 -11 q 53 104 53 -11 q 72 161 53 140 q 124 182 92 182 q 151 178 138 182 q 203 163 164 175 q 247 151 219 157 q 301 146 275 146 q 372 158 351 146 q 393 200 393 171 q 382 237 393 224 q 335 263 371 250 q 222 297 299 275 q 110 367 153 317 q 68 493 68 418 q 144 654 68 599 q 354 710 221 710 q 511 682 454 710 q 568 601 568 654 q 549 546 568 568 q 496 524 529 524 q 463 528 482 524 q 418 539 444 532 q 377 550 399 546 q 332 554 356 554 q 265 507 265 554 q 292 460 265 479 q 393 419 318 442 q 544 338 496 389 q 593 204 593 288 q 519 48 593 107 q 314 -11 444 -11 m 247 -328 q 153 -303 186 -325 q 122 -246 121 -282 q 138 -208 122 -224 q 179 -193 153 -192 q 213 -201 200 -193 q 247 -210 226 -208 q 317 -168 314 -211 q 290 -128 318 -144 q 221 -111 263 -112 q 194 -82 194 -108 q 206 -44 196 -69 q 233 9 217 -19 q 267 60 250 38 l 386 50 l 332 -54 q 405 -99 375 -60 q 433 -185 435 -137 q 381 -292 432 -254 q 247 -328 331 -331 z "},"ș":{"ha":649,"x_min":53,"x_max":593,"o":"m 314 -11 q 53 104 53 -11 q 72 161 53 140 q 124 182 92 182 q 151 178 138 182 q 203 163 164 175 q 247 151 219 157 q 301 146 275 146 q 372 158 351 146 q 393 200 393 171 q 382 237 393 224 q 335 263 371 250 q 222 297 299 275 q 110 367 153 317 q 68 493 68 418 q 144 654 68 599 q 354 710 221 710 q 511 682 454 710 q 568 601 568 654 q 549 546 568 568 q 496 524 529 524 q 463 528 482 524 q 418 539 444 532 q 377 550 399 546 q 332 554 356 554 q 265 507 265 554 q 292 460 265 479 q 393 419 318 442 q 544 338 496 389 q 593 204 593 288 q 519 48 593 107 q 314 -11 444 -11 m 229 -382 q 192 -374 206 -383 q 178 -349 179 -364 q 178 -335 178 -344 q 181 -301 178 -325 q 192 -235 185 -278 q 213 -122 199 -192 q 239 -74 219 -90 q 282 -57 258 -58 q 335 -69 310 -54 q 363 -114 360 -85 q 357 -149 364 -129 l 282 -335 q 267 -362 276 -346 q 229 -382 258 -379 z "},"ß":{"ha":833,"x_min":83,"x_max":778,"o":"m 186 -11 q 83 74 83 -11 l 83 735 q 168 975 83 892 q 413 1058 253 1058 q 652 981 569 1058 q 735 756 735 903 q 715 633 735 682 q 642 554 694 583 q 742 456 707 522 q 778 303 778 390 q 696 72 778 156 q 468 -11 614 -11 q 381 8 407 -11 q 356 72 356 26 q 381 136 356 117 q 461 156 406 156 q 558 186 532 156 q 583 301 583 217 q 550 428 583 383 q 454 474 517 474 q 378 494 406 474 q 351 551 351 514 q 376 611 351 593 q 454 629 400 629 q 518 654 499 629 q 538 735 538 679 q 508 854 538 817 q 413 892 478 892 q 314 854 344 892 q 283 735 283 817 l 283 82 q 260 11 283 33 q 186 -11 238 -11 z "},"t":{"ha":564,"x_min":17,"x_max":557,"o":"m 400 -11 q 209 50 271 -11 q 147 238 147 111 l 147 526 l 111 526 q 17 611 17 526 q 111 694 17 694 l 147 694 l 147 844 q 176 919 147 890 q 250 949 204 949 q 321 922 294 949 q 347 847 347 894 l 347 779 q 331 694 347 728 l 463 694 q 557 611 557 694 q 463 526 557 526 l 347 526 l 347 233 q 357 174 347 192 q 389 157 367 157 q 433 162 418 157 q 469 167 447 167 q 529 153 507 167 q 551 100 551 140 q 515 16 551 43 q 400 -11 479 -11 z "},"ť":{"ha":564,"x_min":17,"x_max":590,"o":"m 400 -11 q 209 50 271 -11 q 147 238 147 111 l 147 526 l 111 526 q 17 611 17 526 q 111 694 17 694 l 147 694 l 147 844 q 176 919 147 890 q 250 949 204 949 q 321 922 294 949 q 347 847 347 894 l 347 779 q 331 694 347 728 l 463 694 q 557 611 557 694 q 463 526 557 526 l 347 526 l 347 233 q 357 174 347 192 q 389 157 367 157 q 433 162 418 157 q 469 167 447 167 q 529 153 507 167 q 551 100 551 140 q 515 16 551 43 q 400 -11 479 -11 m 506 754 q 471 733 492 735 q 440 743 454 732 q 426 761 431 751 q 421 793 421 771 q 426 848 421 789 q 440 1003 432 907 q 464 1046 442 1029 q 511 1064 486 1063 q 560 1052 538 1067 q 588 1000 583 1038 q 577 917 590 965 q 544 825 564 869 q 506 754 524 781 z "},"ț":{"ha":564,"x_min":17,"x_max":557,"o":"m 400 -11 q 209 50 271 -11 q 147 238 147 111 l 147 526 l 111 526 q 17 611 17 526 q 111 694 17 694 l 147 694 l 147 844 q 176 919 147 890 q 250 949 204 949 q 321 922 294 949 q 347 847 347 894 l 347 779 q 331 694 347 728 l 463 694 q 557 611 557 694 q 463 526 557 526 l 347 526 l 347 233 q 357 174 347 192 q 389 157 367 157 q 433 162 418 157 q 469 167 447 167 q 529 153 507 167 q 551 100 551 140 q 515 16 551 43 q 400 -11 479 -11 m 256 -382 q 219 -374 232 -383 q 204 -349 206 -364 q 204 -335 204 -344 q 208 -301 204 -325 q 218 -235 211 -278 q 239 -122 225 -192 q 265 -74 246 -90 q 308 -57 285 -58 q 361 -69 336 -54 q 389 -114 386 -85 q 383 -149 390 -129 l 308 -335 q 294 -362 303 -346 q 256 -382 285 -379 z "},"u":{"ha":783,"x_min":85,"x_max":699,"o":"m 392 -11 q 231 26 300 -11 q 123 132 161 64 q 85 290 85 200 l 85 615 q 185 710 85 710 q 285 615 285 710 l 285 293 q 313 192 285 228 q 392 156 340 156 q 471 192 443 156 q 499 293 499 228 l 499 615 q 599 710 499 710 q 699 615 699 710 l 699 290 q 660 132 699 200 q 553 26 622 64 q 392 -11 485 -11 z "},"ú":{"ha":783,"x_min":85,"x_max":699,"o":"m 392 -11 q 231 26 300 -11 q 123 132 161 64 q 85 290 85 200 l 85 615 q 185 710 85 710 q 285 615 285 710 l 285 293 q 313 192 285 228 q 392 156 340 156 q 471 192 443 156 q 499 293 499 228 l 499 615 q 599 710 499 710 q 699 615 699 710 l 699 290 q 660 132 699 200 q 553 26 622 64 q 392 -11 485 -11 m 231 800 q 197 815 213 800 q 181 847 181 829 q 188 869 181 858 q 213 890 194 881 q 243 909 218 893 q 303 948 268 925 q 377 996 339 971 q 446 1043 415 1021 q 467 1053 457 1050 q 485 1056 476 1056 q 540 1028 518 1056 q 561 964 561 1000 q 544 917 561 938 q 489 878 528 897 q 427 852 465 865 q 348 827 389 839 q 275 808 307 815 q 231 800 243 800 z "},"ŭ":{"ha":783,"x_min":85,"x_max":699,"o":"m 392 -11 q 231 26 300 -11 q 123 132 161 64 q 85 290 85 200 l 85 615 q 185 710 85 710 q 285 615 285 710 l 285 293 q 313 192 285 228 q 392 156 340 156 q 471 192 443 156 q 499 293 499 228 l 499 615 q 599 710 499 710 q 699 615 699 710 l 699 290 q 660 132 699 200 q 553 26 622 64 q 392 -11 485 -11 m 464 988 q 476 1049 458 1028 q 529 1069 493 1069 q 576 1050 553 1069 q 599 982 599 1031 q 538 852 599 897 q 390 807 478 807 q 243 852 303 807 q 183 982 183 897 q 206 1050 183 1031 q 251 1069 228 1069 q 306 1049 288 1069 q 317 988 324 1028 q 333 949 314 967 q 390 931 351 931 q 449 949 431 931 q 464 988 467 967 z "},"û":{"ha":783,"x_min":85,"x_max":699,"o":"m 392 -11 q 231 26 300 -11 q 123 132 161 64 q 85 290 85 200 l 85 615 q 185 710 85 710 q 285 615 285 710 l 285 293 q 313 192 285 228 q 392 156 340 156 q 471 192 443 156 q 499 293 499 228 l 499 615 q 599 710 499 710 q 699 615 699 710 l 699 290 q 660 132 699 200 q 553 26 622 64 q 392 -11 485 -11 m 461 1026 l 558 976 q 629 893 629 942 q 608 838 629 858 q 554 817 586 817 q 515 829 536 817 l 390 908 l 265 829 q 226 817 244 817 q 174 838 194 817 q 153 893 153 858 q 222 976 153 943 l 319 1026 q 370 1047 350 1042 q 411 1047 390 1051 q 461 1026 432 1042 z "},"ü":{"ha":783,"x_min":85,"x_max":699,"o":"m 392 -11 q 231 26 300 -11 q 123 132 161 64 q 85 290 85 200 l 85 615 q 185 710 85 710 q 285 615 285 710 l 285 293 q 313 192 285 228 q 392 156 340 156 q 471 192 443 156 q 499 293 499 228 l 499 615 q 599 710 499 710 q 699 615 699 710 l 699 290 q 660 132 699 200 q 553 26 622 64 q 392 -11 485 -11 m 246 836 q 177 862 203 836 q 151 928 151 888 q 177 995 151 969 q 246 1021 203 1021 q 313 995 288 1021 q 339 928 339 969 q 313 862 339 888 q 246 836 288 836 m 536 836 q 468 862 493 836 q 443 928 443 888 q 468 995 443 969 q 536 1021 493 1021 q 604 995 578 1021 q 631 928 631 969 q 604 862 631 888 q 536 836 578 836 z "},"ù":{"ha":783,"x_min":85,"x_max":699,"o":"m 392 -11 q 231 26 300 -11 q 123 132 161 64 q 85 290 85 200 l 85 615 q 185 710 85 710 q 285 615 285 710 l 285 293 q 313 192 285 228 q 392 156 340 156 q 471 192 443 156 q 499 293 499 228 l 499 615 q 599 710 499 710 q 699 615 699 710 l 699 290 q 660 132 699 200 q 553 26 622 64 q 392 -11 485 -11 m 553 800 q 508 808 540 800 q 435 827 476 815 q 356 852 394 839 q 294 878 318 865 q 239 917 256 897 q 222 964 222 938 q 244 1028 222 1000 q 299 1056 265 1056 q 317 1053 307 1056 q 338 1043 328 1050 q 407 996 369 1021 q 480 948 444 971 q 540 909 515 925 q 571 890 565 893 q 596 869 589 881 q 603 847 603 858 q 588 815 603 829 q 553 800 572 800 z "},"ű":{"ha":783,"x_min":85,"x_max":699,"o":"m 392 -11 q 231 26 300 -11 q 123 132 161 64 q 85 290 85 200 l 85 615 q 185 710 85 710 q 285 615 285 710 l 285 293 q 313 192 285 228 q 392 156 340 156 q 471 192 443 156 q 499 293 499 228 l 499 615 q 599 710 499 710 q 699 615 699 710 l 699 290 q 660 132 699 200 q 553 26 622 64 q 392 -11 485 -11 m 294 767 q 263 760 283 758 q 233 775 242 763 q 233 817 222 792 q 252 858 238 824 q 285 939 267 893 q 315 1022 303 985 q 324 1038 319 1032 q 335 1047 329 1043 q 388 1054 357 1063 q 435 1022 418 1046 q 426 935 457 989 q 398 890 417 917 q 358 838 379 864 q 320 792 338 811 q 294 767 303 772 m 497 767 q 465 760 486 758 q 436 775 444 763 q 436 817 425 792 q 455 858 440 824 q 488 939 469 893 q 518 1022 506 985 q 527 1038 522 1032 q 538 1047 532 1043 q 590 1054 560 1063 q 638 1022 621 1046 q 629 935 660 989 q 601 890 619 917 q 561 838 582 864 q 523 792 540 811 q 497 767 506 772 z "},"ū":{"ha":783,"x_min":85,"x_max":699,"o":"m 392 -11 q 231 26 300 -11 q 123 132 161 64 q 85 290 85 200 l 85 615 q 185 710 85 710 q 285 615 285 710 l 285 293 q 313 192 285 228 q 392 156 340 156 q 471 192 443 156 q 499 293 499 228 l 499 615 q 599 710 499 710 q 699 615 699 710 l 699 290 q 660 132 699 200 q 553 26 622 64 q 392 -11 485 -11 m 239 819 q 188 837 207 819 q 168 893 168 854 q 188 949 168 932 q 239 965 207 965 l 544 965 q 596 949 576 965 q 615 893 615 932 q 596 837 615 854 q 544 819 576 819 l 239 819 z "},"ų":{"ha":783,"x_min":85,"x_max":699,"o":"m 507 -356 q 347 -310 410 -356 q 285 -194 285 -265 q 368 -10 285 -78 q 162 78 239 -3 q 85 290 85 160 l 85 615 q 185 710 85 710 q 285 615 285 710 l 285 293 q 313 192 285 228 q 392 156 340 156 q 471 192 443 156 q 499 293 499 228 l 499 615 q 599 710 499 710 q 699 615 699 710 l 699 290 q 652 118 699 190 q 525 13 606 46 l 524 13 q 440 -65 472 -19 q 408 -142 408 -110 q 440 -194 408 -174 q 528 -218 472 -214 q 569 -236 554 -219 q 583 -279 583 -253 q 562 -334 583 -312 q 507 -356 540 -356 z "},"ů":{"ha":783,"x_min":85,"x_max":699,"o":"m 392 -11 q 231 26 300 -11 q 123 132 161 64 q 85 290 85 200 l 85 615 q 185 710 85 710 q 285 615 285 710 l 285 293 q 313 192 285 228 q 392 156 340 156 q 471 192 443 156 q 499 293 499 228 l 499 615 q 599 710 499 710 q 699 615 699 710 l 699 290 q 660 132 699 200 q 553 26 622 64 q 392 -11 485 -11 m 390 785 q 279 829 324 785 q 235 942 235 874 q 279 1053 235 1008 q 390 1097 324 1097 q 503 1053 458 1097 q 547 942 547 1008 q 503 829 547 874 q 390 785 458 785 m 392 889 q 429 903 415 889 q 443 942 443 918 q 429 979 443 965 q 392 993 415 993 q 353 979 368 993 q 339 942 339 965 q 353 903 339 918 q 392 889 368 889 z "},"v":{"ha":689,"x_min":22,"x_max":656,"o":"m 338 -11 q 280 1 310 -11 q 224 44 250 13 q 178 135 197 75 l 32 592 q 35 651 22 624 q 75 694 47 678 q 136 710 103 710 q 192 694 167 710 q 228 647 218 679 l 364 188 q 434 362 417 275 q 451 529 451 449 q 450 578 451 554 q 449 625 449 603 q 481 688 449 665 q 554 710 514 710 q 650 631 638 710 q 654 594 653 617 q 656 542 656 571 q 647 431 656 494 q 613 297 638 368 q 540 150 589 225 q 463 49 497 83 q 399 1 429 14 q 338 -11 368 -11 z "},"w":{"ha":1097,"x_min":28,"x_max":1064,"o":"m 331 -11 q 239 22 272 -11 q 178 135 206 56 l 39 556 q 28 610 28 593 q 58 680 28 650 q 132 710 88 710 q 191 693 167 710 q 224 647 215 676 l 356 208 q 433 369 410 296 q 456 529 456 443 l 453 625 q 482 685 453 661 q 554 710 511 710 q 599 692 579 710 q 636 629 618 674 q 665 550 649 599 q 705 420 681 501 q 765 208 729 339 q 842 342 814 263 q 863 529 869 422 l 857 625 q 887 685 856 661 q 963 710 918 710 q 1058 631 1046 710 q 1063 589 1061 613 q 1064 542 1064 565 q 1033 338 1064 440 q 946 150 1001 236 q 845 24 888 60 q 753 -11 803 -11 q 685 27 719 -11 q 622 132 651 65 q 575 282 593 199 q 531 188 561 239 q 464 92 501 138 q 391 17 426 46 q 331 -11 356 -11 z "},"ẃ":{"ha":1097,"x_min":28,"x_max":1064,"o":"m 331 -11 q 239 22 272 -11 q 178 135 206 56 l 39 556 q 28 610 28 593 q 58 680 28 650 q 132 710 88 710 q 191 693 167 710 q 224 647 215 676 l 356 208 q 433 369 410 296 q 456 529 456 443 l 453 625 q 482 685 453 661 q 554 710 511 710 q 599 692 579 710 q 636 629 618 674 q 665 550 649 599 q 705 420 681 501 q 765 208 729 339 q 842 342 814 263 q 863 529 869 422 l 857 625 q 887 685 856 661 q 963 710 918 710 q 1058 631 1046 710 q 1063 589 1061 613 q 1064 542 1064 565 q 1033 338 1064 440 q 946 150 1001 236 q 845 24 888 60 q 753 -11 803 -11 q 685 27 719 -11 q 622 132 651 65 q 575 282 593 199 q 531 188 561 239 q 464 92 501 138 q 391 17 426 46 q 331 -11 356 -11 m 397 800 q 363 815 379 800 q 347 847 347 829 q 354 869 347 858 q 379 890 361 881 q 410 909 385 893 q 470 948 435 925 q 544 996 506 971 q 613 1043 582 1021 q 633 1053 624 1050 q 651 1056 643 1056 q 706 1028 685 1056 q 728 964 728 1000 q 711 917 728 938 q 656 878 694 897 q 594 852 632 865 q 515 827 556 839 q 442 808 474 815 q 397 800 410 800 z "},"ŵ":{"ha":1097,"x_min":28,"x_max":1064,"o":"m 331 -11 q 239 22 272 -11 q 178 135 206 56 l 39 556 q 28 610 28 593 q 58 680 28 650 q 132 710 88 710 q 191 693 167 710 q 224 647 215 676 l 356 208 q 433 369 410 296 q 456 529 456 443 l 453 625 q 482 685 453 661 q 554 710 511 710 q 599 692 579 710 q 636 629 618 674 q 665 550 649 599 q 705 420 681 501 q 765 208 729 339 q 842 342 814 263 q 863 529 869 422 l 857 625 q 887 685 856 661 q 963 710 918 710 q 1058 631 1046 710 q 1063 589 1061 613 q 1064 542 1064 565 q 1033 338 1064 440 q 946 150 1001 236 q 845 24 888 60 q 753 -11 803 -11 q 685 27 719 -11 q 622 132 651 65 q 575 282 593 199 q 531 188 561 239 q 464 92 501 138 q 391 17 426 46 q 331 -11 356 -11 m 628 1026 l 725 976 q 796 893 796 942 q 774 838 796 858 q 721 817 753 817 q 682 829 703 817 l 557 908 l 432 829 q 393 817 411 817 q 340 838 361 817 q 319 893 319 858 q 389 976 319 943 l 486 1026 q 537 1047 517 1042 q 578 1047 557 1051 q 628 1026 599 1042 z "},"ẅ":{"ha":1097,"x_min":28,"x_max":1064,"o":"m 331 -11 q 239 22 272 -11 q 178 135 206 56 l 39 556 q 28 610 28 593 q 58 680 28 650 q 132 710 88 710 q 191 693 167 710 q 224 647 215 676 l 356 208 q 433 369 410 296 q 456 529 456 443 l 453 625 q 482 685 453 661 q 554 710 511 710 q 599 692 579 710 q 636 629 618 674 q 665 550 649 599 q 705 420 681 501 q 765 208 729 339 q 842 342 814 263 q 863 529 869 422 l 857 625 q 887 685 856 661 q 963 710 918 710 q 1058 631 1046 710 q 1063 589 1061 613 q 1064 542 1064 565 q 1033 338 1064 440 q 946 150 1001 236 q 845 24 888 60 q 753 -11 803 -11 q 685 27 719 -11 q 622 132 651 65 q 575 282 593 199 q 531 188 561 239 q 464 92 501 138 q 391 17 426 46 q 331 -11 356 -11 m 413 836 q 344 862 369 836 q 318 928 318 888 q 344 995 318 969 q 413 1021 369 1021 q 480 995 454 1021 q 506 928 506 969 q 480 862 506 888 q 413 836 454 836 m 703 836 q 635 862 660 836 q 610 928 610 888 q 635 995 610 969 q 703 1021 660 1021 q 771 995 744 1021 q 797 928 797 969 q 771 862 797 888 q 703 836 744 836 z "},"ẁ":{"ha":1097,"x_min":28,"x_max":1064,"o":"m 331 -11 q 239 22 272 -11 q 178 135 206 56 l 39 556 q 28 610 28 593 q 58 680 28 650 q 132 710 88 710 q 191 693 167 710 q 224 647 215 676 l 356 208 q 433 369 410 296 q 456 529 456 443 l 453 625 q 482 685 453 661 q 554 710 511 710 q 599 692 579 710 q 636 629 618 674 q 665 550 649 599 q 705 420 681 501 q 765 208 729 339 q 842 342 814 263 q 863 529 869 422 l 857 625 q 887 685 856 661 q 963 710 918 710 q 1058 631 1046 710 q 1063 589 1061 613 q 1064 542 1064 565 q 1033 338 1064 440 q 946 150 1001 236 q 845 24 888 60 q 753 -11 803 -11 q 685 27 719 -11 q 622 132 651 65 q 575 282 593 199 q 531 188 561 239 q 464 92 501 138 q 391 17 426 46 q 331 -11 356 -11 m 719 800 q 675 808 707 800 q 602 827 643 815 q 523 852 561 839 q 461 878 485 865 q 406 917 422 897 q 389 964 389 938 q 410 1028 389 1000 q 465 1056 432 1056 q 484 1053 474 1056 q 504 1043 494 1050 q 574 996 536 1021 q 647 948 611 971 q 707 909 682 925 q 738 890 732 893 q 763 869 756 881 q 769 847 769 858 q 754 815 769 829 q 719 800 739 800 z "},"x":{"ha":742,"x_min":56,"x_max":686,"o":"m 167 -11 q 119 -2 144 -11 q 74 28 93 7 q 56 81 56 49 q 103 202 56 131 q 235 353 151 274 l 88 542 q 69 573 78 556 q 60 608 60 590 q 69 648 60 628 q 100 688 78 668 q 131 705 115 700 q 160 710 146 710 q 208 698 186 710 q 240 671 229 686 l 386 485 q 442 564 418 522 q 482 640 467 606 q 518 691 496 672 q 571 710 540 710 q 646 685 613 710 q 679 613 679 661 q 637 494 679 561 q 507 343 594 428 l 660 156 q 678 126 671 143 q 686 89 686 108 q 677 51 686 71 q 647 11 668 31 q 618 -6 633 -1 q 588 -11 603 -11 q 540 1 561 -11 q 507 28 519 14 l 353 217 q 295 135 324 182 q 247 46 267 88 q 216 3 235 18 q 167 -11 197 -11 z "},"y":{"ha":739,"x_min":22,"x_max":689,"o":"m 215 -319 q 22 -208 22 -319 q 44 -155 22 -168 q 104 -142 67 -142 q 172 -148 143 -142 q 238 -154 201 -154 q 294 -144 278 -154 q 311 -108 311 -135 q 304 -65 311 -92 q 277 13 297 -39 q 219 154 257 64 l 46 575 q 38 619 38 596 q 72 688 38 667 q 144 710 107 710 q 201 692 179 710 q 232 647 222 675 l 406 197 q 476 381 458 304 q 490 521 493 457 q 485 587 489 561 q 481 619 482 613 q 508 687 475 664 q 585 710 540 710 q 647 692 625 710 q 678 644 668 675 q 687 594 685 622 q 689 547 689 565 q 676 400 689 475 q 638 259 663 325 q 578 144 614 193 q 558 117 572 138 q 522 76 543 96 q 479 47 501 56 q 513 -19 503 22 q 522 -104 522 -60 q 449 -259 522 -199 q 215 -319 376 -319 z "},"ý":{"ha":739,"x_min":22,"x_max":689,"o":"m 215 -319 q 22 -208 22 -319 q 44 -155 22 -168 q 104 -142 67 -142 q 172 -148 143 -142 q 238 -154 201 -154 q 294 -144 278 -154 q 311 -108 311 -135 q 304 -65 311 -92 q 277 13 297 -39 q 219 154 257 64 l 46 575 q 38 619 38 596 q 72 688 38 667 q 144 710 107 710 q 201 692 179 710 q 232 647 222 675 l 406 197 q 476 381 458 304 q 490 521 493 457 q 485 587 489 561 q 481 619 482 613 q 508 687 475 664 q 585 710 540 710 q 647 692 625 710 q 678 644 668 675 q 687 594 685 622 q 689 547 689 565 q 676 400 689 475 q 638 259 663 325 q 578 144 614 193 q 558 117 572 138 q 522 76 543 96 q 479 47 501 56 q 513 -19 503 22 q 522 -104 522 -60 q 449 -259 522 -199 q 215 -319 376 -319 m 206 800 q 172 815 188 800 q 156 847 156 829 q 163 869 156 858 q 188 890 169 881 q 218 909 193 893 q 278 948 243 925 q 352 996 314 971 q 421 1043 390 1021 q 442 1053 432 1050 q 460 1056 451 1056 q 515 1028 493 1056 q 536 964 536 1000 q 519 917 536 938 q 464 878 503 897 q 402 852 440 865 q 323 827 364 839 q 250 808 282 815 q 206 800 218 800 z "},"ŷ":{"ha":739,"x_min":22,"x_max":689,"o":"m 215 -319 q 22 -208 22 -319 q 44 -155 22 -168 q 104 -142 67 -142 q 172 -148 143 -142 q 238 -154 201 -154 q 294 -144 278 -154 q 311 -108 311 -135 q 304 -65 311 -92 q 277 13 297 -39 q 219 154 257 64 l 46 575 q 38 619 38 596 q 72 688 38 667 q 144 710 107 710 q 201 692 179 710 q 232 647 222 675 l 406 197 q 476 381 458 304 q 490 521 493 457 q 485 587 489 561 q 481 619 482 613 q 508 687 475 664 q 585 710 540 710 q 647 692 625 710 q 678 644 668 675 q 687 594 685 622 q 689 547 689 565 q 676 400 689 475 q 638 259 663 325 q 578 144 614 193 q 558 117 572 138 q 522 76 543 96 q 479 47 501 56 q 513 -19 503 22 q 522 -104 522 -60 q 449 -259 522 -199 q 215 -319 376 -319 m 436 1026 l 533 976 q 604 893 604 942 q 583 838 604 858 q 529 817 561 817 q 490 829 511 817 l 365 908 l 240 829 q 201 817 219 817 q 149 838 169 817 q 128 893 128 858 q 197 976 128 943 l 294 1026 q 345 1047 325 1042 q 386 1047 365 1051 q 436 1026 407 1042 z "},"ÿ":{"ha":739,"x_min":22,"x_max":689,"o":"m 215 -319 q 22 -208 22 -319 q 44 -155 22 -168 q 104 -142 67 -142 q 172 -148 143 -142 q 238 -154 201 -154 q 294 -144 278 -154 q 311 -108 311 -135 q 304 -65 311 -92 q 277 13 297 -39 q 219 154 257 64 l 46 575 q 38 619 38 596 q 72 688 38 667 q 144 710 107 710 q 201 692 179 710 q 232 647 222 675 l 406 197 q 476 381 458 304 q 490 521 493 457 q 485 587 489 561 q 481 619 482 613 q 508 687 475 664 q 585 710 540 710 q 647 692 625 710 q 678 644 668 675 q 687 594 685 622 q 689 547 689 565 q 676 400 689 475 q 638 259 663 325 q 578 144 614 193 q 558 117 572 138 q 522 76 543 96 q 479 47 501 56 q 513 -19 503 22 q 522 -104 522 -60 q 449 -259 522 -199 q 215 -319 376 -319 m 221 836 q 152 862 178 836 q 126 928 126 888 q 152 995 126 969 q 221 1021 178 1021 q 288 995 263 1021 q 314 928 314 969 q 288 862 314 888 q 221 836 263 836 m 511 836 q 443 862 468 836 q 418 928 418 888 q 443 995 418 969 q 511 1021 468 1021 q 579 995 553 1021 q 606 928 606 969 q 579 862 606 888 q 511 836 553 836 z "},"ỳ":{"ha":739,"x_min":22,"x_max":689,"o":"m 215 -319 q 22 -208 22 -319 q 44 -155 22 -168 q 104 -142 67 -142 q 172 -148 143 -142 q 238 -154 201 -154 q 294 -144 278 -154 q 311 -108 311 -135 q 304 -65 311 -92 q 277 13 297 -39 q 219 154 257 64 l 46 575 q 38 619 38 596 q 72 688 38 667 q 144 710 107 710 q 201 692 179 710 q 232 647 222 675 l 406 197 q 476 381 458 304 q 490 521 493 457 q 485 587 489 561 q 481 619 482 613 q 508 687 475 664 q 585 710 540 710 q 647 692 625 710 q 678 644 668 675 q 687 594 685 622 q 689 547 689 565 q 676 400 689 475 q 638 259 663 325 q 578 144 614 193 q 558 117 572 138 q 522 76 543 96 q 479 47 501 56 q 513 -19 503 22 q 522 -104 522 -60 q 449 -259 522 -199 q 215 -319 376 -319 m 528 800 q 483 808 515 800 q 410 827 451 815 q 331 852 369 839 q 269 878 293 865 q 214 917 231 897 q 197 964 197 938 q 219 1028 197 1000 q 274 1056 240 1056 q 292 1053 282 1056 q 313 1043 303 1050 q 382 996 344 1021 q 455 948 419 971 q 515 909 490 925 q 546 890 540 893 q 571 869 564 881 q 578 847 578 858 q 563 815 578 829 q 528 800 547 800 z "},"z":{"ha":656,"x_min":53,"x_max":610,"o":"m 149 0 q 91 28 114 0 q 68 96 68 56 q 81 143 68 122 l 294 478 q 319 511 310 501 q 340 525 329 521 l 146 525 q 53 610 53 525 q 146 694 53 694 l 489 694 q 551 667 526 694 q 576 599 576 639 q 564 551 576 572 l 338 214 q 281 169 313 175 l 517 169 q 610 82 610 169 q 517 0 610 0 l 149 0 z "},"ź":{"ha":656,"x_min":53,"x_max":610,"o":"m 149 0 q 91 28 114 0 q 68 96 68 56 q 81 143 68 122 l 294 478 q 319 511 310 501 q 340 525 329 521 l 146 525 q 53 610 53 525 q 146 694 53 694 l 489 694 q 551 667 526 694 q 576 599 576 639 q 564 551 576 572 l 338 214 q 281 169 313 175 l 517 169 q 610 82 610 169 q 517 0 610 0 l 149 0 m 167 800 q 133 815 149 800 q 117 847 117 829 q 124 869 117 858 q 149 890 131 881 q 179 909 154 893 q 240 948 204 925 q 313 996 275 971 q 382 1043 351 1021 q 403 1053 393 1050 q 421 1056 413 1056 q 476 1028 454 1056 q 497 964 497 1000 q 481 917 497 938 q 425 878 464 897 q 363 852 401 865 q 284 827 325 839 q 211 808 243 815 q 167 800 179 800 z "},"ž":{"ha":656,"x_min":53,"x_max":610,"o":"m 149 0 q 91 28 114 0 q 68 96 68 56 q 81 143 68 122 l 294 478 q 319 511 310 501 q 340 525 329 521 l 146 525 q 53 610 53 525 q 146 694 53 694 l 489 694 q 551 667 526 694 q 576 599 576 639 q 564 551 576 572 l 338 214 q 281 169 313 175 l 517 169 q 610 82 610 169 q 517 0 610 0 l 149 0 m 399 840 q 349 821 369 826 q 308 820 328 815 q 257 840 288 825 l 160 890 q 90 974 90 924 q 111 1030 90 1010 q 164 1050 132 1050 q 203 1038 182 1050 l 328 958 l 453 1038 q 492 1050 474 1050 q 545 1030 524 1050 q 567 974 567 1010 q 496 890 567 925 l 399 840 z "},"ż":{"ha":656,"x_min":53,"x_max":610,"o":"m 149 0 q 91 28 114 0 q 68 96 68 56 q 81 143 68 122 l 294 478 q 319 511 310 501 q 340 525 329 521 l 146 525 q 53 610 53 525 q 146 694 53 694 l 489 694 q 551 667 526 694 q 576 599 576 639 q 564 551 576 572 l 338 214 q 281 169 313 175 l 517 169 q 610 82 610 169 q 517 0 610 0 l 149 0 m 328 825 q 242 858 276 825 q 207 940 207 892 q 242 1025 207 992 q 328 1058 276 1058 q 415 1025 381 1058 q 449 940 449 992 q 415 858 449 892 q 328 825 381 825 z "},"ﬁ":{"ha":844,"x_min":14,"x_max":778,"o":"m 236 -11 q 159 20 182 -11 q 136 99 136 51 l 136 526 l 117 526 q 14 610 14 526 q 117 694 14 694 l 136 694 l 136 700 q 165 874 136 804 q 241 986 193 944 q 348 1047 289 1028 q 468 1065 407 1065 q 631 1040 569 1065 q 722 978 693 1015 q 750 903 750 940 q 723 836 750 864 q 651 808 696 808 q 597 820 628 808 q 531 863 567 832 q 489 886 514 876 q 438 896 464 896 q 386 881 411 896 q 346 830 361 867 q 331 728 331 793 l 331 694 l 410 694 q 504 610 504 694 q 410 526 504 526 l 331 526 l 331 99 q 306 15 331 42 q 236 -11 282 -11 m 678 -11 q 601 15 624 -11 q 578 83 578 40 l 578 611 q 601 681 578 656 q 678 706 624 706 q 755 681 732 706 q 778 611 778 656 l 778 83 q 755 15 778 40 q 678 -11 732 -11 z "},"ﬂ":{"ha":899,"x_min":14,"x_max":808,"o":"m 236 -11 q 159 20 182 -11 q 136 99 136 51 l 136 526 l 117 526 q 14 610 14 526 q 117 694 14 694 l 136 694 l 136 700 q 168 888 136 807 q 270 1013 200 968 q 453 1058 340 1058 l 708 1058 q 785 1031 763 1058 q 808 954 808 1004 l 808 97 q 785 18 808 47 q 708 -11 763 -11 q 631 18 654 -11 q 608 97 608 47 l 608 865 q 557 858 589 858 q 506 861 522 858 q 472 868 489 864 q 419 874 454 872 q 347 831 364 874 q 331 728 331 789 l 331 694 l 410 694 q 504 610 504 694 q 410 526 504 526 l 331 526 l 331 99 q 306 15 331 42 q 236 -11 282 -11 z "},"ª":{"ha":535,"x_min":97,"x_max":497,"o":"m 294 579 q 149 622 201 579 q 97 733 97 665 q 165 851 97 815 q 367 876 233 888 q 339 934 360 918 q 289 950 318 950 q 251 947 265 950 q 222 942 236 944 q 190 939 208 939 q 151 948 165 939 q 136 985 136 957 q 169 1040 136 1022 q 274 1058 201 1058 q 442 994 388 1058 q 497 821 497 929 q 452 638 497 697 q 294 579 407 579 m 231 733 q 303 681 231 681 q 339 690 326 681 q 358 724 351 699 q 367 797 364 749 q 355 792 363 793 q 340 790 347 790 q 254 778 278 790 q 231 733 231 767 z "},"º":{"ha":576,"x_min":38,"x_max":468,"o":"m 253 579 q 95 635 153 579 q 38 818 38 692 q 95 1002 38 946 q 253 1058 153 1058 q 410 1002 353 1058 q 468 818 468 946 q 410 635 468 692 q 253 579 353 579 m 253 690 q 297 701 279 690 q 324 740 315 713 q 333 818 333 768 q 324 897 333 869 q 297 936 315 925 q 253 947 279 947 q 210 936 228 947 q 182 897 192 925 q 172 818 172 869 q 182 740 172 768 q 210 701 192 713 q 253 690 228 690 z "}," ":{"ha":303,"x_min":0,"x_max":0,"o":""}," ":{"ha":303,"x_min":0,"x_max":0,"o":""},".":{"ha":386,"x_min":83,"x_max":303,"o":"m 193 -11 q 113 19 143 -11 q 83 97 83 50 q 113 176 83 146 q 193 207 143 207 q 272 176 242 207 q 303 97 303 146 q 272 19 303 50 q 193 -11 242 -11 z "},",":{"ha":394,"x_min":50,"x_max":332,"o":"m 117 -262 q 67 -247 83 -262 q 50 -208 50 -231 q 52 -187 50 -203 q 61 -138 54 -172 q 83 -42 68 -104 q 125 119 99 19 q 167 186 138 165 q 229 207 196 207 q 300 181 268 207 q 332 113 332 156 q 319 63 332 90 l 194 -200 q 172 -240 186 -217 q 117 -262 157 -262 z "},":":{"ha":339,"x_min":83,"x_max":303,"o":"m 193 442 q 113 472 143 442 q 83 550 83 503 q 113 629 83 599 q 193 660 143 660 q 272 629 242 660 q 303 550 303 599 q 272 472 303 503 q 193 442 242 442 m 193 31 q 113 61 143 31 q 83 139 83 92 q 113 218 83 188 q 193 249 143 249 q 272 218 242 249 q 303 139 303 188 q 272 61 303 92 q 193 31 242 31 z "},";":{"ha":382,"x_min":50,"x_max":336,"o":"m 226 442 q 147 472 176 442 q 117 550 117 503 q 147 629 117 599 q 226 660 176 660 q 306 629 275 660 q 336 550 336 599 q 306 472 336 503 q 226 442 275 442 m 117 -262 q 67 -247 83 -262 q 50 -208 50 -231 q 52 -187 50 -203 q 61 -138 54 -172 q 83 -42 68 -104 q 125 119 99 19 q 167 186 138 165 q 229 207 196 207 q 300 181 268 207 q 332 113 332 156 q 319 63 332 90 l 194 -200 q 172 -240 186 -217 q 117 -262 157 -262 z "},"…":{"ha":953,"x_min":67,"x_max":886,"o":"m 776 -11 q 697 19 726 -11 q 667 97 667 50 q 697 176 667 146 q 776 207 726 207 q 856 176 825 207 q 886 97 886 146 q 856 19 886 50 q 776 -11 825 -11 m 176 -11 q 97 19 126 -11 q 67 97 67 50 q 97 176 67 146 q 176 207 126 207 q 256 176 225 207 q 286 97 286 146 q 256 19 286 50 q 176 -11 225 -11 m 476 -11 q 397 19 426 -11 q 367 97 367 50 q 397 176 367 146 q 476 207 426 207 q 556 176 525 207 q 586 97 586 146 q 556 19 586 50 q 476 -11 525 -11 z "},"!":{"ha":386,"x_min":83,"x_max":303,"o":"m 193 290 q 116 316 139 290 q 93 385 93 342 l 93 893 q 116 963 93 938 q 193 988 139 988 q 270 963 247 988 q 293 893 293 938 l 293 385 q 270 316 293 342 q 193 290 247 290 m 193 -11 q 113 19 143 -11 q 83 97 83 50 q 113 176 83 146 q 193 207 143 207 q 272 176 242 207 q 303 97 303 146 q 272 19 303 50 q 193 -11 242 -11 z "},"¡":{"ha":342,"x_min":83,"x_max":303,"o":"m 193 404 q 270 379 247 404 q 293 310 293 354 l 293 -199 q 270 -267 293 -242 q 193 -293 247 -293 q 116 -267 139 -293 q 93 -199 93 -242 l 93 310 q 116 379 93 354 q 193 404 139 404 m 193 706 q 272 676 242 706 q 303 597 303 646 q 272 518 303 549 q 193 488 242 488 q 113 518 143 488 q 83 597 83 549 q 113 676 83 646 q 193 706 143 706 z "},"?":{"ha":768,"x_min":83,"x_max":685,"o":"m 351 328 q 184 347 233 328 q 135 413 135 367 q 149 465 135 446 q 210 491 163 483 q 356 499 257 499 q 451 540 417 499 q 485 654 485 582 q 454 767 485 732 q 354 800 424 801 q 185 806 244 800 q 105 831 126 813 q 83 885 83 850 q 303 988 83 988 l 351 988 q 595 898 506 988 q 685 654 685 808 q 642 485 685 558 q 525 369 600 411 q 351 328 450 328 m 263 -11 q 183 19 213 -11 q 153 97 153 50 q 183 176 153 146 q 263 207 213 207 q 342 176 311 207 q 372 97 372 146 q 342 19 372 50 q 263 -11 311 -11 z "},"¿":{"ha":768,"x_min":83,"x_max":685,"o":"m 417 371 q 584 351 535 371 q 633 286 633 332 q 619 234 633 253 q 558 208 606 215 q 413 200 511 200 q 318 158 353 200 q 283 44 283 117 q 314 -68 283 -33 q 414 -101 344 -103 q 583 -107 525 -100 q 663 -132 642 -114 q 685 -186 685 -150 q 465 -289 685 -289 l 417 -289 q 173 -199 263 -289 q 83 44 83 -110 q 126 214 83 140 q 244 329 168 288 q 417 371 319 371 m 506 710 q 585 680 556 710 q 615 601 615 650 q 585 522 615 553 q 506 492 556 492 q 426 522 457 492 q 396 601 396 553 q 426 680 396 650 q 506 710 457 710 z "},"·":{"ha":833,"x_min":329,"x_max":557,"o":"m 443 307 q 361 340 393 307 q 329 421 329 374 q 361 502 329 469 q 443 535 393 535 q 524 502 492 535 q 557 421 557 469 q 524 340 557 374 q 443 307 492 307 z "},"•":{"ha":833,"x_min":272,"x_max":614,"o":"m 443 250 q 320 299 368 250 q 272 421 272 349 q 320 543 272 494 q 443 592 368 592 q 565 543 517 592 q 614 421 614 494 q 565 299 614 349 q 443 250 517 250 z "},"*":{"ha":689,"x_min":61,"x_max":628,"o":"m 344 433 q 283 458 306 433 q 267 518 260 482 l 288 638 l 193 560 q 133 543 165 536 q 81 585 101 550 q 71 653 61 621 q 115 697 81 685 l 228 738 l 115 778 q 71 822 81 790 q 81 889 61 854 q 133 932 101 925 q 193 915 165 939 l 288 836 l 267 956 q 283 1017 260 993 q 344 1042 306 1042 q 407 1017 385 1042 q 422 956 429 993 l 401 836 l 496 915 q 556 932 524 939 q 608 889 588 925 q 619 822 628 854 q 574 778 610 790 l 461 738 l 574 697 q 619 653 610 685 q 608 585 628 621 q 556 543 588 550 q 496 560 524 536 l 401 638 l 422 518 q 407 458 429 482 q 344 433 385 433 z "},"#":{"ha":917,"x_min":-22,"x_max":976,"o":"m 150 -11 q 111 1 132 -11 q 78 33 90 13 q 72 83 65 54 l 111 239 l 72 239 q 3 260 29 239 q -22 325 -22 282 q 3 390 -22 369 q 72 411 29 411 l 153 411 l 201 604 l 114 604 q 45 626 71 604 q 19 690 19 647 q 45 756 19 735 q 114 776 71 776 l 243 776 l 272 893 q 312 963 283 938 q 394 988 340 988 q 445 967 428 988 q 467 921 463 947 q 467 872 472 894 q 443 776 456 826 l 649 776 l 678 893 q 717 963 689 938 q 800 988 746 988 q 851 967 833 988 q 873 921 868 947 q 872 872 878 894 q 849 776 861 826 l 882 776 q 951 756 926 776 q 976 690 976 735 q 951 626 976 647 q 882 604 926 604 l 807 604 q 783 508 794 557 q 758 411 771 460 l 840 411 q 910 390 885 411 q 935 325 935 369 q 910 260 935 282 q 840 239 885 239 l 717 239 q 697 161 707 200 q 678 83 688 122 q 639 15 668 40 q 556 -11 610 -11 q 517 1 538 -11 q 483 33 496 13 q 478 83 471 54 l 517 239 l 311 239 q 292 161 301 200 q 272 83 282 122 q 233 15 263 40 q 150 -11 204 -11 m 353 411 l 558 411 l 607 604 l 401 604 q 377 508 389 557 q 353 411 365 460 z "},"/":{"ha":590,"x_min":74,"x_max":521,"o":"m 74 -26 q 74 -13 74 -19 q 76 -1 75 -7 l 322 1001 q 366 1073 335 1050 q 431 1096 397 1096 q 494 1073 467 1096 q 521 1008 521 1050 q 521 995 521 1003 q 518 981 521 988 q 477 808 501 906 q 426 600 453 710 q 371 379 399 490 q 317 167 343 268 q 272 -17 292 65 q 229 -89 260 -67 q 165 -111 199 -111 q 102 -88 131 -111 q 74 -26 74 -65 z "},"\\":{"ha":590,"x_min":74,"x_max":521,"o":"m 518 -1 q 521 -13 521 -7 q 521 -26 521 -19 q 493 -88 521 -65 q 429 -111 465 -111 q 365 -89 396 -111 q 322 -17 335 -67 q 277 166 303 64 q 224 379 251 268 q 169 600 196 490 q 117 808 142 710 q 76 981 93 906 q 74 995 75 988 q 74 1008 74 1003 q 101 1073 74 1050 q 164 1096 129 1096 q 228 1073 197 1096 q 272 1001 260 1050 l 518 -1 z "},"-":{"ha":747,"x_min":100,"x_max":647,"o":"m 194 300 q 126 323 151 300 q 100 400 100 346 q 126 477 100 454 q 194 500 151 500 l 553 500 q 622 477 597 500 q 647 400 647 454 q 622 323 647 346 q 553 300 597 300 l 194 300 z "},"–":{"ha":893,"x_min":100,"x_max":793,"o":"m 194 300 q 126 323 151 300 q 100 400 100 346 q 126 477 100 454 q 194 500 151 500 l 699 500 q 768 477 743 500 q 793 400 793 454 q 768 323 793 346 q 699 300 743 300 l 194 300 z "},"—":{"ha":1414,"x_min":100,"x_max":1314,"o":"m 194 300 q 126 323 151 300 q 100 400 100 346 q 126 477 100 454 q 194 500 151 500 l 1219 500 q 1289 477 1264 500 q 1314 400 1314 454 q 1289 323 1314 346 q 1219 300 1264 300 l 194 300 z "},"_":{"ha":833,"x_min":69,"x_max":763,"o":"m 164 0 q 95 23 121 0 q 69 100 69 46 q 95 177 69 154 q 164 200 121 200 l 668 200 q 738 177 713 200 q 763 100 763 154 q 738 23 763 46 q 668 0 713 0 l 164 0 z "},"(":{"ha":454,"x_min":35,"x_max":454,"o":"m 356 -208 q 308 -215 332 -218 q 260 -193 283 -211 q 197 -132 229 -169 q 142 -47 165 -94 q 58 200 81 72 q 35 458 35 328 q 58 714 35 589 q 142 958 81 839 q 197 1043 165 1006 q 260 1104 229 1081 q 308 1126 283 1124 q 356 1119 332 1129 q 400 986 454 1082 q 357 924 382 956 q 315 857 332 893 q 250 661 272 765 q 228 458 228 557 q 250 253 228 361 q 315 54 272 146 q 357 -12 332 19 q 400 -75 382 -43 q 356 -208 454 -171 z "},")":{"ha":454,"x_min":0,"x_max":419,"o":"m 99 -208 q 54 -75 0 -171 q 97 -12 72 -43 q 139 54 122 19 q 205 253 183 146 q 226 458 226 361 q 205 661 226 557 q 139 857 183 765 q 97 924 122 893 q 54 986 72 956 q 99 1119 0 1082 q 147 1126 122 1129 q 194 1104 171 1124 q 257 1043 225 1081 q 313 958 289 1006 q 397 714 374 839 q 419 458 419 589 q 397 200 419 328 q 313 -47 374 72 q 257 -132 289 -94 q 194 -193 225 -169 q 147 -215 171 -211 q 99 -208 122 -218 z "},"{":{"ha":522,"x_min":-1,"x_max":504,"o":"m 400 -215 q 244 -178 299 -215 q 170 -52 190 -142 q 150 196 150 38 q 135 314 150 268 q 92 369 119 360 q 19 406 40 386 q -1 457 -1 426 q 19 508 -1 488 q 92 546 40 528 q 135 601 119 557 q 150 717 150 646 q 170 965 150 875 q 244 1090 190 1054 q 400 1126 299 1126 q 504 1038 504 1126 q 485 990 504 1004 q 421 975 467 975 q 365 942 379 975 q 351 858 351 910 q 350 747 350 807 q 345 605 350 660 q 326 521 340 550 q 286 478 313 492 q 215 457 260 464 q 286 436 260 450 q 326 392 313 422 q 345 308 340 363 q 350 164 350 253 q 351 54 350 106 q 365 -29 351 3 q 421 -61 379 -61 q 485 -76 467 -61 q 504 -125 504 -92 q 400 -215 504 -215 z "},"}":{"ha":522,"x_min":28,"x_max":533,"o":"m 132 -215 q 28 -125 28 -215 q 47 -76 28 -92 q 111 -61 65 -61 q 167 -29 153 -61 q 182 54 182 3 q 182 164 182 106 q 187 308 182 253 q 206 392 192 363 q 246 436 219 422 q 317 457 272 450 q 246 478 272 464 q 206 521 219 492 q 187 605 192 550 q 182 747 182 660 q 182 858 182 807 q 167 942 182 910 q 111 975 153 975 q 47 990 65 975 q 28 1038 28 1004 q 132 1126 28 1126 q 288 1090 233 1126 q 362 965 342 1054 q 382 717 382 875 q 398 601 382 646 q 440 546 414 557 q 513 508 493 528 q 533 457 533 488 q 513 406 533 426 q 440 369 493 386 q 398 314 414 360 q 382 196 382 268 q 362 -52 382 38 q 288 -178 342 -142 q 132 -215 233 -215 z "},"[":{"ha":557,"x_min":100,"x_max":513,"o":"m 163 -208 q 118 -187 136 -208 q 100 -135 100 -167 l 100 1053 q 118 1106 100 1085 q 163 1126 136 1126 l 415 1126 q 490 1106 468 1126 q 513 1038 513 1086 q 490 965 513 988 q 415 943 467 943 l 300 943 l 300 -25 l 415 -25 q 490 -47 467 -25 q 513 -119 513 -69 q 490 -187 513 -167 q 415 -208 468 -208 l 163 -208 z "},"]":{"ha":606,"x_min":93,"x_max":506,"o":"m 190 -208 q 115 -187 138 -208 q 93 -119 93 -167 q 116 -47 93 -69 q 190 -25 139 -25 l 306 -25 l 306 943 l 190 943 q 116 965 139 943 q 93 1038 93 988 q 115 1106 93 1086 q 190 1126 138 1126 l 443 1126 q 488 1106 471 1126 q 506 1053 506 1085 l 506 -135 q 488 -187 506 -167 q 443 -208 471 -208 l 190 -208 z "},"‚":{"ha":379,"x_min":42,"x_max":346,"o":"m 94 -262 q 56 -249 69 -262 q 42 -212 42 -235 q 42 -198 42 -208 q 49 -156 43 -187 q 71 -60 56 -125 q 117 119 86 6 q 170 187 129 167 q 253 207 211 207 q 332 172 318 207 q 325 93 346 138 l 179 -215 q 157 -248 171 -233 q 94 -262 143 -262 z "},"„":{"ha":671,"x_min":50,"x_max":644,"o":"m 429 -262 q 379 -247 396 -262 q 363 -208 363 -231 q 365 -187 363 -203 q 374 -138 367 -172 q 396 -42 381 -104 q 438 119 411 19 q 479 186 450 165 q 542 207 508 207 q 613 181 581 207 q 644 113 644 156 q 632 63 644 90 l 507 -200 q 484 -240 499 -217 q 429 -262 469 -262 m 117 -262 q 67 -247 83 -262 q 50 -208 50 -231 q 52 -187 50 -203 q 61 -138 54 -172 q 83 -42 68 -104 q 125 119 99 19 q 167 186 138 165 q 229 207 196 207 q 300 181 268 207 q 332 113 332 156 q 319 63 332 90 l 194 -200 q 172 -240 186 -217 q 117 -262 157 -262 z "},"“":{"ha":706,"x_min":-8,"x_max":586,"o":"m 207 988 q 257 972 240 988 q 274 933 274 957 q 272 913 274 928 q 263 863 269 897 q 240 767 256 829 q 199 606 225 706 q 157 539 186 560 q 94 518 128 518 q 24 544 56 518 q -8 613 -8 569 q 4 663 -8 636 l 129 925 q 152 965 138 942 q 207 988 167 988 m 519 988 q 569 972 553 988 q 586 933 586 957 q 584 913 586 928 q 575 863 582 897 q 553 767 568 829 q 511 606 538 706 q 469 539 499 560 q 407 518 440 518 q 336 544 368 518 q 304 613 304 569 q 317 663 304 636 l 442 925 q 465 965 450 942 q 519 988 479 988 z "},"”":{"ha":706,"x_min":40,"x_max":640,"o":"m 100 508 q 43 554 47 508 q 42 569 43 558 q 42 611 40 579 q 47 709 43 643 q 61 892 51 775 q 106 965 65 940 q 189 989 147 989 q 270 960 254 989 q 271 883 286 931 l 189 607 q 162 536 175 564 q 100 508 149 508 m 425 518 q 375 534 392 518 q 358 572 358 550 q 360 593 358 578 q 369 642 363 608 q 392 738 376 676 q 433 900 407 800 q 475 967 446 946 q 538 988 504 988 q 608 962 576 988 q 640 893 640 936 q 628 843 640 871 l 503 581 q 480 541 494 564 q 425 518 465 518 z "},"‘":{"ha":324,"x_min":-8,"x_max":274,"o":"m 207 988 q 257 972 240 988 q 274 933 274 957 q 272 913 274 928 q 263 863 269 897 q 240 767 256 829 q 199 606 225 706 q 157 539 186 560 q 94 518 128 518 q 24 544 56 518 q -8 613 -8 569 q 4 663 -8 636 l 129 925 q 152 965 138 942 q 207 988 167 988 z "},"’":{"ha":300,"x_min":28,"x_max":282,"o":"m 99 575 q 46 592 60 575 q 29 625 32 608 q 33 741 28 644 q 53 972 39 838 q 90 1035 56 1011 q 175 1058 124 1058 q 257 1028 232 1058 q 265 944 282 997 l 168 622 q 143 585 161 596 q 99 575 125 575 z "},"«":{"ha":785,"x_min":35,"x_max":751,"o":"m 581 11 q 554 46 563 26 q 514 131 538 83 q 467 225 490 179 q 430 305 444 271 q 415 350 415 339 q 430 394 415 361 q 467 473 444 428 q 514 565 490 518 q 554 650 538 613 q 565 670 558 660 q 581 688 572 681 q 656 710 615 719 q 724 672 697 700 q 749 622 747 647 q 739 571 751 596 q 707 507 725 543 q 672 437 689 471 q 643 378 654 403 q 632 350 632 354 q 643 322 632 346 q 672 263 654 297 q 707 193 689 229 q 739 129 725 157 q 749 76 751 103 q 724 26 747 50 q 656 -10 697 0 q 581 11 615 -19 m 200 11 q 174 46 182 26 q 133 131 157 83 q 87 225 110 179 q 49 305 64 271 q 35 350 35 339 q 49 394 35 361 q 87 473 64 428 q 133 565 110 518 q 174 650 157 613 q 185 670 178 660 q 200 688 192 681 q 276 710 235 719 q 343 672 317 700 q 369 622 367 647 q 358 571 371 596 q 326 507 344 543 q 291 437 308 471 q 263 378 274 403 q 251 350 251 354 q 263 322 251 346 q 291 263 274 297 q 326 193 308 229 q 358 129 344 157 q 369 76 371 103 q 343 26 367 50 q 276 -10 317 0 q 200 11 235 -19 z "},"»":{"ha":785,"x_min":33,"x_max":750,"o":"m 585 11 q 510 -10 550 -19 q 442 26 469 0 q 416 76 418 50 q 426 129 414 103 q 458 193 440 157 q 494 263 476 229 q 522 322 511 297 q 533 350 533 346 q 522 378 533 354 q 494 437 511 403 q 458 507 476 471 q 426 571 440 543 q 416 622 414 596 q 442 672 418 647 q 510 710 469 700 q 585 688 550 719 q 600 670 593 681 q 611 650 607 660 q 651 565 628 613 q 698 473 675 518 q 735 394 721 428 q 750 350 750 361 q 735 305 750 339 q 698 225 721 271 q 651 131 675 179 q 611 46 628 83 q 585 11 603 26 m 204 11 q 129 -10 169 -19 q 61 26 89 0 q 35 76 38 50 q 46 129 33 103 q 78 193 60 157 q 113 263 96 229 q 142 322 131 297 q 153 350 153 346 q 142 378 153 354 q 113 437 131 403 q 78 507 96 471 q 46 571 60 543 q 35 622 33 596 q 61 672 38 647 q 129 710 89 700 q 204 688 169 719 q 219 670 213 681 q 231 650 226 660 q 271 565 247 613 q 317 473 294 518 q 355 394 340 428 q 369 350 369 361 q 355 305 369 339 q 317 225 340 271 q 271 131 294 179 q 231 46 247 83 q 204 11 222 26 z "},"‹":{"ha":446,"x_min":69,"x_max":406,"o":"m 235 11 q 208 46 217 26 q 168 131 192 83 q 122 225 144 179 q 84 305 99 271 q 69 350 69 339 q 84 394 69 361 q 122 473 99 428 q 168 565 144 518 q 208 650 192 613 q 219 670 213 660 q 235 688 226 681 q 310 710 269 719 q 378 672 351 700 q 403 622 401 647 q 393 571 406 596 q 361 507 379 543 q 326 437 343 471 q 297 378 308 403 q 286 350 286 354 q 297 322 286 346 q 326 263 308 297 q 361 193 343 229 q 393 129 379 157 q 403 76 406 103 q 378 26 401 50 q 310 -10 351 0 q 235 11 269 -19 z "},"›":{"ha":446,"x_min":40,"x_max":376,"o":"m 211 11 q 136 -10 176 -19 q 68 26 96 0 q 42 76 44 50 q 53 129 40 103 q 85 193 67 157 q 120 263 103 229 q 149 322 138 297 q 160 350 160 346 q 149 378 160 354 q 120 437 138 403 q 85 507 103 471 q 53 571 67 543 q 42 622 40 596 q 68 672 44 647 q 136 710 96 700 q 211 688 176 719 q 226 670 219 681 q 238 650 233 660 q 278 565 254 613 q 324 473 301 518 q 362 394 347 428 q 376 350 376 361 q 362 305 376 339 q 324 225 347 271 q 278 131 301 179 q 238 46 254 83 q 211 11 229 26 z "},"\"":{"ha":626,"x_min":51,"x_max":601,"o":"m 446 494 q 404 499 421 489 q 383 531 388 508 q 381 544 382 535 q 378 585 379 554 q 376 681 376 615 q 381 860 376 746 q 419 937 383 908 q 494 975 454 965 q 579 960 557 990 q 590 881 601 929 l 518 558 q 503 523 514 540 q 446 494 493 506 m 121 493 q 79 498 96 488 q 58 531 63 508 q 56 544 57 535 q 53 585 54 554 q 51 681 51 615 q 56 860 51 746 q 94 937 58 908 q 169 975 129 965 q 254 960 232 990 q 265 881 276 929 l 193 558 q 178 522 189 540 q 121 493 168 504 z "},"'":{"ha":301,"x_min":51,"x_max":276,"o":"m 121 494 q 79 499 96 489 q 58 531 63 508 q 56 544 57 535 q 53 585 54 554 q 51 681 51 615 q 56 860 51 746 q 94 937 58 908 q 169 975 129 965 q 254 960 232 990 q 265 881 276 929 l 193 558 q 178 523 189 540 q 121 494 168 506 z "},"ƒ":{"ha":644,"x_min":14,"x_max":746,"o":"m 176 -231 q 53 -211 92 -231 q 14 -135 14 -192 q 33 -80 14 -93 q 90 -67 53 -67 q 179 -68 126 -68 q 235 -44 217 -68 q 261 19 254 -19 q 268 99 268 58 l 268 526 l 249 526 q 146 610 146 526 q 249 694 146 694 l 268 694 l 268 700 q 338 959 268 861 q 554 1057 408 1057 q 703 1035 661 1057 q 746 969 746 1014 q 725 913 746 928 q 661 896 704 897 q 551 894 618 894 q 496 870 515 894 q 469 808 476 846 q 463 728 463 769 l 463 694 l 542 694 q 636 610 636 694 q 542 526 636 526 l 463 526 l 463 126 q 392 -133 463 -35 q 176 -231 322 -231 z "},"@":{"ha":1289,"x_min":67,"x_max":1222,"o":"m 629 0 q 491 38 554 0 q 390 152 428 75 q 353 346 353 229 q 391 540 353 463 q 496 655 429 617 q 649 693 563 693 q 863 610 782 693 q 943 371 943 526 l 943 293 q 951 153 943 194 q 993 111 960 111 q 1040 159 1031 111 q 1049 313 1049 207 q 1012 581 1049 471 q 890 750 975 692 q 660 808 806 808 q 417 749 510 808 q 283 585 325 689 q 240 349 240 482 q 283 106 240 211 q 413 -60 326 0 q 631 -119 500 -119 q 719 -112 683 -119 q 788 -106 756 -106 q 844 -125 826 -106 q 861 -164 861 -144 q 806 -247 861 -218 q 647 -275 750 -275 q 344 -199 475 -275 q 140 18 214 -122 q 67 347 67 158 q 109 606 67 489 q 230 806 151 722 q 417 935 308 890 q 657 981 525 981 q 958 903 831 981 q 1153 684 1085 825 q 1222 350 1222 543 q 1211 198 1222 271 q 1176 72 1200 125 q 1109 -17 1153 17 q 1011 -51 1065 -51 q 893 4 938 -51 q 836 153 849 60 q 760 42 813 85 q 629 0 707 0 m 647 151 q 715 167 686 151 q 759 226 743 183 q 775 346 775 268 q 759 466 775 424 q 715 525 743 508 q 647 542 686 542 q 553 501 588 542 q 519 344 519 460 q 553 191 519 231 q 647 151 588 151 z "},"&":{"ha":872,"x_min":65,"x_max":817,"o":"m 653 446 q 681 489 657 472 q 733 506 706 506 q 792 481 768 506 q 817 422 817 457 q 816 410 817 417 q 814 399 815 404 q 782 283 804 336 q 728 188 760 231 l 799 104 q 814 56 814 85 q 790 -3 814 21 q 731 -28 765 -28 q 692 -17 710 -28 q 663 7 675 -7 l 610 71 q 460 -6 535 18 q 342 -29 386 -29 q 130 35 194 -29 q 65 214 65 100 q 85 316 65 263 q 147 418 104 369 q 257 497 189 467 l 229 531 q 169 639 190 579 q 147 750 147 699 q 223 928 147 869 q 415 988 299 988 q 544 959 486 988 q 638 878 603 931 q 674 749 674 825 q 629 590 674 671 q 508 450 585 510 l 615 322 q 638 381 628 350 q 653 446 647 411 m 369 615 l 403 576 q 485 667 463 619 q 507 743 507 715 q 488 797 507 768 q 415 825 469 825 q 341 806 368 825 q 314 749 314 786 q 320 703 314 738 q 369 615 326 668 m 258 214 q 340 135 258 135 q 422 149 378 135 q 508 193 467 164 l 360 374 q 281 299 303 344 q 258 214 258 253 z "},"¶":{"ha":961,"x_min":33,"x_max":886,"o":"m 786 -293 q 709 -263 732 -293 q 686 -182 686 -233 l 686 876 q 709 958 686 928 q 786 988 732 988 q 863 958 840 988 q 886 876 886 928 l 886 -182 q 863 -263 886 -233 q 786 -293 840 -293 m 475 -293 q 398 -264 421 -293 q 375 -185 375 -235 l 375 247 q 374 351 375 317 q 358 396 372 385 q 307 407 344 407 q 228 424 274 407 q 138 476 182 442 q 63 565 93 511 q 33 689 33 618 q 63 834 33 776 q 144 925 93 892 q 260 973 196 958 q 393 988 325 988 q 504 974 465 988 q 559 930 543 961 q 575 843 575 899 l 575 -185 q 552 -264 575 -235 q 475 -293 529 -293 z "},"§":{"ha":699,"x_min":56,"x_max":629,"o":"m 317 0 q 122 30 189 0 q 56 115 56 60 q 75 172 56 151 q 126 193 94 193 q 154 190 140 193 q 206 174 168 186 q 257 162 229 167 q 304 157 285 157 q 375 169 354 157 q 396 211 396 182 q 383 253 396 236 q 333 286 369 271 q 225 322 296 301 q 85 504 85 363 q 108 578 85 544 q 171 635 131 613 q 101 771 101 685 q 179 931 101 874 q 397 988 257 988 q 560 960 503 988 q 617 879 617 932 q 597 823 617 844 q 543 801 576 801 q 463 817 519 801 q 416 828 438 825 q 374 832 394 832 q 306 785 306 832 q 333 737 306 756 q 436 697 361 718 q 584 618 539 668 q 629 482 629 568 q 550 347 629 390 q 596 215 596 297 q 520 58 596 117 q 317 0 444 0 m 392 432 q 436 497 436 450 q 431 526 436 515 q 408 547 426 538 q 347 569 389 557 q 283 547 299 560 q 268 504 268 533 q 276 478 268 488 q 310 458 283 468 q 392 432 336 449 z "},"©":{"ha":1072,"x_min":67,"x_max":1006,"o":"m 544 -11 q 275 54 381 -11 q 118 233 169 119 q 67 489 67 346 q 117 744 67 632 q 274 922 168 857 q 544 988 381 988 q 805 922 703 988 q 956 744 907 857 q 1006 489 1006 632 q 956 233 1006 346 q 806 54 907 119 q 544 -11 704 -11 m 544 111 q 744 160 672 111 q 847 294 817 208 q 878 488 878 379 q 847 682 878 597 q 744 815 817 767 q 544 864 672 864 q 335 815 411 864 q 226 682 258 767 q 194 488 194 597 q 226 294 194 379 q 335 160 258 208 q 544 111 411 111 m 568 210 q 373 285 436 210 q 310 488 310 361 q 373 690 310 613 q 568 768 436 768 q 689 751 651 768 q 726 689 726 733 q 710 653 726 668 q 664 643 693 639 q 632 649 643 646 q 607 653 621 651 q 564 654 593 654 q 489 630 515 654 q 452 567 463 606 q 442 488 442 529 q 449 408 442 447 q 482 345 456 369 q 565 321 508 321 q 626 326 607 321 q 664 333 646 332 q 712 324 697 336 q 726 288 726 311 q 689 226 726 243 q 568 210 651 210 z "},"®":{"ha":1072,"x_min":67,"x_max":1006,"o":"m 544 -11 q 275 54 381 -11 q 118 233 169 119 q 67 489 67 346 q 117 744 67 632 q 274 922 168 857 q 544 988 381 988 q 805 922 703 988 q 956 744 907 857 q 1006 489 1006 632 q 956 233 1006 346 q 806 54 907 119 q 544 -11 704 -11 m 544 111 q 744 161 672 111 q 847 297 817 211 q 878 488 878 382 q 847 682 878 597 q 744 815 817 767 q 544 864 672 864 q 335 815 411 864 q 226 682 258 767 q 194 488 194 597 q 226 294 194 379 q 335 160 258 208 q 544 111 411 111 m 424 226 q 364 279 364 226 l 364 599 q 378 680 364 640 q 433 746 392 719 q 560 772 475 772 q 688 728 642 772 q 735 611 735 683 q 733 563 735 588 q 728 526 731 538 q 713 490 722 506 q 686 463 704 474 q 718 427 708 447 q 728 385 728 407 l 728 279 q 711 240 728 253 q 671 226 694 226 q 626 240 644 226 q 608 279 608 253 l 608 342 q 601 419 608 393 q 549 446 593 446 q 499 428 514 446 q 483 363 483 411 l 483 279 q 467 240 483 253 q 424 226 450 226 m 476 515 q 502 533 489 526 q 546 540 515 540 q 609 547 592 540 q 626 592 626 553 q 608 651 626 635 q 557 667 590 667 q 500 653 517 667 q 483 604 483 639 q 482 563 483 588 q 476 515 481 538 z "},"™":{"ha":1393,"x_min":61,"x_max":1242,"o":"m 1124 507 l 1124 765 q 1102 842 1124 818 q 1032 865 1081 865 q 942 765 942 865 l 942 507 q 928 455 942 472 q 882 438 915 438 q 837 455 850 438 q 824 507 824 472 l 824 765 q 735 865 824 865 q 663 841 685 865 q 642 765 642 817 l 642 507 q 628 451 642 469 q 582 433 614 433 q 537 451 550 433 q 524 507 524 469 l 524 776 q 569 934 524 893 q 707 975 614 975 q 817 962 774 975 q 883 900 860 949 q 950 962 907 949 q 1060 975 993 975 q 1191 929 1140 975 q 1242 776 1242 883 l 1242 507 q 1183 433 1242 433 q 1124 507 1124 433 m 332 507 q 272 433 332 433 q 214 507 214 433 l 214 833 q 221 857 214 851 q 246 865 228 863 l 111 865 q 73 885 85 865 q 61 922 61 904 q 111 972 61 972 l 439 972 q 489 922 489 972 q 477 883 489 900 q 439 865 465 865 l 332 865 l 332 507 z "},"°":{"ha":615,"x_min":83,"x_max":532,"o":"m 308 539 q 194 569 244 539 q 113 649 143 599 q 83 764 83 700 q 113 878 83 828 q 194 958 143 928 q 308 988 244 988 q 422 958 371 988 q 502 878 472 928 q 532 764 532 828 q 502 649 532 700 q 422 569 472 599 q 308 539 371 539 m 310 671 q 375 697 350 671 q 400 764 400 722 q 375 830 400 804 q 310 856 350 856 q 241 830 267 856 q 215 764 215 804 q 241 697 215 722 q 310 671 267 671 z "},"|":{"ha":424,"x_min":111,"x_max":311,"o":"m 211 -431 q 134 -401 157 -431 q 111 -322 111 -372 l 111 1017 q 134 1096 111 1067 q 211 1125 157 1125 q 288 1096 265 1125 q 311 1017 311 1067 l 311 -322 q 288 -401 311 -372 q 211 -431 265 -431 z "},"¦":{"ha":424,"x_min":111,"x_max":311,"o":"m 211 353 q 134 382 157 353 q 111 461 111 411 l 111 1017 q 134 1096 111 1067 q 211 1125 157 1125 q 288 1096 265 1125 q 311 1017 311 1067 l 311 461 q 288 382 311 411 q 211 353 265 353 m 211 -431 q 134 -401 157 -431 q 111 -322 111 -372 l 111 122 q 134 201 111 172 q 211 231 157 231 q 288 201 265 231 q 311 122 311 172 l 311 -322 q 288 -401 311 -372 q 211 -431 265 -431 z "},"†":{"ha":583,"x_min":42,"x_max":542,"o":"m 296 200 q 219 229 242 200 q 196 308 196 258 l 196 763 l 150 763 q 71 785 100 763 q 42 863 42 808 q 71 940 42 917 q 150 963 100 963 l 196 963 l 196 1017 q 219 1096 196 1067 q 296 1125 242 1125 q 373 1096 350 1125 q 396 1017 396 1067 l 396 963 l 433 963 q 513 940 483 963 q 542 863 542 917 q 513 785 542 808 q 433 763 483 763 l 396 763 l 396 308 q 373 229 396 258 q 296 200 350 200 z "},"‡":{"ha":583,"x_min":42,"x_max":542,"o":"m 296 200 q 219 229 242 200 q 196 308 196 258 l 196 464 l 150 464 q 71 487 100 464 q 42 564 42 510 q 71 641 42 618 q 150 664 100 664 l 196 664 l 196 763 l 150 763 q 71 785 100 763 q 42 863 42 808 q 71 940 42 917 q 150 963 100 963 l 196 963 l 196 1017 q 219 1096 196 1067 q 296 1125 242 1125 q 373 1096 350 1125 q 396 1017 396 1067 l 396 963 l 433 963 q 513 940 483 963 q 542 863 542 917 q 513 785 542 808 q 433 763 483 763 l 396 763 l 396 664 l 433 664 q 513 641 483 664 q 542 564 542 618 q 513 487 542 510 q 433 464 483 464 l 396 464 l 396 308 q 373 229 396 258 q 296 200 350 200 z "},"¢":{"ha":626,"x_min":46,"x_max":585,"o":"m 374 -150 q 322 -131 338 -150 q 306 -81 306 -112 l 306 -6 q 110 109 174 15 q 46 346 46 203 q 110 583 46 489 q 306 700 174 678 l 306 775 q 322 826 306 807 q 374 844 338 844 q 426 826 411 844 q 442 775 442 807 l 442 704 q 550 676 515 699 q 585 604 585 653 q 563 546 585 564 q 503 528 540 528 q 461 532 476 528 q 428 540 446 536 q 375 543 411 543 q 298 514 326 543 q 258 440 269 485 q 246 346 246 394 q 255 253 246 299 q 292 180 264 208 q 376 151 319 151 q 454 159 429 151 q 503 167 479 167 q 563 153 540 167 q 585 100 585 140 q 550 25 585 51 q 442 -8 515 -1 l 442 -81 q 426 -131 442 -112 q 374 -150 411 -150 z "},"$":{"ha":772,"x_min":67,"x_max":706,"o":"m 454 -21 q 437 -101 454 -72 q 388 -129 419 -129 q 319 -42 319 -129 l 319 -11 q 213 -2 268 -10 q 125 19 158 6 q 67 99 67 43 q 91 163 67 139 q 168 188 115 188 q 256 178 204 188 q 346 168 307 168 q 469 190 432 168 q 507 281 507 213 q 478 349 507 321 q 365 401 450 376 q 142 515 211 447 q 74 692 74 583 q 141 885 74 811 q 319 981 208 960 l 319 983 q 388 1094 319 1094 q 454 986 454 1094 q 590 957 535 979 q 649 878 649 935 q 624 813 649 838 q 547 789 600 789 q 472 797 513 789 q 393 804 432 804 q 303 783 333 804 q 272 714 272 763 q 315 633 272 669 q 474 563 358 597 q 656 458 606 524 q 706 290 706 392 q 640 97 706 171 q 454 0 575 24 l 454 -21 z "},"€":{"ha":740,"x_min":-58,"x_max":696,"o":"m 13 308 q -39 326 -19 308 q -58 386 -58 343 q -39 445 -58 428 q 13 463 -19 463 l 67 463 q 67 482 67 472 q 67 525 67 504 l 13 525 q -39 542 -19 525 q -58 603 -58 560 q -39 662 -58 644 q 13 679 -19 679 l 83 679 q 204 908 113 829 q 469 988 296 988 q 576 978 524 988 q 662 943 628 968 q 696 871 696 918 q 671 813 696 836 q 590 789 646 789 q 522 797 560 789 q 435 804 485 804 q 340 774 374 804 q 290 679 306 743 l 433 679 q 485 662 465 679 q 504 603 504 644 q 485 542 504 560 q 433 525 465 525 l 275 525 q 275 482 275 506 q 275 463 275 471 l 433 463 q 485 445 465 463 q 504 386 504 428 q 485 326 504 343 q 433 308 465 308 l 292 308 q 345 206 310 238 q 435 174 381 174 q 522 181 485 174 q 590 189 560 189 q 671 166 646 189 q 696 107 696 143 q 662 35 696 60 q 576 0 628 10 q 469 -10 524 -10 q 197 70 289 -10 q 79 308 106 150 l 13 308 z "},"£":{"ha":817,"x_min":25,"x_max":750,"o":"m 201 0 q 101 108 101 0 q 119 195 101 149 q 157 296 138 242 q 179 411 176 350 l 96 411 q 44 428 64 411 q 25 489 25 446 q 44 548 25 531 q 96 565 64 565 l 161 565 q 180 808 147 717 q 294 941 213 899 q 506 988 375 983 q 578 984 538 988 q 659 969 619 981 q 724 936 699 958 q 750 878 750 914 q 726 817 750 838 q 649 796 701 796 q 575 800 614 796 q 499 804 536 804 q 416 795 444 804 q 378 761 388 786 q 368 689 368 736 q 369 565 368 642 l 517 565 q 568 548 549 565 q 588 489 588 531 q 568 428 588 446 q 517 411 549 411 l 367 411 q 344 307 360 350 q 312 227 328 264 q 290 150 296 190 q 379 193 326 193 l 639 193 q 718 168 690 193 q 746 96 746 143 q 639 0 746 0 l 201 0 z "},"¥":{"ha":799,"x_min":13,"x_max":767,"o":"m 214 76 q 166 91 183 76 q 149 136 149 106 q 166 182 149 167 q 214 197 183 197 l 325 197 l 325 257 l 214 257 q 166 272 183 257 q 149 317 149 286 q 166 362 149 347 q 214 376 183 376 l 315 376 l 46 839 q 34 942 13 897 q 113 988 56 988 q 188 967 158 988 q 243 899 217 947 l 444 529 q 529 615 500 581 q 569 680 558 649 q 579 750 579 711 q 571 836 579 789 q 563 906 563 883 q 592 964 563 940 q 663 988 621 988 q 740 938 713 988 q 767 794 767 889 q 758 682 767 729 q 723 592 749 635 q 651 498 697 549 q 528 376 604 447 l 625 376 q 673 362 656 376 q 690 317 690 347 q 673 272 690 286 q 625 257 656 257 l 525 257 l 525 197 l 625 197 q 673 182 656 197 q 690 136 690 167 q 673 91 690 106 q 625 76 656 76 l 525 76 q 428 -11 522 -11 q 325 76 325 -11 l 214 76 z "},"+":{"ha":776,"x_min":28,"x_max":749,"o":"m 122 363 q 53 384 79 363 q 28 449 28 406 q 53 514 28 493 q 122 535 79 535 l 303 535 l 303 714 q 324 783 303 758 q 389 808 346 808 q 454 783 433 808 q 475 714 475 758 l 475 535 l 654 535 q 724 514 699 535 q 749 449 749 493 q 724 384 749 406 q 654 363 699 363 l 475 363 l 475 182 q 454 113 475 139 q 389 88 433 88 q 324 113 346 88 q 303 182 303 139 l 303 363 l 122 363 z "},"−":{"ha":776,"x_min":28,"x_max":749,"o":"m 122 360 q 53 381 79 360 q 28 446 28 403 q 53 511 28 490 q 122 532 79 532 l 654 532 q 724 511 699 532 q 749 446 749 490 q 724 381 749 403 q 654 360 699 360 l 122 360 z "},"×":{"ha":718,"x_min":25,"x_max":694,"o":"m 185 763 l 360 575 l 533 763 q 596 799 563 794 q 663 772 629 803 q 691 709 694 742 q 660 644 688 676 l 476 449 l 660 251 q 690 188 688 221 q 661 124 693 154 q 596 98 629 93 q 533 133 563 103 l 360 321 l 185 133 q 122 98 156 103 q 57 124 89 93 q 28 188 26 154 q 58 251 31 221 l 242 449 l 58 644 q 28 709 31 676 q 56 772 25 742 q 122 799 89 803 q 185 763 156 794 z "},"÷":{"ha":776,"x_min":28,"x_max":749,"o":"m 389 604 q 316 632 343 604 q 289 703 289 660 q 316 775 289 747 q 389 803 343 803 q 461 775 433 803 q 489 703 489 747 q 461 632 489 660 q 389 604 433 604 m 122 357 q 53 378 79 357 q 28 443 28 400 q 53 508 28 488 q 122 529 79 529 l 654 529 q 724 508 699 529 q 749 443 749 488 q 724 378 749 400 q 654 357 699 357 l 122 357 m 389 82 q 316 110 343 82 q 289 181 289 138 q 316 253 289 225 q 389 281 343 281 q 461 253 433 281 q 489 181 489 225 q 461 110 489 138 q 389 82 433 82 z "},"=":{"ha":776,"x_min":28,"x_max":749,"o":"m 122 517 q 53 538 79 517 q 28 603 28 560 q 53 668 28 647 q 122 689 79 689 l 654 689 q 724 668 699 689 q 749 603 749 647 q 724 538 749 560 q 654 517 699 517 l 122 517 m 122 197 q 53 219 79 197 q 28 283 28 240 q 53 349 28 328 q 122 369 79 369 l 654 369 q 724 349 699 369 q 749 283 749 328 q 724 219 749 240 q 654 197 699 197 l 122 197 z "},"≠":{"ha":776,"x_min":28,"x_max":749,"o":"m 178 53 q 122 70 143 53 q 101 115 101 88 q 110 143 101 129 l 146 197 l 122 197 q 53 219 79 197 q 28 283 28 240 q 53 349 28 328 q 122 369 79 369 l 261 369 l 361 517 l 122 517 q 53 538 79 517 q 28 603 28 560 q 53 668 28 647 q 122 689 79 689 l 476 689 l 529 768 q 596 810 557 810 q 668 750 668 810 q 656 707 668 729 l 643 689 l 654 689 q 724 668 699 689 q 749 603 749 647 q 724 538 749 560 q 654 517 699 517 l 528 517 l 429 369 l 654 369 q 724 349 699 369 q 749 283 749 328 q 724 219 749 240 q 654 197 699 197 l 314 197 l 244 93 q 178 53 218 53 z "},">":{"ha":658,"x_min":19,"x_max":632,"o":"m 160 151 q 89 141 121 132 q 38 189 57 150 q 34 258 19 229 q 88 307 49 288 l 354 440 l 88 574 q 34 623 49 593 q 38 692 19 653 q 89 740 57 732 q 160 729 121 749 l 588 511 q 622 480 611 500 q 631 440 632 460 q 622 402 632 422 q 590 371 611 382 l 160 151 z "},"<":{"ha":658,"x_min":26,"x_max":639,"o":"m 499 151 l 68 371 q 37 402 47 382 q 28 440 26 422 q 38 480 26 460 q 71 511 49 500 l 499 729 q 571 740 539 749 q 621 692 603 732 q 625 623 639 653 q 571 574 611 593 l 304 440 l 571 307 q 625 258 611 288 q 621 189 639 229 q 571 141 603 150 q 499 151 539 132 z "},"≥":{"ha":672,"x_min":28,"x_max":646,"o":"m 174 331 q 103 320 135 311 q 51 368 71 329 q 48 438 33 408 q 101 486 63 467 l 368 619 l 101 753 q 48 802 63 772 q 51 871 33 832 q 103 919 71 911 q 174 908 135 928 l 601 690 q 635 659 625 679 q 644 619 646 639 q 635 581 646 601 q 604 550 625 561 l 174 331 m 122 32 q 53 53 79 32 q 28 118 28 75 q 53 183 28 163 q 122 204 79 204 l 535 204 q 604 183 579 204 q 629 118 629 163 q 604 53 629 75 q 535 32 579 32 l 122 32 z "},"≤":{"ha":672,"x_min":26,"x_max":644,"o":"m 499 331 l 68 550 q 37 581 47 561 q 28 619 26 601 q 38 659 26 639 q 71 690 49 679 l 499 908 q 571 919 539 928 q 621 871 603 911 q 625 802 639 832 q 571 753 611 772 l 304 619 l 571 486 q 625 438 611 467 q 621 368 639 408 q 571 320 603 329 q 499 331 539 311 m 550 32 l 138 32 q 69 53 94 32 q 43 118 43 75 q 69 183 43 163 q 138 204 94 204 l 550 204 q 619 183 594 204 q 644 118 644 163 q 619 53 644 75 q 550 32 594 32 z "},"±":{"ha":776,"x_min":28,"x_max":749,"o":"m 122 475 q 53 497 79 475 q 28 561 28 518 q 53 626 28 606 q 122 647 79 647 l 303 647 l 303 740 q 324 810 303 785 q 389 835 346 835 q 454 810 433 835 q 475 740 475 785 l 475 647 l 654 647 q 724 626 699 647 q 749 561 749 606 q 724 497 749 518 q 654 475 699 475 l 475 475 l 475 367 q 454 298 475 324 q 389 272 433 272 q 324 298 346 272 q 303 367 303 324 l 303 475 l 122 475 m 122 32 q 53 53 79 32 q 28 118 28 75 q 53 183 28 163 q 122 204 79 204 l 654 204 q 724 183 699 204 q 749 118 749 163 q 724 53 749 75 q 654 32 699 32 l 122 32 z "},"≈":{"ha":793,"x_min":28,"x_max":765,"o":"m 136 567 q 62 594 85 567 q 39 658 39 621 q 67 752 39 703 q 145 835 94 801 q 265 869 196 869 q 369 849 333 869 q 438 807 404 828 q 482 780 460 792 q 525 768 504 768 q 569 783 554 768 q 596 817 585 797 q 622 853 607 838 q 668 868 638 868 q 742 841 719 868 q 765 776 765 814 q 738 683 765 732 q 659 599 710 633 q 539 565 608 565 q 438 586 472 565 q 367 628 403 607 q 324 655 346 642 q 279 668 301 668 q 235 653 250 668 q 208 617 219 638 q 182 582 197 597 q 136 567 167 567 m 125 186 q 51 213 74 186 q 28 278 28 240 q 56 372 28 322 q 134 455 83 421 q 254 489 185 489 q 358 468 322 489 q 426 426 393 447 q 471 399 449 411 q 514 388 493 388 q 558 402 543 388 q 585 437 574 417 q 611 472 596 457 q 657 488 626 488 q 731 460 708 488 q 754 396 754 433 q 726 302 754 351 q 648 219 699 253 q 528 185 597 185 q 426 206 461 185 q 356 247 392 226 q 313 274 335 261 q 268 288 290 288 q 224 272 239 288 q 197 237 208 257 q 171 201 186 217 q 125 186 156 186 z "},"¬":{"ha":776,"x_min":28,"x_max":749,"o":"m 122 490 q 53 512 79 490 q 28 576 28 533 q 53 642 28 621 q 122 663 79 663 l 654 663 q 724 642 699 663 q 749 576 749 621 l 749 215 q 728 147 749 172 q 663 121 707 121 q 598 147 619 121 q 576 215 576 172 l 576 490 l 122 490 z "},"~":{"ha":782,"x_min":28,"x_max":754,"o":"m 125 300 q 51 327 74 300 q 28 392 28 354 q 56 485 28 436 q 134 569 83 535 q 254 603 185 603 q 358 582 322 603 q 426 540 393 561 q 471 513 449 525 q 514 501 493 501 q 558 516 543 501 q 585 551 574 531 q 611 586 596 571 q 657 601 626 601 q 731 574 708 601 q 754 510 754 547 q 726 416 754 465 q 648 333 699 367 q 528 299 597 299 q 426 319 461 299 q 356 361 392 340 q 313 388 335 375 q 268 401 290 401 q 224 386 239 401 q 197 351 208 371 q 171 315 186 331 q 125 300 156 300 z "},"^":{"ha":661,"x_min":22,"x_max":639,"o":"m 197 111 q 149 58 178 72 q 79 61 119 43 q 31 113 40 81 q 42 183 22 144 l 257 606 q 292 644 272 633 q 331 654 313 654 q 370 644 350 654 q 404 606 390 633 l 619 183 q 631 113 639 144 q 582 61 622 81 q 513 58 543 43 q 464 111 483 72 l 331 378 l 197 111 z "},"∅":{"ha":1072,"x_min":53,"x_max":1019,"o":"m 379 -137 q 328 -112 353 -137 q 315 -43 304 -86 l 333 25 q 123 203 193 79 q 53 489 53 326 q 107 744 53 632 q 271 922 161 857 q 544 988 381 988 q 593 986 569 988 l 599 1008 q 618 1063 607 1038 q 650 1100 629 1088 q 706 1103 671 1113 q 750 1075 739 1094 q 760 1033 761 1056 q 753 988 758 1010 q 743 953 749 971 q 951 776 882 900 q 1019 489 1019 651 q 967 233 1019 346 q 809 54 914 119 q 544 -11 704 -11 q 482 -8 513 -11 q 474 -43 478 -26 q 449 -112 464 -86 q 379 -137 433 -137 m 544 832 q 349 788 422 832 q 242 666 275 743 q 208 488 208 589 q 247 297 208 379 q 374 175 286 215 l 551 832 l 544 832 m 864 488 q 826 680 864 597 q 703 801 789 763 q 644 589 675 703 q 581 360 613 475 q 522 143 549 246 q 544 143 533 143 q 731 188 661 143 q 833 310 801 232 q 864 488 864 388 z "},"∞":{"ha":1225,"x_min":49,"x_max":1176,"o":"m 49 406 q 82 553 49 489 q 176 653 115 617 q 318 689 238 689 q 466 649 389 689 q 611 538 543 610 q 757 648 679 607 q 913 689 835 689 q 1055 648 996 689 q 1145 542 1114 607 q 1176 406 1176 478 q 1144 271 1176 333 q 1053 169 1113 208 q 913 131 994 131 q 758 171 835 131 q 613 281 682 211 q 318 131 467 131 q 178 166 239 131 q 83 264 117 201 q 49 406 49 326 m 225 410 q 258 331 225 361 q 343 301 292 301 q 511 410 422 301 q 425 495 464 469 q 343 521 386 521 q 258 490 292 521 q 225 410 225 458 m 999 410 q 966 490 999 458 q 881 521 933 521 q 799 495 838 521 q 713 410 761 469 q 881 301 801 301 q 966 331 933 301 q 999 410 999 361 z "}}}
